{
.appVersion = "1268";
DisplayStrings = (
"Tr/abreve m n/abreve m trong cõi ng/uhorn/ohorngrave i ta, ch/uhorntilde  tài ch/uhorntilde  m/ecircumflexdotbelow nh khéo là ghét nhau. Tr/ahookabove i qua m/ocircumflexdotbelow t cu/ocircumflexdotbelow c b/ecircumflexhookabove  dâu, nh/uhorntilde ng /dcroat i/ecircumflexgrave u trông th/acircumflexacute y mà /dcroat au /dcroat/ohornacute n lòng. L/adotbelow  gì b/ihookabove  s/abreveacute c t/uhorn  phong, tr/ohorngrave i xanh quen v/ohornacute i má h/ocircumflexgrave ng /dcroat ánh ghen. ",
"\015",
"/Omicrontonos",
"/Ocircumflexdotbelow",
d
);
classes = (
{
automatic = 1;

glyphs = (
{
glyphname = A;
lastChange = "2019-10-30 23:19:21 +0000";
layers = (
{
anchors = (
{
name = bottom;
position = "{298, 0}";
},
{
name = ogonek;
position = "{556, 10}";
},
{
name = top;
position = "{299, 740}";
}
);
background = {
paths = (
{
closed = 1;
nodes = (
"280 760 LINE",
"260 693 LINE",
"461 60 LINE SMOOTH",
"472 24 OFFCURVE",
"443 9 OFFCURVE",
"394 25 CURVE",
"394 0 LINE",
"635 0 LINE",
"635 25 LINE",
"586 9 OFFCURVE",
"554 24 OFFCURVE",
"543 60 CURVE SMOOTH",
"331 760 LINE"
);
},
{
closed = 1;
nodes = (
"163 325 LINE",
"418 325 LINE",
"418 343 LINE",
"163 343 LINE"
);
},
{
closed = 1;
nodes = (
"169 0 LINE",
"169 25 LINE",
"120 8 OFFCURVE",
"76 12 OFFCURVE",
"89 60 CURVE",
"96 85 LINE SMOOTH",
"159 311 OFFCURVE",
"228 535 OFFCURVE",
"293 760 CURVE",
"273 760 LINE",
"143 333 OFFCURVE",
"198 480 OFFCURVE",
"61 69 CURVE SMOOTH",
"58 60 OFFCURVE",
"54 50 OFFCURVE",
"49 40 CURVE SMOOTH",
"34 10 OFFCURVE",
"-1 12 OFFCURVE",
"-40 25 CURVE",
"-40 0 LINE"
);
}
);
};
guideLines = (
{
angle = 90;
position = "{-47, 361}";
},
{
angle = 90;
position = "{635, 348}";
},
{
angle = 90;
position = "{294, 361}";
},
{
position = "{1035, -20}";
},
{
position = "{412, 370}";
},
{
angle = 107;
position = "{428, 440}";
},
{
angle = 252.0506;
position = "{221, 440}";
},
{
position = "{307, 15}";
}
);
layerId = "8BDB995E-2F86-4134-8150-9944A684F6E9";
paths = (
{
closed = 1;
nodes = (
"635 0 LINE",
"635 25 LINE",
"586 8 OFFCURVE",
"558 10 OFFCURVE",
"549 40 CURVE SMOOTH",
"331 760 LINE",
"280 760 LINE",
"260 693 LINE",
"467 40 LINE SMOOTH",
"476 11 OFFCURVE",
"443 8 OFFCURVE",
"394 25 CURVE",
"394 0 LINE"
);
},
{
closed = 1;
nodes = (
"169 0 LINE",
"169 25 LINE",
"120 8 OFFCURVE",
"76 12 OFFCURVE",
"89 60 CURVE",
"96 85 LINE SMOOTH",
"159 311 OFFCURVE",
"228 535 OFFCURVE",
"293 760 CURVE",
"273 760 LINE",
"61 69 LINE",
"58 60 OFFCURVE",
"54 50 OFFCURVE",
"49 40 CURVE SMOOTH",
"34 10 OFFCURVE",
"-1 11 OFFCURVE",
"-40 25 CURVE",
"-40 0 LINE"
);
},
{
closed = 1;
nodes = (
"418 325 LINE",
"418 343 LINE",
"163 343 LINE",
"163 325 LINE"
);
}
);
width = 605;
}
);
leftKerningGroup = W;
leftMetricsKey = "=W";
rightMetricsKey = "=W";
unicode = 0041;
},
{
glyphname = AE;
lastChange = "2019-10-30 23:19:49 +0000";
layers = (
{
layerId = "8BDB995E-2F86-4134-8150-9944A684F6E9";
paths = (
{
closed = 1;
nodes = (
"239 0 LINE",
"239 25 LINE",
"190 8 OFFCURVE",
"138 14 OFFCURVE",
"159 60 CURVE SMOOTH",
"451 711 LINE",
"466 704 OFFCURVE",
"476 694 OFFCURVE",
"476 680 CURVE SMOOTH",
"476 60 LINE SMOOTH",
"476 24 OFFCURVE",
"450 9 OFFCURVE",
"401 25 CURVE",
"401 0 LINE",
"908 0 LINE",
"908 102 LINE SMOOTH",
"908 169 OFFCURVE",
"911 208 OFFCURVE",
"931 226 CURVE",
"917 226 LINE",
"861 136 OFFCURVE",
"922 10 OFFCURVE",
"669 10 CURVE SMOOTH",
"553 10 OFFCURVE",
"553 81 OFFCURVE",
"551 125 CURVE",
"551 407 LINE",
"555 407 LINE SMOOTH",
"713 407 OFFCURVE",
"753 416 OFFCURVE",
"753 380 CURVE SMOOTH",
"753 358 OFFCURVE",
"756 320 OFFCURVE",
"729 320 CURVE",
"729 307 LINE",
"768 307 LINE",
"768 534 LINE",
"729 534 LINE",
"729 521 LINE",
"756 521 OFFCURVE",
"753 483 OFFCURVE",
"753 461 CURVE SMOOTH",
"753 426 OFFCURVE",
"709 427 OFFCURVE",
"689 427 CURVE SMOOTH",
"551 427 LINE",
"551 615 LINE",
"553 659 OFFCURVE",
"547 730 OFFCURVE",
"663 730 CURVE SMOOTH",
"874 730 OFFCURVE",
"821 640 OFFCURVE",
"858 570 CURVE",
"874 570 LINE",
"857 612 OFFCURVE",
"859 677 OFFCURVE",
"863 711 CURVE SMOOTH",
"866 740 LINE",
"357 740 LINE",
"357 715 LINE",
"381 723 OFFCURVE",
"408 726 OFFCURVE",
"424 719 CURVE SMOOTH",
"433 715 OFFCURVE",
"428 704 OFFCURVE",
"424 695 CURVE",
"131 69 LINE SMOOTH",
"125 56 OFFCURVE",
"122 49 OFFCURVE",
"114 40 CURVE SMOOTH",
"99 24 OFFCURVE",
"69 11 OFFCURVE",
"30 25 CURVE",
"30 0 LINE"
);
},
{
closed = 1;
nodes = (
"488 408 LINE",
"488 426 LINE",
"308 426 LINE",
"308 408 LINE"
);
}
);
width = 931;
}
);
rightMetricsKey = "=E";
unicode = 00C6;
},
{
glyphname = B;
lastChange = "2019-11-03 11:19:09 +0000";
layers = (
{
anchors = (
{
name = bottom;
position = "{281, 0}";
},
{
name = top;
position = "{281, 740}";
}
);
layerId = "8BDB995E-2F86-4134-8150-9944A684F6E9";
paths = (
{
closed = 1;
nodes = (
"279 0 LINE SMOOTH",
"408 0 OFFCURVE",
"552 67 OFFCURVE",
"552 237 CURVE SMOOTH",
"552 365 OFFCURVE",
"395 409 OFFCURVE",
"341 413 CURVE SMOOTH",
"338 413 OFFCURVE",
"338 415 OFFCURVE",
"341 415 CURVE SMOOTH",
"395 419 OFFCURVE",
"497 481 OFFCURVE",
"497 574 CURVE SMOOTH",
"497 706 OFFCURVE",
"367 740 OFFCURVE",
"263 740 CURVE SMOOTH",
"20 740 LINE",
"20 715 LINE",
"69 731 OFFCURVE",
"94 716 OFFCURVE",
"95 680 CURVE SMOOTH",
"95 60 LINE SMOOTH",
"94 24 OFFCURVE",
"69 9 OFFCURVE",
"20 25 CURVE",
"20 0 LINE"
);
},
{
closed = 1;
nodes = (
"170 722 LINE",
"192 726 OFFCURVE",
"221 730 OFFCURVE",
"265 730 CURVE SMOOTH",
"348 730 OFFCURVE",
"430 683 OFFCURVE",
"428 562 CURVE SMOOTH",
"428 433 OFFCURVE",
"339 426 OFFCURVE",
"301 425 CURVE SMOOTH",
"272 426 OFFCURVE",
"262 431 OFFCURVE",
"262 459 CURVE SMOOTH",
"262 481 OFFCURVE",
"259 519 OFFCURVE",
"286 519 CURVE",
"286 532 LINE",
"247 532 LINE",
"247 300 LINE",
"286 300 LINE",
"286 314 LINE",
"259 314 OFFCURVE",
"262 356 OFFCURVE",
"262 378 CURVE SMOOTH",
"262 397 OFFCURVE",
"274 403 OFFCURVE",
"310 405 CURVE",
"399 400 OFFCURVE",
"471 360 OFFCURVE",
"471 223 CURVE SMOOTH",
"471 109 OFFCURVE",
"401 10 OFFCURVE",
"253 10 CURVE SMOOTH",
"213 10 OFFCURVE",
"170 17 OFFCURVE",
"170 114 CURVE SMOOTH"
);
}
);
width = 562;
}
);
leftKerningGroup = I;
leftMetricsKey = "=H";
rightMetricsKey = "=H-10";
unicode = 0042;
},
{
glyphname = Bstroke;
lastChange = "2019-10-30 23:19:49 +0000";
layers = (
{
components = (
{
name = B;
}
);
layerId = "8BDB995E-2F86-4134-8150-9944A684F6E9";
paths = (
{
closed = 1;
nodes = (
"296 226 LINE",
"296 244 LINE",
"41 244 LINE",
"41 226 LINE"
);
}
);
width = 602;
}
);
unicode = 0243;
},
{
glyphname = C;
lastChange = "2019-10-30 23:19:49 +0000";
layers = (
{
anchors = (
{
name = bottom;
position = "{337, 0}";
},
{
name = top;
position = "{369, 740}";
}
);
guideLines = (
{
position = "{402, -20}";
}
);
layerId = "8BDB995E-2F86-4134-8150-9944A684F6E9";
paths = (
{
closed = 1;
nodes = (
"497 -20 OFFCURVE",
"630 56 OFFCURVE",
"630 104 CURVE",
"630 189 OFFCURVE",
"637 241 OFFCURVE",
"659 261 CURVE",
"645 261 LINE",
"615 225 OFFCURVE",
"612 170 OFFCURVE",
"598 133 CURVE",
"564 56 OFFCURVE",
"490 0 OFFCURVE",
"402 0 CURVE SMOOTH",
"219 0 OFFCURVE",
"135 184 OFFCURVE",
"135 374 CURVE SMOOTH",
"135 582 OFFCURVE",
"231 740 OFFCURVE",
"369 740 CURVE SMOOTH",
"506 740 OFFCURVE",
"608 623 OFFCURVE",
"608 520 CURVE",
"629 520 LINE",
"629 743 LINE",
"612 743 LINE",
"597 668 LINE",
"560 718 OFFCURVE",
"449 760 OFFCURVE",
"383 760 CURVE SMOOTH",
"196 760 OFFCURVE",
"50 599 OFFCURVE",
"50 370 CURVE SMOOTH",
"50 160 OFFCURVE",
"207 -20 OFFCURVE",
"380 -20 CURVE SMOOTH"
);
}
);
width = 659;
}
);
leftKerningGroup = O;
leftMetricsKey = "=O";
rightMetricsKey = "=H-20";
unicode = 0043;
},
{
glyphname = D;
lastChange = "2019-10-30 23:19:49 +0000";
layers = (
{
anchors = (
{
name = bottom;
position = "{299, 0}";
},
{
name = center;
position = "{171, 370}";
},
{
name = top;
position = "{314, 740}";
}
);
layerId = "8BDB995E-2F86-4134-8150-9944A684F6E9";
paths = (
{
closed = 1;
nodes = (
"158 0 LINE SMOOTH",
"168 0 OFFCURVE",
"224 0 OFFCURVE",
"261 0 CURVE SMOOTH",
"329 0 LINE SMOOTH",
"502 0 OFFCURVE",
"644 180 OFFCURVE",
"644 390 CURVE SMOOTH",
"644 600 OFFCURVE",
"502 740 OFFCURVE",
"329 740 CURVE SMOOTH",
"158 740 LINE",
"20 740 LINE",
"20 715 LINE",
"69 731 OFFCURVE",
"95 716 OFFCURVE",
"95 680 CURVE SMOOTH",
"95 60 LINE SMOOTH",
"95 24 OFFCURVE",
"69 9 OFFCURVE",
"20 25 CURVE",
"20 0 LINE"
);
},
{
closed = 1;
nodes = (
"199 17 OFFCURVE",
"170 25 OFFCURVE",
"170 60 CURVE SMOOTH",
"170 680 LINE SMOOTH",
"170 715 OFFCURVE",
"199 724 OFFCURVE",
"217 724 CURVE SMOOTH",
"248 724 OFFCURVE",
"276 724 OFFCURVE",
"307 724 CURVE SMOOTH",
"445 724 OFFCURVE",
"565 564 OFFCURVE",
"565 374 CURVE SMOOTH",
"565 117 OFFCURVE",
"410 17 OFFCURVE",
"307 17 CURVE SMOOTH",
"283 17 OFFCURVE",
"283 17 OFFCURVE",
"217 17 CURVE SMOOTH"
);
},
{
closed = 1;
nodes = (
"383 300 LINE",
"383 314 LINE",
"365 314 OFFCURVE",
"358 325 OFFCURVE",
"358 352 CURVE SMOOTH",
"358 480 LINE SMOOTH",
"358 507 OFFCURVE",
"364 518 OFFCURVE",
"382 518 CURVE",
"382 532 LINE",
"318 532 LINE",
"318 518 LINE",
"336 518 OFFCURVE",
"342 507 OFFCURVE",
"342 480 CURVE SMOOTH",
"342 352 LINE SMOOTH",
"342 325 OFFCURVE",
"335 314 OFFCURVE",
"318 314 CURVE",
"318 300 LINE"
);
}
);
width = 684;
}
);
leftKerningGroup = I;
leftMetricsKey = "=H";
rightMetricsKey = "=O-10";
unicode = 0044;
},
{
glyphname = Eth;
lastChange = "2019-10-30 23:19:49 +0000";
layers = (
{
layerId = "8BDB995E-2F86-4134-8150-9944A684F6E9";
paths = (
{
closed = 1;
nodes = (
"162 0 LINE SMOOTH",
"172 0 OFFCURVE",
"228 0 OFFCURVE",
"265 0 CURVE SMOOTH",
"333 0 LINE SMOOTH",
"506 0 OFFCURVE",
"648 180 OFFCURVE",
"648 390 CURVE SMOOTH",
"648 600 OFFCURVE",
"506 740 OFFCURVE",
"333 740 CURVE SMOOTH",
"162 740 LINE",
"24 740 LINE",
"24 715 LINE",
"73 731 OFFCURVE",
"99 716 OFFCURVE",
"99 680 CURVE SMOOTH",
"99 60 LINE SMOOTH",
"99 24 OFFCURVE",
"73 9 OFFCURVE",
"24 25 CURVE",
"24 0 LINE"
);
},
{
closed = 1;
nodes = (
"33 414 LINE",
"33 431 OFFCURVE",
"46 436 OFFCURVE",
"72 438 CURVE",
"228 438 LINE",
"248 437 OFFCURVE",
"268 434 OFFCURVE",
"268 414 CURVE",
"281 414 LINE",
"281 477 LINE",
"268 477 LINE",
"268 457 OFFCURVE",
"248 453 OFFCURVE",
"228 453 CURVE SMOOTH",
"174 453 LINE SMOOTH",
"152 453 OFFCURVE",
"122 453 OFFCURVE",
"76 453 CURVE",
"46 454 OFFCURVE",
"33 460 OFFCURVE",
"33 477 CURVE",
"20 477 LINE",
"20 414 LINE"
);
},
{
closed = 1;
nodes = (
"203 17 OFFCURVE",
"174 25 OFFCURVE",
"174 60 CURVE SMOOTH",
"174 680 LINE SMOOTH",
"174 715 OFFCURVE",
"203 724 OFFCURVE",
"221 724 CURVE SMOOTH",
"252 724 OFFCURVE",
"280 724 OFFCURVE",
"311 724 CURVE SMOOTH",
"449 724 OFFCURVE",
"569 564 OFFCURVE",
"569 374 CURVE SMOOTH",
"569 117 OFFCURVE",
"414 17 OFFCURVE",
"311 17 CURVE SMOOTH",
"287 17 OFFCURVE",
"287 17 OFFCURVE",
"221 17 CURVE SMOOTH"
);
}
);
width = 688;
}
);
leftMetricsKey = "=D";
rightMetricsKey = "=D";
unicode = 00D0;
},
{
glyphname = E;
lastChange = "2019-10-30 23:19:49 +0000";
layers = (
{
anchors = (
{
name = bottom;
position = "{294, 0}";
},
{
name = ogonek;
position = "{517, 0}";
},
{
name = top;
position = "{266, 740}";
},
{
name = topleft;
position = "{442, 740}";
}
);
guideLines = (
{
position = "{310, 730}";
},
{
angle = 90;
position = "{387, 248}";
}
);
layerId = "8BDB995E-2F86-4134-8150-9944A684F6E9";
paths = (
{
closed = 1;
nodes = (
"527 0 LINE",
"527 102 LINE SMOOTH",
"527 169 OFFCURVE",
"530 208 OFFCURVE",
"550 226 CURVE",
"536 226 LINE",
"480 136 OFFCURVE",
"541 10 OFFCURVE",
"288 10 CURVE SMOOTH",
"172 10 OFFCURVE",
"172 81 OFFCURVE",
"170 125 CURVE",
"170 615 LINE",
"172 659 OFFCURVE",
"166 730 OFFCURVE",
"282 730 CURVE SMOOTH",
"493 730 OFFCURVE",
"440 640 OFFCURVE",
"477 570 CURVE",
"493 570 LINE",
"476 612 OFFCURVE",
"478 677 OFFCURVE",
"482 711 CURVE SMOOTH",
"485 740 LINE",
"282 740 LINE",
"20 740 LINE",
"20 715 LINE",
"69 731 OFFCURVE",
"95 716 OFFCURVE",
"95 680 CURVE SMOOTH",
"95 60 LINE SMOOTH",
"95 24 OFFCURVE",
"69 9 OFFCURVE",
"20 25 CURVE",
"20 0 LINE"
);
},
{
closed = 1;
nodes = (
"387 300 LINE",
"387 532 LINE",
"348 532 LINE",
"348 519 LINE",
"375 519 OFFCURVE",
"372 481 OFFCURVE",
"372 459 CURVE SMOOTH",
"372 424 OFFCURVE",
"356 425 OFFCURVE",
"308 425 CURVE SMOOTH",
"165 425 LINE",
"165 406 LINE",
"308 406 LINE SMOOTH",
"356 405 OFFCURVE",
"372 400 OFFCURVE",
"372 378 CURVE SMOOTH",
"372 356 OFFCURVE",
"375 314 OFFCURVE",
"348 314 CURVE",
"348 300 LINE"
);
}
);
width = 550;
}
);
leftKerningGroup = I;
leftMetricsKey = "=H";
rightMetricsKey = "=H-20";
unicode = 0045;
},
{
glyphname = F;
lastChange = "2019-10-30 23:19:49 +0000";
layers = (
{
guideLines = (
{
angle = 90;
position = "{362, 356}";
}
);
layerId = "8BDB995E-2F86-4134-8150-9944A684F6E9";
paths = (
{
closed = 1;
nodes = (
"245 0 LINE",
"245 25 LINE",
"196 9 OFFCURVE",
"170 24 OFFCURVE",
"170 60 CURVE",
"170 680 LINE",
"170 685 OFFCURVE",
"171 689 OFFCURVE",
"173 694 CURVE",
"187 715 OFFCURVE",
"215 730 OFFCURVE",
"269 730 CURVE SMOOTH",
"480 730 OFFCURVE",
"427 640 OFFCURVE",
"464 570 CURVE",
"480 570 LINE",
"463 612 OFFCURVE",
"465 677 OFFCURVE",
"469 711 CURVE SMOOTH",
"472 740 LINE",
"20 740 LINE",
"20 715 LINE",
"69 731 OFFCURVE",
"95 716 OFFCURVE",
"95 680 CURVE SMOOTH",
"95 60 LINE SMOOTH",
"95 24 OFFCURVE",
"69 9 OFFCURVE",
"20 25 CURVE",
"20 0 LINE"
);
},
{
closed = 1;
nodes = (
"362 300 LINE",
"362 532 LINE",
"323 532 LINE",
"323 519 LINE",
"350 519 OFFCURVE",
"347 481 OFFCURVE",
"347 459 CURVE SMOOTH",
"347 424 OFFCURVE",
"331 425 OFFCURVE",
"283 425 CURVE SMOOTH",
"140 425 LINE",
"140 406 LINE",
"283 406 LINE SMOOTH",
"331 406 OFFCURVE",
"347 400 OFFCURVE",
"347 378 CURVE SMOOTH",
"347 356 OFFCURVE",
"350 314 OFFCURVE",
"323 314 CURVE",
"323 300 LINE"
);
}
);
width = 480;
}
);
leftKerningGroup = I;
leftMetricsKey = "=H";
rightMetricsKey = "=H-20";
unicode = 0046;
},
{
glyphname = G;
lastChange = "2019-10-30 23:19:49 +0000";
layers = (
{
anchors = (
{
name = bottom;
position = "{355, 0}";
},
{
name = top;
position = "{375, 740}";
}
);
guideLines = (
{
position = "{741, 760}";
},
{
angle = 90;
position = "{212, 402}";
},
{
position = "{914, -20}";
}
);
layerId = "8BDB995E-2F86-4134-8150-9944A684F6E9";
paths = (
{
closed = 1;
nodes = (
"483 -20 OFFCURVE",
"575 63 OFFCURVE",
"615 84 CURVE SMOOTH",
"630 92 OFFCURVE",
"644 98 OFFCURVE",
"659 98 CURVE",
"659 345 LINE",
"390 345 LINE",
"390 322 LINE",
"390 212 LINE",
"429 212 LINE",
"429 225 LINE",
"402 227 OFFCURVE",
"407 264 OFFCURVE",
"407 298 CURVE SMOOTH",
"407 323 OFFCURVE",
"417 326 OFFCURVE",
"489 326 CURVE SMOOTH",
"513 326 OFFCURVE",
"538 325 OFFCURVE",
"562 325 CURVE SMOOTH",
"588 325 OFFCURVE",
"593 284 OFFCURVE",
"593 232 CURVE SMOOTH",
"593 128 OFFCURVE",
"525 0 OFFCURVE",
"390 0 CURVE SMOOTH",
"204 0 OFFCURVE",
"135 184 OFFCURVE",
"135 374 CURVE SMOOTH",
"135 563 OFFCURVE",
"222 740 OFFCURVE",
"366 740 CURVE SMOOTH",
"528 740 OFFCURVE",
"600 623 OFFCURVE",
"600 520 CURVE",
"632 520 LINE",
"632 743 LINE",
"615 743 LINE",
"600 645 LINE",
"563 695 OFFCURVE",
"473 760 OFFCURVE",
"376 760 CURVE SMOOTH",
"182 760 OFFCURVE",
"50 581 OFFCURVE",
"50 370 CURVE SMOOTH",
"50 160 OFFCURVE",
"195 -20 OFFCURVE",
"385 -20 CURVE SMOOTH"
);
}
);
width = 709;
}
);
leftKerningGroup = O;
leftMetricsKey = "=O";
rightMetricsKey = "=O";
unicode = 0047;
},
{
glyphname = H;
lastChange = "2019-10-30 23:19:49 +0000";
layers = (
{
backgroundImage = {
alpha = 10;
crop = "{{0, 0}, {842, 596}}";
imagePath = ../../1_Sketch/Viaoda_Sketch_01.pdf;
locked = "1";
transform = "{5.17181, 0, 0, 5.17181, -1168, -2128}";
};
guideLines = (
{
position = "{560, 0}";
},
{
position = "{220, 712}";
}
);
layerId = "8BDB995E-2F86-4134-8150-9944A684F6E9";
paths = (
{
closed = 1;
nodes = (
"691 0 LINE",
"691 25 LINE",
"642 9 OFFCURVE",
"616 24 OFFCURVE",
"616 60 CURVE SMOOTH",
"616 680 LINE SMOOTH",
"616 716 OFFCURVE",
"642 731 OFFCURVE",
"691 715 CURVE",
"691 740 LINE",
"466 740 LINE",
"466 715 LINE",
"515 731 OFFCURVE",
"541 716 OFFCURVE",
"541 680 CURVE SMOOTH",
"541 60 LINE SMOOTH",
"541 24 OFFCURVE",
"515 9 OFFCURVE",
"466 25 CURVE",
"466 0 LINE"
);
},
{
closed = 1;
nodes = (
"245 0 LINE",
"245 25 LINE",
"196 10 OFFCURVE",
"170 24 OFFCURVE",
"170 60 CURVE SMOOTH",
"170 680 LINE SMOOTH",
"170 716 OFFCURVE",
"196 731 OFFCURVE",
"245 715 CURVE",
"245 740 LINE",
"20 740 LINE",
"20 715 LINE",
"69 731 OFFCURVE",
"95 716 OFFCURVE",
"95 680 CURVE SMOOTH",
"95 60 LINE SMOOTH",
"95 24 OFFCURVE",
"69 9 OFFCURVE",
"20 25 CURVE",
"20 0 LINE"
);
},
{
closed = 1;
nodes = (
"170 356 OFFCURVE",
"254 380 OFFCURVE",
"288 380 CURVE",
"334 380 LINE",
"346 380 OFFCURVE",
"349 384 OFFCURVE",
"349 402 CURVE SMOOTH",
"349 453 OFFCURVE",
"349 481 OFFCURVE",
"349 532 CURVE",
"304 532 LINE",
"304 519 LINE",
"331 519 OFFCURVE",
"337 468 OFFCURVE",
"337 446 CURVE SMOOTH",
"337 404 OFFCURVE",
"318 393 OFFCURVE",
"300 393 CURVE SMOOTH",
"242 393 OFFCURVE",
"170 367 OFFCURVE",
"170 342 CURVE",
"170 238 LINE"
);
},
{
closed = 1;
nodes = (
"407 241 LINE",
"407 254 LINE",
"380 254 OFFCURVE",
"374 305 OFFCURVE",
"374 327 CURVE SMOOTH",
"374 369 OFFCURVE",
"393 380 OFFCURVE",
"411 380 CURVE SMOOTH",
"469 380 OFFCURVE",
"541 406 OFFCURVE",
"541 431 CURVE",
"541 535 LINE",
"541 417 OFFCURVE",
"457 393 OFFCURVE",
"423 393 CURVE",
"377 393 LINE",
"365 393 OFFCURVE",
"362 389 OFFCURVE",
"362 371 CURVE SMOOTH",
"362 320 OFFCURVE",
"362 292 OFFCURVE",
"362 241 CURVE"
);
}
);
width = 711;
}
);
leftKerningGroup = I;
unicode = 0048;
},
{
glyphname = Hbar;
lastChange = "2019-10-30 23:19:49 +0000";
layers = (
{
layerId = "8BDB995E-2F86-4134-8150-9944A684F6E9";
paths = (
{
closed = 1;
nodes = (
"711 0 LINE",
"711 25 LINE",
"662 9 OFFCURVE",
"636 24 OFFCURVE",
"636 60 CURVE SMOOTH",
"636 680 LINE SMOOTH",
"636 716 OFFCURVE",
"662 731 OFFCURVE",
"711 715 CURVE",
"711 740 LINE",
"486 740 LINE",
"486 715 LINE",
"535 731 OFFCURVE",
"561 716 OFFCURVE",
"561 680 CURVE SMOOTH",
"561 60 LINE SMOOTH",
"561 24 OFFCURVE",
"535 9 OFFCURVE",
"486 25 CURVE",
"486 0 LINE"
);
},
{
closed = 1;
nodes = (
"265 0 LINE",
"265 25 LINE",
"216 9 OFFCURVE",
"190 24 OFFCURVE",
"190 60 CURVE SMOOTH",
"190 680 LINE SMOOTH",
"190 716 OFFCURVE",
"216 731 OFFCURVE",
"265 715 CURVE",
"265 740 LINE",
"40 740 LINE",
"40 715 LINE",
"89 731 OFFCURVE",
"115 716 OFFCURVE",
"115 680 CURVE SMOOTH",
"115 60 LINE SMOOTH",
"115 24 OFFCURVE",
"89 9 OFFCURVE",
"40 25 CURVE",
"40 0 LINE"
);
},
{
closed = 1;
nodes = (
"568 355 LINE",
"568 375 LINE",
"179 375 LINE",
"179 355 LINE"
);
},
{
closed = 1;
nodes = (
"677 516 LINE",
"677 536 LINE",
"70 536 LINE",
"70 516 LINE"
);
}
);
width = 751;
}
);
unicode = 0126;
},
{
glyphname = I;
lastChange = "2019-10-30 23:19:49 +0000";
layers = (
{
anchors = (
{
name = bottom;
position = "{133, 0}";
},
{
name = ogonek;
position = "{251, 10}";
},
{
name = top;
position = "{130, 740}";
},
{
name = topleft;
position = "{245, 740}";
}
);
layerId = "8BDB995E-2F86-4134-8150-9944A684F6E9";
paths = (
{
closed = 1;
nodes = (
"245 0 LINE",
"245 25 LINE",
"196 9 OFFCURVE",
"170 24 OFFCURVE",
"170 60 CURVE SMOOTH",
"170 680 LINE SMOOTH",
"170 716 OFFCURVE",
"196 731 OFFCURVE",
"245 715 CURVE",
"245 740 LINE",
"20 740 LINE",
"20 715 LINE",
"69 731 OFFCURVE",
"95 716 OFFCURVE",
"95 680 CURVE SMOOTH",
"95 60 LINE SMOOTH",
"95 24 OFFCURVE",
"69 9 OFFCURVE",
"20 25 CURVE",
"20 0 LINE"
);
}
);
width = 265;
}
);
leftKerningGroup = I;
leftMetricsKey = "=H";
rightMetricsKey = "=H";
unicode = 0049;
},
{
glyphname = J;
lastChange = "2019-10-30 23:19:49 +0000";
layers = (
{
anchors = (
{
name = bottom;
position = "{155, 0}";
},
{
name = top;
position = "{155, 740}";
}
);
guideLines = (
{
position = "{961, -265}";
},
{
position = "{202, -20}";
}
);
layerId = "8BDB995E-2F86-4134-8150-9944A684F6E9";
paths = (
{
closed = 1;
nodes = (
"137 -20 OFFCURVE",
"218 19 OFFCURVE",
"218 112 CURVE SMOOTH",
"218 230 LINE",
"214 680 LINE",
"214 716 OFFCURVE",
"240 731 OFFCURVE",
"289 715 CURVE",
"289 740 LINE",
"64 740 LINE",
"64 715 LINE",
"113 731 OFFCURVE",
"139 716 OFFCURVE",
"139 680 CURVE SMOOTH",
"143 214 LINE",
"143 112 LINE SMOOTH",
"143 19 OFFCURVE",
"124 -9 OFFCURVE",
"89 -9 CURVE SMOOTH",
"35 -9 OFFCURVE",
"78 63 OFFCURVE",
"78 107 CURVE SMOOTH",
"78 157 OFFCURVE",
"24 178 OFFCURVE",
"-10 178 CURVE",
"-10 166 LINE",
"82 166 OFFCURVE",
"3 103 OFFCURVE",
"3 59 CURVE SMOOTH",
"3 16 OFFCURVE",
"34 -20 OFFCURVE",
"78 -20 CURVE SMOOTH"
);
}
);
width = 309;
}
);
leftKerningGroup = I;
leftMetricsKey = "=H-30";
rightMetricsKey = "=H";
unicode = 004A;
},
{
glyphname = K;
lastChange = "2019-10-30 23:19:49 +0000";
layers = (
{
anchors = (
{
name = bottom;
position = "{302, 0}";
},
{
name = top;
position = "{302, 740}";
}
);
guideLines = (
{
position = "{993, 370}";
},
{
angle = 90;
position = "{643, 581}";
},
{
angle = 90;
position = "{11, 490}";
},
{
angle = 115;
position = "{384, 417}";
},
{
position = "{454, 505}";
}
);
layerId = "8BDB995E-2F86-4134-8150-9944A684F6E9";
paths = (
{
closed = 1;
nodes = (
"664 0 LINE",
"664 25 LINE",
"615 9 OFFCURVE",
"595 22 OFFCURVE",
"572 60 CURVE SMOOTH",
"314 489 LINE",
"255 440 LINE",
"490 60 LINE SMOOTH",
"511 26 OFFCURVE",
"472 9 OFFCURVE",
"423 25 CURVE",
"423 0 LINE"
);
},
{
closed = 1;
nodes = (
"245 0 LINE",
"245 25 LINE",
"196 9 OFFCURVE",
"170 24 OFFCURVE",
"170 60 CURVE SMOOTH",
"170 680 LINE SMOOTH",
"170 716 OFFCURVE",
"196 731 OFFCURVE",
"245 715 CURVE",
"245 740 LINE",
"20 740 LINE",
"20 715 LINE",
"69 731 OFFCURVE",
"95 716 OFFCURVE",
"95 680 CURVE SMOOTH",
"95 60 LINE SMOOTH",
"95 24 OFFCURVE",
"69 9 OFFCURVE",
"20 25 CURVE",
"20 0 LINE"
);
},
{
closed = 1;
nodes = (
"164 322 LINE",
"497 684 LINE",
"527 714 OFFCURVE",
"568 728 OFFCURVE",
"607 715 CURVE",
"607 740 LINE",
"406 740 LINE",
"406 715 LINE",
"456 733 OFFCURVE",
"478 705 OFFCURVE",
"456 680 CURVE SMOOTH",
"139 322 LINE"
);
}
);
width = 604;
}
);
leftKerningGroup = I;
leftMetricsKey = "=H";
rightMetricsKey = "=H-80";
unicode = 004B;
},
{
glyphname = L;
lastChange = "2019-10-30 23:19:49 +0000";
layers = (
{
anchors = (
{
name = bottom;
position = "{285, 0}";
},
{
name = center;
position = "{228, 370}";
},
{
name = top;
position = "{129, 740}";
},
{
name = topright;
position = "{450, 740}";
}
);
guideLines = (
{
position = "{526, 226}";
}
);
layerId = "8BDB995E-2F86-4134-8150-9944A684F6E9";
paths = (
{
closed = 1;
nodes = (
"428 0 LINE",
"428 102 LINE SMOOTH",
"428 169 OFFCURVE",
"431 208 OFFCURVE",
"451 226 CURVE",
"437 226 LINE",
"381 136 OFFCURVE",
"437 10 OFFCURVE",
"269 10 CURVE SMOOTH",
"170 10 OFFCURVE",
"172 81 OFFCURVE",
"170 125 CURVE",
"170 716 LINE",
"95 716 LINE",
"95 60 LINE SMOOTH",
"95 24 OFFCURVE",
"69 9 OFFCURVE",
"20 25 CURVE",
"20 0 LINE"
);
},
{
closed = 1;
nodes = (
"133 690 LINE",
"170 680 LINE",
"170 716 OFFCURVE",
"196 731 OFFCURVE",
"245 715 CURVE",
"245 740 LINE",
"20 740 LINE",
"20 715 LINE",
"69 731 OFFCURVE",
"95 716 OFFCURVE",
"95 680 CURVE"
);
}
);
width = 431;
}
);
leftKerningGroup = I;
leftMetricsKey = "=H";
rightMetricsKey = "=K+40";
unicode = 004C;
},
{
glyphname = Lslash;
lastChange = "2019-10-30 23:19:49 +0000";
layers = (
{
components = (
{
name = L;
transform = "{1, 0, 0, 1, 16, 0}";
}
);
layerId = "8BDB995E-2F86-4134-8150-9944A684F6E9";
paths = (
{
closed = 1;
nodes = (
"399 496 LINE",
"399 535 LINE",
"40 369 LINE",
"40 328 LINE"
);
}
);
width = 581;
}
);
unicode = 0141;
},
{
glyphname = M;
lastChange = "2019-10-30 23:19:49 +0000";
layers = (
{
anchors = (
{
name = bottom;
position = "{405, 0}";
},
{
name = top;
position = "{405, 740}";
}
);
guideLines = (
{
position = "{514, -20}";
}
);
layerId = "8BDB995E-2F86-4134-8150-9944A684F6E9";
paths = (
{
closed = 1;
nodes = (
"394 -20 LINE",
"425 73 LINE",
"155 740 LINE",
"69 740 LINE",
"379 -20 LINE"
);
},
{
closed = 1;
nodes = (
"216 0 LINE",
"216 25 LINE",
"167 9 OFFCURVE",
"112 24 OFFCURVE",
"112 60 CURVE SMOOTH",
"111 740 LINE",
"0 740 LINE",
"0 715 LINE",
"49 731 OFFCURVE",
"89 716 OFFCURVE",
"89 680 CURVE SMOOTH",
"89 60 LINE SMOOTH",
"89 24 OFFCURVE",
"40 9 OFFCURVE",
"-10 25 CURVE",
"-10 0 LINE"
);
},
{
closed = 1;
nodes = (
"216 0 LINE",
"216 25 LINE",
"167 9 OFFCURVE",
"112 24 OFFCURVE",
"112 60 CURVE SMOOTH",
"111 740 LINE",
"0 740 LINE",
"0 715 LINE",
"49 731 OFFCURVE",
"89 716 OFFCURVE",
"89 680 CURVE SMOOTH",
"89 60 LINE SMOOTH",
"89 24 OFFCURVE",
"40 9 OFFCURVE",
"-10 25 CURVE",
"-10 0 LINE"
);
},
{
closed = 1;
nodes = (
"790 0 LINE",
"790 25 LINE",
"741 9 OFFCURVE",
"715 24 OFFCURVE",
"715 60 CURVE",
"678 50 LINE",
"640 60 LINE",
"640 24 OFFCURVE",
"614 9 OFFCURVE",
"565 25 CURVE",
"565 0 LINE"
);
},
{
closed = 1;
nodes = (
"640 701 LINE",
"640 740 LINE",
"620 740 LINE",
"376 -12 LINE",
"394 -20 LINE"
);
},
{
closed = 1;
nodes = (
"715 0 LINE",
"715 740 LINE",
"640 740 LINE",
"640 0 LINE"
);
},
{
closed = 1;
nodes = (
"715 716 OFFCURVE",
"741 731 OFFCURVE",
"790 715 CURVE",
"790 740 LINE",
"680 740 LINE",
"680 690 LINE",
"715 680 LINE"
);
}
);
width = 810;
}
);
leftKerningGroup = I;
leftMetricsKey = "=H-30";
rightMetricsKey = "=H";
unicode = 004D;
},
{
glyphname = N;
lastChange = "2019-10-30 23:19:49 +0000";
layers = (
{
anchors = (
{
name = bottom;
position = "{327, 0}";
},
{
name = top;
position = "{327, 740}";
}
);
guideLines = (
{
position = "{506, -20}";
},
{
angle = 90;
position = "{-10, 728}";
},
{
position = "{330, -6}";
}
);
layerId = "8BDB995E-2F86-4134-8150-9944A684F6E9";
paths = (
{
closed = 1;
nodes = (
"568 -20 LINE",
"568 102 LINE",
"147 740 LINE",
"56 740 LINE",
"545 -20 LINE"
);
},
{
closed = 1;
nodes = (
"208 0 LINE",
"208 25 LINE",
"159 9 OFFCURVE",
"104 24 OFFCURVE",
"104 60 CURVE SMOOTH",
"103 740 LINE",
"-10 740 LINE",
"-10 715 LINE",
"39 731 OFFCURVE",
"81 716 OFFCURVE",
"81 680 CURVE SMOOTH",
"81 60 LINE SMOOTH",
"81 24 OFFCURVE",
"40 9 OFFCURVE",
"-10 25 CURVE",
"-10 0 LINE"
);
},
{
closed = 1;
nodes = (
"568 -20 LINE",
"568 681 LINE SMOOTH",
"568 717 OFFCURVE",
"613 732 OFFCURVE",
"662 716 CURVE",
"662 741 LINE",
"446 741 LINE",
"446 716 LINE",
"495 732 OFFCURVE",
"545 717 OFFCURVE",
"545 681 CURVE SMOOTH",
"545 -20 LINE"
);
}
);
width = 662;
}
);
leftMetricsKey = "=H-30";
rightMetricsKey = "=H-20";
unicode = 004E;
},
{
glyphname = Eng;
lastChange = "2019-10-30 23:19:49 +0000";
layers = (
{
layerId = "8BDB995E-2F86-4134-8150-9944A684F6E9";
paths = (
{
closed = 1;
nodes = (
"568 -20 LINE",
"568 102 LINE",
"147 740 LINE",
"56 740 LINE",
"545 -20 LINE"
);
},
{
closed = 1;
nodes = (
"535 -265 OFFCURVE",
"568 -226 OFFCURVE",
"568 -133 CURVE SMOOTH",
"568 65 LINE",
"545 65 LINE",
"545 -133 LINE SMOOTH",
"545 -226 OFFCURVE",
"522 -254 OFFCURVE",
"487 -254 CURVE SMOOTH",
"433 -254 OFFCURVE",
"476 -182 OFFCURVE",
"476 -138 CURVE SMOOTH",
"476 -88 OFFCURVE",
"422 -67 OFFCURVE",
"388 -67 CURVE",
"388 -79 LINE",
"480 -79 OFFCURVE",
"401 -142 OFFCURVE",
"401 -186 CURVE SMOOTH",
"401 -229 OFFCURVE",
"432 -265 OFFCURVE",
"476 -265 CURVE SMOOTH"
);
},
{
closed = 1;
nodes = (
"208 0 LINE",
"208 25 LINE",
"159 9 OFFCURVE",
"104 24 OFFCURVE",
"104 60 CURVE SMOOTH",
"103 740 LINE",
"-10 740 LINE",
"-10 715 LINE",
"39 731 OFFCURVE",
"81 716 OFFCURVE",
"81 680 CURVE SMOOTH",
"81 60 LINE SMOOTH",
"81 24 OFFCURVE",
"40 9 OFFCURVE",
"-10 25 CURVE",
"-10 0 LINE"
);
},
{
closed = 1;
nodes = (
"568 -20 LINE",
"568 681 LINE SMOOTH",
"568 717 OFFCURVE",
"613 732 OFFCURVE",
"662 716 CURVE",
"662 741 LINE",
"446 741 LINE",
"446 716 LINE",
"495 732 OFFCURVE",
"545 717 OFFCURVE",
"545 681 CURVE SMOOTH",
"545 -20 LINE"
);
}
);
width = 662;
}
);
leftMetricsKey = "=N";
rightMetricsKey = "=N";
unicode = 014A;
},
{
glyphname = O;
lastChange = "2019-10-30 23:19:49 +0000";
layers = (
{
anchors = (
{
name = bottom;
position = "{370, 0}";
},
{
name = center;
position = "{370, 370}";
},
{
name = ogonek;
position = "{666, 10}";
},
{
name = top;
position = "{367, 740}";
},
{
name = topleft;
position = "{20, 740}";
},
{
name = topright;
position = "{557, 740}";
}
);
guideLines = (
{
position = "{839, -20}";
},
{
position = "{1198, 760}";
},
{
position = "{366, -16}";
},
{
angle = 90;
position = "{367, 755}";
}
);
layerId = "8BDB995E-2F86-4134-8150-9944A684F6E9";
paths = (
{
closed = 1;
nodes = (
"589 -20 OFFCURVE",
"690 164 OFFCURVE",
"690 375 CURVE SMOOTH",
"690 542 OFFCURVE",
"608 760 OFFCURVE",
"367 760 CURVE SMOOTH",
"127 760 OFFCURVE",
"49 524 OFFCURVE",
"50 375 CURVE SMOOTH",
"51 164 OFFCURVE",
"167 -20 OFFCURVE",
"377 -20 CURVE SMOOTH"
);
},
{
closed = 1;
nodes = (
"207 0 OFFCURVE",
"132 175 OFFCURVE",
"135 375 CURVE SMOOTH",
"137 518 OFFCURVE",
"197 740 OFFCURVE",
"367 740 CURVE SMOOTH",
"537 740 OFFCURVE",
"605 534 OFFCURVE",
"606 375 CURVE SMOOTH",
"607 175 OFFCURVE",
"550 0 OFFCURVE",
"377 0 CURVE SMOOTH"
);
},
{
closed = 1;
nodes = (
"401 300 LINE",
"401 314 LINE",
"383 314 OFFCURVE",
"376 325 OFFCURVE",
"376 352 CURVE SMOOTH",
"376 480 LINE SMOOTH",
"376 507 OFFCURVE",
"382 518 OFFCURVE",
"400 518 CURVE",
"400 532 LINE",
"336 532 LINE",
"336 518 LINE",
"354 518 OFFCURVE",
"360 507 OFFCURVE",
"360 480 CURVE SMOOTH",
"360 352 LINE SMOOTH",
"360 325 OFFCURVE",
"353 314 OFFCURVE",
"336 314 CURVE",
"336 300 LINE"
);
},
{
closed = 1;
nodes = (
"266 384 LINE",
"266 402 OFFCURVE",
"277 409 OFFCURVE",
"304 409 CURVE SMOOTH",
"432 409 LINE SMOOTH",
"459 409 OFFCURVE",
"470 403 OFFCURVE",
"470 385 CURVE",
"484 385 LINE",
"484 449 LINE",
"470 449 LINE",
"470 431 OFFCURVE",
"459 425 OFFCURVE",
"432 425 CURVE SMOOTH",
"304 425 LINE SMOOTH",
"277 425 OFFCURVE",
"266 432 OFFCURVE",
"266 449 CURVE",
"252 449 LINE",
"252 384 LINE"
);
}
);
width = 740;
}
);
leftKerningGroup = O;
leftMetricsKey = "=50";
rightMetricsKey = "=50";
unicode = 004F;
},
{
glyphname = Oslash;
lastChange = "2019-10-30 23:19:49 +0000";
layers = (
{
anchors = (
{
name = bottom;
position = "{370, 0}";
},
{
name = center;
position = "{370, 370}";
},
{
name = ogonek;
position = "{666, 10}";
},
{
name = top;
position = "{367, 740}";
},
{
name = topleft;
position = "{20, 740}";
},
{
name = topright;
position = "{557, 740}";
}
);
layerId = "8BDB995E-2F86-4134-8150-9944A684F6E9";
paths = (
{
closed = 1;
nodes = (
"609 783 LINE",
"587 795 LINE",
"129 -34 LINE",
"151 -46 LINE"
);
},
{
closed = 1;
nodes = (
"589 -20 OFFCURVE",
"690 164 OFFCURVE",
"690 375 CURVE SMOOTH",
"690 542 OFFCURVE",
"608 760 OFFCURVE",
"367 760 CURVE SMOOTH",
"127 760 OFFCURVE",
"49 524 OFFCURVE",
"50 375 CURVE SMOOTH",
"51 164 OFFCURVE",
"167 -20 OFFCURVE",
"377 -20 CURVE SMOOTH"
);
},
{
closed = 1;
nodes = (
"207 0 OFFCURVE",
"132 175 OFFCURVE",
"135 375 CURVE SMOOTH",
"137 518 OFFCURVE",
"197 740 OFFCURVE",
"367 740 CURVE SMOOTH",
"537 740 OFFCURVE",
"605 534 OFFCURVE",
"606 375 CURVE SMOOTH",
"607 175 OFFCURVE",
"550 0 OFFCURVE",
"377 0 CURVE SMOOTH"
);
}
);
width = 740;
}
);
leftMetricsKey = "=O";
rightMetricsKey = "=O";
unicode = 00D8;
},
{
glyphname = OE;
lastChange = "2019-10-30 23:19:49 +0000";
layers = (
{
layerId = "8BDB995E-2F86-4134-8150-9944A684F6E9";
paths = (
{
closed = 1;
nodes = (
"423 0 LINE",
"526 0 LINE",
"948 0 LINE",
"948 102 LINE SMOOTH",
"948 169 OFFCURVE",
"951 208 OFFCURVE",
"971 226 CURVE",
"957 226 LINE",
"901 136 OFFCURVE",
"962 10 OFFCURVE",
"709 10 CURVE SMOOTH",
"593 10 OFFCURVE",
"593 81 OFFCURVE",
"591 125 CURVE",
"591 407 LINE",
"595 407 LINE SMOOTH",
"753 407 OFFCURVE",
"793 416 OFFCURVE",
"793 380 CURVE SMOOTH",
"793 358 OFFCURVE",
"796 320 OFFCURVE",
"769 320 CURVE",
"769 307 LINE",
"808 307 LINE",
"808 534 LINE",
"769 534 LINE",
"769 521 LINE",
"796 521 OFFCURVE",
"793 483 OFFCURVE",
"793 461 CURVE SMOOTH",
"793 426 OFFCURVE",
"749 427 OFFCURVE",
"729 427 CURVE SMOOTH",
"591 427 LINE",
"591 615 LINE",
"593 659 OFFCURVE",
"587 730 OFFCURVE",
"703 730 CURVE SMOOTH",
"914 730 OFFCURVE",
"861 640 OFFCURVE",
"898 570 CURVE",
"914 570 LINE",
"897 612 OFFCURVE",
"899 677 OFFCURVE",
"903 711 CURVE SMOOTH",
"906 740 LINE",
"355 740 LINE SMOOTH",
"182 740 OFFCURVE",
"40 600 OFFCURVE",
"40 390 CURVE SMOOTH",
"40 180 OFFCURVE",
"182 0 OFFCURVE",
"355 0 CURVE SMOOTH"
);
},
{
closed = 1;
nodes = (
"274 17 OFFCURVE",
"119 117 OFFCURVE",
"119 374 CURVE SMOOTH",
"119 564 OFFCURVE",
"239 724 OFFCURVE",
"377 724 CURVE SMOOTH",
"408 724 OFFCURVE",
"436 724 OFFCURVE",
"467 724 CURVE SMOOTH",
"485 724 OFFCURVE",
"514 715 OFFCURVE",
"514 680 CURVE SMOOTH",
"514 60 LINE SMOOTH",
"514 25 OFFCURVE",
"485 17 OFFCURVE",
"467 17 CURVE SMOOTH",
"401 17 OFFCURVE",
"401 17 OFFCURVE",
"377 17 CURVE SMOOTH"
);
}
);
width = 971;
}
);
rightMetricsKey = "=E";
unicode = 0152;
},
{
glyphname = P;
lastChange = "2019-10-30 23:19:49 +0000";
layers = (
{
backgroundImage = {
alpha = 10;
crop = "{{0, 0}, {842, 596}}";
imagePath = ../../1_Sketch/Viaoda_Sketch_01.pdf;
locked = "1";
transform = "{5.10899, 0, 0, 5.10899, -1862, -158}";
};
guideLines = (
{
position = "{472, 663}";
}
);
layerId = "8BDB995E-2F86-4134-8150-9944A684F6E9";
paths = (
{
closed = 1;
nodes = (
"245 0 LINE",
"245 25 LINE",
"196 9 OFFCURVE",
"170 24 OFFCURVE",
"170 60 CURVE SMOOTH",
"171 740 LINE",
"20 740 LINE",
"20 715 LINE",
"69 731 OFFCURVE",
"95 716 OFFCURVE",
"95 680 CURVE SMOOTH",
"95 60 LINE SMOOTH",
"95 24 OFFCURVE",
"69 9 OFFCURVE",
"20 25 CURVE",
"20 0 LINE"
);
},
{
closed = 1;
nodes = (
"272 197 LINE",
"272 210 LINE",
"245 212 OFFCURVE",
"248 249 OFFCURVE",
"248 270 CURVE SMOOTH",
"248 297 OFFCURVE",
"266 300 OFFCURVE",
"273 300 CURVE",
"273 317 LINE",
"277 317 LINE",
"233 317 LINE",
"233 294 LINE SMOOTH",
"233 257 OFFCURVE",
"233 248 OFFCURVE",
"233 197 CURVE"
);
},
{
closed = 1;
nodes = (
"306 300 LINE SMOOTH",
"369 300 OFFCURVE",
"524 376 OFFCURVE",
"524 510 CURVE SMOOTH",
"524 665 OFFCURVE",
"380 740 OFFCURVE",
"251 740 CURVE SMOOTH",
"171 740 LINE",
"171 722 LINE",
"196 731 OFFCURVE",
"213 730 OFFCURVE",
"234 730 CURVE SMOOTH",
"367 730 OFFCURVE",
"437 603 OFFCURVE",
"437 504 CURVE SMOOTH",
"437 394 OFFCURVE",
"370 320 OFFCURVE",
"273 317 CURVE",
"273 300 LINE"
);
},
{
closed = 1;
nodes = (
"306 300 LINE SMOOTH",
"369 300 OFFCURVE",
"524 376 OFFCURVE",
"524 510 CURVE SMOOTH",
"524 665 OFFCURVE",
"380 740 OFFCURVE",
"251 740 CURVE SMOOTH",
"171 740 LINE",
"171 722 LINE",
"196 731 OFFCURVE",
"213 730 OFFCURVE",
"234 730 CURVE SMOOTH",
"367 730 OFFCURVE",
"437 603 OFFCURVE",
"437 504 CURVE SMOOTH",
"437 394 OFFCURVE",
"369 319 OFFCURVE",
"273 317 CURVE",
"273 300 LINE"
);
}
);
width = 534;
}
);
leftKerningGroup = I;
leftMetricsKey = "=H";
rightMetricsKey = "=H-10";
unicode = 0050;
},
{
glyphname = Thorn;
lastChange = "2019-10-30 23:19:49 +0000";
layers = (
{
layerId = "8BDB995E-2F86-4134-8150-9944A684F6E9";
paths = (
{
closed = 1;
nodes = (
"265 0 LINE",
"265 25 LINE",
"216 9 OFFCURVE",
"190 24 OFFCURVE",
"190 60 CURVE SMOOTH",
"190 588 LINE",
"211 594 OFFCURVE",
"235 593 OFFCURVE",
"253 593 CURVE SMOOTH",
"385 593 OFFCURVE",
"456 499 OFFCURVE",
"456 400 CURVE SMOOTH",
"456 290 OFFCURVE",
"388 226 OFFCURVE",
"292 226 CURVE SMOOTH",
"252 226 LINE",
"252 106 LINE",
"291 106 LINE",
"291 119 LINE",
"264 121 OFFCURVE",
"267 158 OFFCURVE",
"267 179 CURVE SMOOTH",
"267 206 OFFCURVE",
"285 209 OFFCURVE",
"292 209 CURVE SMOOTH",
"325 209 LINE SMOOTH",
"388 209 OFFCURVE",
"543 273 OFFCURVE",
"543 406 CURVE SMOOTH",
"543 561 OFFCURVE",
"399 603 OFFCURVE",
"270 603 CURVE SMOOTH",
"190 603 LINE",
"190 680 LINE",
"190 716 OFFCURVE",
"216 731 OFFCURVE",
"265 715 CURVE",
"265 740 LINE",
"40 740 LINE",
"40 715 LINE",
"89 731 OFFCURVE",
"115 716 OFFCURVE",
"115 680 CURVE SMOOTH",
"115 60 LINE SMOOTH",
"115 24 OFFCURVE",
"89 9 OFFCURVE",
"40 25 CURVE",
"40 0 LINE"
);
}
);
width = 553;
}
);
rightMetricsKey = "=P";
unicode = 00DE;
},
{
glyphname = Q;
lastChange = "2019-10-30 23:19:49 +0000";
layers = (
{
guideLines = (
{
position = "{466, -205}";
},
{
position = "{805, 760}";
},
{
position = "{1637, -20}";
},
{
position = "{-154, 515}";
}
);
layerId = "8BDB995E-2F86-4134-8150-9944A684F6E9";
paths = (
{
closed = 1;
nodes = (
"589 -20 OFFCURVE",
"690 164 OFFCURVE",
"690 375 CURVE SMOOTH",
"690 542 OFFCURVE",
"608 760 OFFCURVE",
"367 760 CURVE SMOOTH",
"127 760 OFFCURVE",
"49 524 OFFCURVE",
"50 375 CURVE SMOOTH",
"51 164 OFFCURVE",
"167 -20 OFFCURVE",
"377 -20 CURVE SMOOTH"
);
},
{
closed = 1;
nodes = (
"566 -216 OFFCURVE",
"622 -130 OFFCURVE",
"622 -20 CURVE",
"610 -22 LINE",
"619 -135 OFFCURVE",
"532 -181 OFFCURVE",
"378 -145 CURVE SMOOTH",
"304 -128 OFFCURVE",
"252 -95 OFFCURVE",
"213 -95 CURVE",
"209 -95 OFFCURVE",
"209 -92 OFFCURVE",
"213 -92 CURVE",
"297 -88 OFFCURVE",
"377 -64 OFFCURVE",
"393 -11 CURVE",
"311 -12 LINE",
"273 -70 OFFCURVE",
"214 -77 OFFCURVE",
"156 -93 CURVE SMOOTH",
"126 -101 OFFCURVE",
"137 -131 OFFCURVE",
"161 -120 CURVE SMOOTH",
"243 -82 OFFCURVE",
"306 -216 OFFCURVE",
"458 -216 CURVE SMOOTH"
);
},
{
closed = 1;
nodes = (
"207 0 OFFCURVE",
"132 175 OFFCURVE",
"135 375 CURVE SMOOTH",
"137 518 OFFCURVE",
"197 740 OFFCURVE",
"367 740 CURVE SMOOTH",
"537 740 OFFCURVE",
"605 534 OFFCURVE",
"606 375 CURVE SMOOTH",
"607 175 OFFCURVE",
"550 0 OFFCURVE",
"377 0 CURVE SMOOTH"
);
},
{
closed = 1;
nodes = (
"401 300 LINE",
"401 314 LINE",
"383 314 OFFCURVE",
"376 325 OFFCURVE",
"376 352 CURVE SMOOTH",
"376 480 LINE SMOOTH",
"376 507 OFFCURVE",
"382 518 OFFCURVE",
"400 518 CURVE",
"400 532 LINE",
"336 532 LINE",
"336 518 LINE",
"354 518 OFFCURVE",
"360 507 OFFCURVE",
"360 480 CURVE SMOOTH",
"360 352 LINE SMOOTH",
"360 325 OFFCURVE",
"353 314 OFFCURVE",
"336 314 CURVE",
"336 300 LINE"
);
}
);
width = 740;
}
);
leftKerningGroup = O;
leftMetricsKey = "=O";
rightMetricsKey = "=O";
unicode = 0051;
},
{
glyphname = R;
lastChange = "2019-10-30 23:19:49 +0000";
layers = (
{
anchors = (
{
name = bottom;
position = "{327, 0}";
},
{
name = top;
position = "{258, 740}";
}
);
guideLines = (
{
position = "{213, 336}";
},
{
position = "{133, 25}";
},
{
position = "{382, -30}";
}
);
layerId = "8BDB995E-2F86-4134-8150-9944A684F6E9";
paths = (
{
closed = 1;
nodes = (
"609 -20 OFFCURVE",
"661 9 OFFCURVE",
"680 31 CURVE",
"672 44 LINE",
"658 19 OFFCURVE",
"628 6 OFFCURVE",
"608 6 CURVE SMOOTH",
"468 6 OFFCURVE",
"468 340 OFFCURVE",
"343 345 CURVE",
"443 368 OFFCURVE",
"526 429 OFFCURVE",
"526 527 CURVE SMOOTH",
"526 682 OFFCURVE",
"406 740 OFFCURVE",
"277 740 CURVE SMOOTH",
"20 740 LINE",
"20 715 LINE",
"69 731 OFFCURVE",
"95 716 OFFCURVE",
"95 680 CURVE SMOOTH",
"95 60 LINE SMOOTH",
"95 24 OFFCURVE",
"69 9 OFFCURVE",
"20 25 CURVE",
"20 0 LINE",
"272 0 LINE",
"272 25 LINE",
"223 9 OFFCURVE",
"170 24 OFFCURVE",
"170 60 CURVE SMOOTH",
"171 722 LINE",
"195 728 OFFCURVE",
"212 730 OFFCURVE",
"233 730 CURVE SMOOTH",
"393 730 OFFCURVE",
"442 620 OFFCURVE",
"442 521 CURVE SMOOTH",
"442 411 OFFCURVE",
"379 344 OFFCURVE",
"202 344 CURVE",
"202 335 LINE",
"461 335 OFFCURVE",
"354 -20 OFFCURVE",
"552 -20 CURVE SMOOTH"
);
}
);
width = 600;
}
);
leftKerningGroup = I;
leftMetricsKey = "=H";
rightMetricsKey = "=K-20";
unicode = 0052;
},
{
glyphname = S;
lastChange = "2019-10-30 23:19:49 +0000";
layers = (
{
anchors = (
{
name = bottom;
position = "{249, 0}";
},
{
name = top;
position = "{217, 740}";
}
);
guideLines = (
{
position = "{231, 759}";
},
{
position = "{273, -67}";
}
);
hints = (
{
place = "{633, 30}";
type = Stem;
}
);
layerId = "8BDB995E-2F86-4134-8150-9944A684F6E9";
paths = (
{
closed = 1;
nodes = (
"371 -20 OFFCURVE",
"467 90 OFFCURVE",
"467 191 CURVE SMOOTH",
"467 443 OFFCURVE",
"105 384 OFFCURVE",
"105 579 CURVE SMOOTH",
"105 682 OFFCURVE",
"166 738 OFFCURVE",
"247 738 CURVE SMOOTH",
"351 738 OFFCURVE",
"395 643 OFFCURVE",
"395 559 CURVE",
"418 559 LINE",
"418 758 LINE",
"399 758 LINE",
"388 681 LINE",
"378 717 OFFCURVE",
"303 760 OFFCURVE",
"231 760 CURVE SMOOTH",
"117 760 OFFCURVE",
"30 679 OFFCURVE",
"30 564 CURVE SMOOTH",
"30 324 OFFCURVE",
"392 408 OFFCURVE",
"392 171 CURVE SMOOTH",
"392 84 OFFCURVE",
"340 -3 OFFCURVE",
"248 -3 CURVE SMOOTH",
"118 -3 OFFCURVE",
"59 117 OFFCURVE",
"59 291 CURVE",
"32 291 LINE",
"32 19 LINE",
"52 19 LINE",
"66 78 LINE",
"105 19 OFFCURVE",
"155 -20 OFFCURVE",
"258 -20 CURVE SMOOTH"
);
}
);
width = 497;
}
);
leftMetricsKey = "=H+10";
rightMetricsKey = "=H+10";
unicode = 0053;
},
{
glyphname = Germandbls;
lastChange = "2019-10-30 23:19:49 +0000";
layers = (
{
guideLines = (
{
position = "{729, 760}";
}
);
layerId = "8BDB995E-2F86-4134-8150-9944A684F6E9";
paths = (
{
closed = 1;
nodes = (
"502 -10 OFFCURVE",
"550 70 OFFCURVE",
"550 208 CURVE SMOOTH",
"550 318 OFFCURVE",
"516 402 OFFCURVE",
"399 425 CURVE SMOOTH",
"357 433 OFFCURVE",
"342 432 OFFCURVE",
"321 430 CURVE",
"319 430 OFFCURVE",
"318 430 OFFCURVE",
"319 432 CURVE SMOOTH",
"473 715 LINE",
"473 740 LINE",
"40 740 LINE",
"40 715 LINE",
"89 731 OFFCURVE",
"115 716 OFFCURVE",
"115 680 CURVE SMOOTH",
"115 60 LINE SMOOTH",
"115 24 OFFCURVE",
"89 9 OFFCURVE",
"40 25 CURVE",
"40 0 LINE",
"265 0 LINE",
"265 25 LINE",
"216 9 OFFCURVE",
"190 24 OFFCURVE",
"190 60 CURVE SMOOTH",
"190 680 LINE SMOOTH",
"190 717 OFFCURVE",
"235 718 OFFCURVE",
"293 718 CURVE SMOOTH",
"355 718 OFFCURVE",
"399 717 OFFCURVE",
"434 716 CURVE",
"285 429 LINE",
"290 408 LINE",
"309 410 OFFCURVE",
"318 411 OFFCURVE",
"353 408 CURVE SMOOTH",
"448 400 OFFCURVE",
"480 325 OFFCURVE",
"480 208 CURVE SMOOTH",
"480 78 OFFCURVE",
"444 10 OFFCURVE",
"350 10 CURVE SMOOTH",
"319 10 OFFCURVE",
"308 12 OFFCURVE",
"298 15 CURVE",
"298 -8 LINE",
"308 -9 OFFCURVE",
"319 -10 OFFCURVE",
"350 -10 CURVE SMOOTH"
);
}
);
width = 560;
}
);
rightMetricsKey = "=B";
unicode = 1E9E;
},
{
glyphname = T;
lastChange = "2019-10-30 23:19:49 +0000";
layers = (
{
anchors = (
{
name = bottom;
position = "{247, 0}";
},
{
name = center;
position = "{247, 370}";
},
{
name = top;
position = "{247, 740}";
}
);
layerId = "8BDB995E-2F86-4134-8150-9944A684F6E9";
paths = (
{
closed = 1;
nodes = (
"284 0 LINE",
"284 740 LINE",
"209 740 LINE",
"209 0 LINE"
);
},
{
closed = 1;
nodes = (
"359 0 LINE",
"359 25 LINE",
"310 9 OFFCURVE",
"284 24 OFFCURVE",
"284 60 CURVE",
"247 50 LINE",
"209 60 LINE",
"209 24 OFFCURVE",
"183 9 OFFCURVE",
"134 25 CURVE",
"134 0 LINE"
);
},
{
closed = 1;
nodes = (
"-14 570 LINE",
"23 640 OFFCURVE",
"-30 730 OFFCURVE",
"181 730 CURVE SMOOTH",
"195 730 OFFCURVE",
"207 729 OFFCURVE",
"217 727 CURVE",
"217 740 LINE",
"-24 740 LINE",
"-22 740 LINE",
"-19 711 LINE SMOOTH",
"-15 677 OFFCURVE",
"-13 612 OFFCURVE",
"-30 570 CURVE"
);
},
{
closed = 1;
nodes = (
"524 570 LINE",
"507 612 OFFCURVE",
"509 677 OFFCURVE",
"513 711 CURVE SMOOTH",
"516 740 LINE",
"518 740 LINE",
"277 740 LINE",
"277 727 LINE",
"287 729 OFFCURVE",
"299 730 OFFCURVE",
"313 730 CURVE SMOOTH",
"524 730 OFFCURVE",
"471 640 OFFCURVE",
"508 570 CURVE"
);
}
);
width = 494;
}
);
leftKerningGroup = W;
leftMetricsKey = "=H-50";
rightMetricsKey = "=H-50";
unicode = 0054;
},
{
glyphname = U;
lastChange = "2019-10-30 23:19:49 +0000";
layers = (
{
anchors = (
{
name = bottom;
position = "{334, 0}";
},
{
name = ogonek;
position = "{371, -15}";
},
{
name = top;
position = "{356, 737}";
},
{
name = topright;
position = "{667, 740}";
}
);
guideLines = (
{
position = "{504, -20}";
},
{
position = "{133, 249}";
},
{
angle = 270;
position = "{466, 701}";
},
{
angle = 90;
position = "{691, 705}";
},
{
angle = 270;
position = "{20, 701}";
},
{
angle = 90;
position = "{245, 705}";
}
);
layerId = "8BDB995E-2F86-4134-8150-9944A684F6E9";
paths = (
{
closed = 1;
nodes = (
"508 -20 OFFCURVE",
"579 106 OFFCURVE",
"581 249 CURVE SMOOTH",
"581 681 LINE SMOOTH",
"581 717 OFFCURVE",
"618 732 OFFCURVE",
"667 716 CURVE",
"667 740 LINE",
"454 740 LINE",
"454 716 LINE",
"503 732 OFFCURVE",
"552 717 OFFCURVE",
"552 681 CURVE SMOOTH",
"552 256 LINE SMOOTH",
"552 155 OFFCURVE",
"521 -1 OFFCURVE",
"355 -1 CURVE SMOOTH",
"274 -1 OFFCURVE",
"170 61 OFFCURVE",
"170 249 CURVE SMOOTH",
"170 680 LINE SMOOTH",
"170 716 OFFCURVE",
"196 731 OFFCURVE",
"245 715 CURVE",
"245 740 LINE",
"208 739 OFFCURVE",
"173 737 OFFCURVE",
"134 737 CURVE SMOOTH",
"95 737 OFFCURVE",
"58 739 OFFCURVE",
"20 740 CURVE",
"20 715 LINE",
"69 731 OFFCURVE",
"95 716 OFFCURVE",
"95 680 CURVE SMOOTH",
"95 237 LINE",
"100 42 OFFCURVE",
"231 -20 OFFCURVE",
"351 -20 CURVE SMOOTH"
);
}
);
width = 667;
}
);
leftKerningGroup = O;
leftMetricsKey = "=H";
rightMetricsKey = "=H-20";
unicode = 0055;
},
{
glyphname = V;
lastChange = "2019-11-03 11:00:34 +0000";
layers = (
{
layerId = "8BDB995E-2F86-4134-8150-9944A684F6E9";
paths = (
{
closed = 1;
nodes = (
"309 0 LINE",
"329 47 LINE",
"144 680 LINE SMOOTH",
"133 716 OFFCURVE",
"162 731 OFFCURVE",
"211 715 CURVE",
"211 740 LINE",
"-30 740 LINE",
"-30 715 LINE",
"19 731 OFFCURVE",
"52 716 OFFCURVE",
"62 680 CURVE SMOOTH",
"258 0 LINE"
);
},
{
closed = 1;
nodes = (
"317 0 LINE",
"487 671 LINE",
"490 680 OFFCURVE",
"494 690 OFFCURVE",
"499 700 CURVE SMOOTH",
"514 730 OFFCURVE",
"549 728 OFFCURVE",
"588 715 CURVE",
"588 740 LINE",
"379 740 LINE",
"379 715 LINE",
"428 732 OFFCURVE",
"472 728 OFFCURVE",
"459 680 CURVE",
"452 655 LINE",
"297 0 LINE"
);
}
);
width = 548;
}
);
leftKerningGroup = W;
leftMetricsKey = "=W+10";
rightMetricsKey = "=W-10";
unicode = 0056;
},
{
glyphname = W;
lastChange = "2019-10-30 23:19:46 +0000";
layers = (
{
anchors = (
{
name = bottom;
position = "{439, 0}";
},
{
name = top;
position = "{459, 740}";
}
);
guideLines = (
{
angle = 90;
position = "{589, 728}";
},
{
angle = 90;
position = "{718, 728}";
},
{
angle = 90;
position = "{330, 728}";
}
);
hints = (
{
horizontal = 1;
place = "{724.07, 15.93}";
type = Stem;
},
{
horizontal = 1;
place = "{721.35, 18.65}";
type = Stem;
},
{
place = "{-10, 2000}";
type = Stem;
},
{
place = "{831.29, 126.71}";
type = Stem;
}
);
layerId = "8BDB995E-2F86-4134-8150-9944A684F6E9";
paths = (
{
closed = 1;
nodes = (
"299 0 LINE",
"319 47 LINE",
"134 680 LINE SMOOTH",
"123 716 OFFCURVE",
"152 731 OFFCURVE",
"201 715 CURVE",
"201 740 LINE",
"-40 740 LINE",
"-40 715 LINE",
"9 731 OFFCURVE",
"42 716 OFFCURVE",
"52 680 CURVE SMOOTH",
"248 0 LINE"
);
},
{
closed = 1;
nodes = (
"306 0 LINE",
"466 630 LINE",
"435 630 LINE",
"286 0 LINE"
);
},
{
closed = 1;
nodes = (
"649 0 LINE",
"669 47 LINE",
"484 680 LINE SMOOTH",
"473 716 OFFCURVE",
"540 731 OFFCURVE",
"589 715 CURVE",
"589 740 LINE",
"330 740 LINE",
"330 715 LINE",
"379 731 OFFCURVE",
"392 716 OFFCURVE",
"402 680 CURVE SMOOTH",
"598 0 LINE"
);
},
{
closed = 0;
nodes = (
"201 715 LINE",
"201 740 LINE"
);
},
{
closed = 1;
nodes = (
"657 0 LINE",
"826 666 OFFCURVE",
"824 664 OFFCURVE",
"835 700 CURVE SMOOTH",
"841 721 OFFCURVE",
"869 728 OFFCURVE",
"908 715 CURVE",
"908 740 LINE",
"719 740 LINE",
"719 715 LINE",
"768 732 OFFCURVE",
"813 728 OFFCURVE",
"800 680 CURVE",
"637 0 LINE"
);
}
);
width = 878;
}
);
leftKerningGroup = W;
leftMetricsKey = "=T-10";
rightMetricsKey = "=T";
unicode = 0057;
},
{
glyphname = X;
lastChange = "2019-11-03 11:00:34 +0000";
layers = (
{
layerId = "8BDB995E-2F86-4134-8150-9944A684F6E9";
paths = (
{
closed = 1;
nodes = (
"179 0 LINE",
"179 25 LINE",
"130 8 OFFCURVE",
"71 18 OFFCURVE",
"94 62 CURVE SMOOTH",
"106 84 LINE",
"158 169 OFFCURVE",
"207 253 OFFCURVE",
"256 337 CURVE",
"408 60 LINE SMOOTH",
"429 22 OFFCURVE",
"390 9 OFFCURVE",
"341 25 CURVE",
"341 0 LINE",
"582 0 LINE",
"582 25 LINE",
"533 9 OFFCURVE",
"510 24 OFFCURVE",
"490 60 CURVE SMOOTH",
"485 69 LINE",
"298 410 LINE",
"353 506 OFFCURVE",
"409 602 OFFCURVE",
"467 700 CURVE SMOOTH",
"485 730 OFFCURVE",
"513 728 OFFCURVE",
"552 715 CURVE",
"552 740 LINE",
"343 740 LINE",
"343 715 LINE",
"392 732 OFFCURVE",
"451 722 OFFCURVE",
"428 678 CURVE SMOOTH",
"416 655 LINE",
"286 432 LINE",
"150 680 LINE SMOOTH",
"130 717 OFFCURVE",
"168 731 OFFCURVE",
"217 715 CURVE",
"217 740 LINE",
"-24 740 LINE",
"-24 715 LINE",
"25 731 OFFCURVE",
"48 717 OFFCURVE",
"68 680 CURVE SMOOTH",
"244 360 LINE",
"99 113 LINE SMOOTH",
"85 89 OFFCURVE",
"70 65 OFFCURVE",
"55 40 CURVE SMOOTH",
"37 10 OFFCURVE",
"9 12 OFFCURVE",
"-30 25 CURVE",
"-30 0 LINE"
);
}
);
width = 562;
}
);
leftKerningGroup = W;
leftMetricsKey = "=T";
rightMetricsKey = "=T+10";
unicode = 0058;
},
{
glyphname = Y;
lastChange = "2019-11-03 11:00:33 +0000";
layers = (
{
anchors = (
{
name = bottom;
position = "{273, 0}";
},
{
name = top;
position = "{278, 740}";
},
{
name = topleft;
position = "{5, 740}";
}
);
layerId = "8BDB995E-2F86-4134-8150-9944A684F6E9";
paths = (
{
closed = 1;
nodes = (
"390 0 LINE",
"390 25 LINE",
"341 9 OFFCURVE",
"317 24 OFFCURVE",
"317 60 CURVE SMOOTH",
"317 346 LINE",
"389 471 OFFCURVE",
"436 573 OFFCURVE",
"514 700 CURVE SMOOTH",
"525 718 OFFCURVE",
"547 728 OFFCURVE",
"586 715 CURVE",
"586 740 LINE",
"390 740 LINE",
"390 715 LINE",
"439 732 OFFCURVE",
"498 722 OFFCURVE",
"475 678 CURVE SMOOTH",
"463 655 LINE",
"304 370 LINE",
"144 680 LINE SMOOTH",
"125 717 OFFCURVE",
"162 731 OFFCURVE",
"211 715 CURVE",
"211 740 LINE",
"-30 740 LINE",
"-30 715 LINE",
"19 731 OFFCURVE",
"42 717 OFFCURVE",
"62 680 CURVE SMOOTH",
"238 346 LINE",
"238 60 LINE SMOOTH",
"238 24 OFFCURVE",
"214 9 OFFCURVE",
"165 25 CURVE",
"165 0 LINE"
);
}
);
width = 546;
}
);
leftKerningGroup = W;
leftMetricsKey = "=T";
rightMetricsKey = "=T-10";
unicode = 0059;
},
{
glyphname = Z;
lastChange = "2019-11-03 11:00:34 +0000";
layers = (
{
anchors = (
{
name = bottom;
position = "{264, 0}";
},
{
name = center;
position = "{264, 370}";
},
{
name = top;
position = "{238, 740}";
}
);
layerId = "8BDB995E-2F86-4134-8150-9944A684F6E9";
paths = (
{
closed = 1;
nodes = (
"535 0 LINE",
"535 102 LINE SMOOTH",
"535 169 OFFCURVE",
"538 236 OFFCURVE",
"558 254 CURVE",
"544 254 LINE",
"488 164 OFFCURVE",
"540 10 OFFCURVE",
"264 10 CURVE SMOOTH",
"130 10 OFFCURVE",
"81 19 OFFCURVE",
"153 150 CURVE",
"423 636 LINE SMOOTH",
"438 663 OFFCURVE",
"464 699 OFFCURVE",
"475 711 CURVE SMOOTH",
"484 720 OFFCURVE",
"508 720 OFFCURVE",
"518 715 CURVE",
"518 740 LINE",
"13 740 LINE",
"16 711 LINE SMOOTH",
"20 677 OFFCURVE",
"22 597 OFFCURVE",
"5 555 CURVE",
"21 555 LINE",
"58 625 OFFCURVE",
"-1 730 OFFCURVE",
"224 730 CURVE SMOOTH",
"300 730 OFFCURVE",
"366 730 OFFCURVE",
"366 672 CURVE SMOOTH",
"366 654 OFFCURVE",
"328 597 OFFCURVE",
"313 570 CURVE SMOOTH",
"53 100 LINE SMOOTH",
"35 68 OFFCURVE",
"20 27 OFFCURVE",
"6 22 CURVE SMOOTH",
"-3 19 OFFCURVE",
"-19 19 OFFCURVE",
"-30 25 CURVE",
"-30 0 LINE"
);
}
);
width = 528;
}
);
unicode = 005A;
},
{
glyphname = O.ss01;
lastChange = "2019-10-30 23:18:45 +0000";
layers = (
{
guideLines = (
{
position = "{302, 760}";
}
);
layerId = "8BDB995E-2F86-4134-8150-9944A684F6E9";
paths = (
{
closed = 1;
nodes = (
"389 -52 OFFCURVE",
"572 84 OFFCURVE",
"626 288 CURVE SMOOTH",
"681 492 OFFCURVE",
"590 702 OFFCURVE",
"423 746 CURVE SMOOTH",
"256 791 OFFCURVE",
"70 656 OFFCURVE",
"16 452 CURVE SMOOTH",
"-39 249 OFFCURVE",
"54 38 OFFCURVE",
"221 -7 CURVE SMOOTH"
);
},
{
closed = 1;
nodes = (
"3 124 OFFCURVE",
"26 327 OFFCURVE",
"121 492 CURVE SMOOTH",
"216 656 OFFCURVE",
"377 771 OFFCURVE",
"489 706 CURVE SMOOTH",
"616 633 OFFCURVE",
"624 423 OFFCURVE",
"528 257 CURVE SMOOTH",
"399 34 OFFCURVE",
"244 -15 OFFCURVE",
"162 33 CURVE SMOOTH"
);
},
{
closed = 1;
nodes = (
"298 297 LINE",
"283 305 OFFCURVE",
"285 319 OFFCURVE",
"296 342 CURVE",
"357 448 LINE",
"368 465 OFFCURVE",
"381 481 OFFCURVE",
"398 471 CURVE",
"405 482 LINE",
"350 514 LINE",
"343 502 LINE",
"361 492 OFFCURVE",
"353 473 OFFCURVE",
"344 456 CURVE SMOOTH",
"334 438 LINE SMOOTH",
"323 419 OFFCURVE",
"308 393 OFFCURVE",
"285 353 CURVE",
"269 328 OFFCURVE",
"258 320 OFFCURVE",
"243 328 CURVE",
"236 317 LINE",
"291 285 LINE"
);
}
);
width = 642;
}
);
leftMetricsKey = "=H-20";
rightMetricsKey = "=H-20";
},
{
glyphname = Q.ss01;
lastChange = "2019-10-30 23:18:45 +0000";
layers = (
{
guideLines = (
{
position = "{451, -205}";
},
{
position = "{790, 760}";
},
{
position = "{1622, -20}";
},
{
position = "{-169, 515}";
}
);
layerId = "8BDB995E-2F86-4134-8150-9944A684F6E9";
paths = (
{
closed = 1;
nodes = (
"408 -52 OFFCURVE",
"592 85 OFFCURVE",
"646 288 CURVE SMOOTH",
"701 492 OFFCURVE",
"610 702 OFFCURVE",
"443 746 CURVE SMOOTH",
"276 791 OFFCURVE",
"90 656 OFFCURVE",
"36 452 CURVE SMOOTH",
"-19 249 OFFCURVE",
"74 38 OFFCURVE",
"241 -7 CURVE SMOOTH"
);
},
{
closed = 1;
nodes = (
"573 -205 OFFCURVE",
"658 -130 OFFCURVE",
"658 -20 CURVE",
"646 -22 LINE",
"655 -135 OFFCURVE",
"519 -153 OFFCURVE",
"365 -130 CURVE SMOOTH",
"283 -118 OFFCURVE",
"164 -65 OFFCURVE",
"124 -72 CURVE",
"158 -42 OFFCURVE",
"265 -22 OFFCURVE",
"343 0 CURVE",
"225 10 LINE",
"185 -26 OFFCURVE",
"125 -58 OFFCURVE",
"67 -74 CURVE SMOOTH",
"37 -82 OFFCURVE",
"48 -110 OFFCURVE",
"72 -101 CURVE SMOOTH",
"86 -96 OFFCURVE",
"85 -91 OFFCURVE",
"135 -91 CURVE SMOOTH",
"195 -91 OFFCURVE",
"346 -205 OFFCURVE",
"465 -205 CURVE SMOOTH"
);
},
{
closed = 1;
nodes = (
"23 124 OFFCURVE",
"46 327 OFFCURVE",
"141 492 CURVE SMOOTH",
"236 656 OFFCURVE",
"397 771 OFFCURVE",
"509 706 CURVE SMOOTH",
"636 633 OFFCURVE",
"644 423 OFFCURVE",
"548 257 CURVE SMOOTH",
"419 34 OFFCURVE",
"264 -15 OFFCURVE",
"182 33 CURVE SMOOTH"
);
},
{
closed = 1;
nodes = (
"318 297 LINE",
"303 305 OFFCURVE",
"305 319 OFFCURVE",
"316 342 CURVE",
"377 448 LINE",
"388 465 OFFCURVE",
"401 481 OFFCURVE",
"418 471 CURVE",
"425 482 LINE",
"370 514 LINE",
"363 502 LINE",
"381 492 OFFCURVE",
"373 473 OFFCURVE",
"364 456 CURVE SMOOTH",
"354 438 LINE SMOOTH",
"343 419 OFFCURVE",
"328 393 OFFCURVE",
"305 353 CURVE",
"289 328 OFFCURVE",
"278 320 OFFCURVE",
"263 328 CURVE",
"256 317 LINE",
"311 285 LINE"
);
}
);
width = 662;
}
);
leftMetricsKey = "=H";
rightMetricsKey = "=H-20";
},
{
glyphname = U.vietnamese;
lastChange = "2019-10-30 23:18:45 +0000";
layers = (
{
anchors = (
{
name = _topright;
position = "{616, 740}";
},
{
name = bottom;
position = "{334, 0}";
},
{
name = ogonek;
position = "{371, -15}";
},
{
name = top;
position = "{356, 737}";
}
);
guideLines = (
{
position = "{504, -20}";
},
{
position = "{133, 249}";
},
{
angle = 270;
position = "{466, 701}";
},
{
angle = 90;
position = "{691, 705}";
},
{
angle = 270;
position = "{20, 701}";
},
{
angle = 90;
position = "{245, 705}";
}
);
layerId = "8BDB995E-2F86-4134-8150-9944A684F6E9";
paths = (
{
closed = 1;
nodes = (
"598 740 LINE",
"454 740 LINE",
"454 719 LINE",
"503 735 OFFCURVE",
"552 720 OFFCURVE",
"552 681 CURVE SMOOTH",
"552 256 LINE SMOOTH",
"552 155 OFFCURVE",
"521 -1 OFFCURVE",
"355 -1 CURVE SMOOTH",
"274 -1 OFFCURVE",
"170 61 OFFCURVE",
"170 249 CURVE SMOOTH",
"170 680 LINE SMOOTH",
"170 716 OFFCURVE",
"196 731 OFFCURVE",
"245 715 CURVE",
"245 740 LINE",
"208 739 OFFCURVE",
"173 737 OFFCURVE",
"134 737 CURVE SMOOTH",
"95 737 OFFCURVE",
"58 739 OFFCURVE",
"20 740 CURVE",
"20 715 LINE",
"69 731 OFFCURVE",
"95 716 OFFCURVE",
"95 680 CURVE SMOOTH",
"95 237 LINE",
"100 42 OFFCURVE",
"231 -20 OFFCURVE",
"351 -20 CURVE SMOOTH",
"508 -20 OFFCURVE",
"579 106 OFFCURVE",
"581 249 CURVE SMOOTH",
"581 681 LINE SMOOTH",
"581 711 OFFCURVE",
"578 727 OFFCURVE",
"598 725 CURVE"
);
}
);
width = 631;
}
);
leftKerningGroup = O;
leftMetricsKey = "=H";
rightMetricsKey = "=33";
},
{
glyphname = a;
lastChange = "2019-10-30 23:19:21 +0000";
layers = (
{
anchors = (
{
name = bottom;
position = "{213, 0}";
},
{
name = ogonek;
position = "{379, 10}";
},
{
name = top;
position = "{227, 467}";
}
);
guideLines = (
{
position = "{628, -260}";
}
);
layerId = "8BDB995E-2F86-4134-8150-9944A684F6E9";
paths = (
{
closed = 1;
nodes = (
"298 -10 OFFCURVE",
"323 141 OFFCURVE",
"323 150 CURVE",
"323 76 OFFCURVE",
"315 -10 OFFCURVE",
"378 -10 CURVE SMOOTH",
"412 -10 OFFCURVE",
"452 14 OFFCURVE",
"452 67 CURVE",
"442 67 LINE",
"442 48 OFFCURVE",
"428 26 OFFCURVE",
"415 26 CURVE SMOOTH",
"383 26 OFFCURVE",
"383 81 OFFCURVE",
"383 101 CURVE SMOOTH",
"383 318 LINE SMOOTH",
"383 382 OFFCURVE",
"348 488 OFFCURVE",
"219 488 CURVE SMOOTH",
"126 488 OFFCURVE",
"58 407 OFFCURVE",
"58 336 CURVE",
"189 336 LINE",
"189 363 LINE",
"180 363 LINE",
"180 354 OFFCURVE",
"167 346 OFFCURVE",
"153 346 CURVE SMOOTH",
"128 346 OFFCURVE",
"125 354 OFFCURVE",
"125 370 CURVE SMOOTH",
"125 430 OFFCURVE",
"148 475 OFFCURVE",
"204 475 CURVE SMOOTH",
"297 475 OFFCURVE",
"323 390 OFFCURVE",
"323 307 CURVE",
"313 273 OFFCURVE",
"213 269 OFFCURVE",
"139 246 CURVE SMOOTH",
"98 233 OFFCURVE",
"40 191 OFFCURVE",
"40 123 CURVE SMOOTH",
"40 33 OFFCURVE",
"103 -10 OFFCURVE",
"172 -10 CURVE SMOOTH"
);
},
{
closed = 1;
nodes = (
"129 18 OFFCURVE",
"100 76 OFFCURVE",
"100 129 CURVE SMOOTH",
"100 177 OFFCURVE",
"126 221 OFFCURVE",
"191 245 CURVE SMOOTH",
"265 272 OFFCURVE",
"321 277 OFFCURVE",
"321 285 CURVE",
"321 171 LINE SMOOTH",
"321 124 OFFCURVE",
"268 18 OFFCURVE",
"195 18 CURVE SMOOTH"
);
}
);
width = 472;
}
);
leftKerningGroup = o;
leftMetricsKey = "=s";
rightMetricsKey = "=n";
unicode = 0061;
},
{
glyphname = ae;
lastChange = "2019-10-30 23:18:45 +0000";
layers = (
{
anchors = (
{
name = bottom;
position = "{482, 0}";
},
{
name = ogonek;
position = "{481, -1}";
},
{
name = top;
position = "{486, 467}";
}
);
layerId = "8BDB995E-2F86-4134-8150-9944A684F6E9";
paths = (
{
closed = 1;
nodes = (
"288 -10 OFFCURVE",
"318 124 OFFCURVE",
"321 141 CURVE",
"329 141 LINE",
"347 39 OFFCURVE",
"395 -10 OFFCURVE",
"496 -10 CURVE SMOOTH",
"595 -10 OFFCURVE",
"666 79 OFFCURVE",
"660 155 CURVE",
"533 155 LINE",
"533 128 LINE",
"542 128 LINE",
"542 152 OFFCURVE",
"599 159 OFFCURVE",
"597 112 CURVE SMOOTH",
"595 66 OFFCURVE",
"570 6 OFFCURVE",
"502 6 CURVE SMOOTH",
"409 6 OFFCURVE",
"379 115 OFFCURVE",
"377 241 CURVE",
"667 241 LINE",
"668 250 LINE SMOOTH",
"679 348 OFFCURVE",
"651 487 OFFCURVE",
"494 487 CURVE SMOOTH",
"426 487 OFFCURVE",
"370 440 OFFCURVE",
"350 391 CURVE",
"331 436 OFFCURVE",
"287 488 OFFCURVE",
"209 488 CURVE SMOOTH",
"116 488 OFFCURVE",
"48 407 OFFCURVE",
"48 336 CURVE",
"179 336 LINE",
"179 363 LINE",
"170 363 LINE",
"170 354 OFFCURVE",
"157 346 OFFCURVE",
"143 346 CURVE SMOOTH",
"118 346 OFFCURVE",
"115 354 OFFCURVE",
"115 370 CURVE SMOOTH",
"115 430 OFFCURVE",
"138 475 OFFCURVE",
"194 475 CURVE SMOOTH",
"287 475 OFFCURVE",
"313 390 OFFCURVE",
"313 307 CURVE",
"303 273 OFFCURVE",
"203 269 OFFCURVE",
"129 246 CURVE SMOOTH",
"88 233 OFFCURVE",
"30 191 OFFCURVE",
"30 123 CURVE SMOOTH",
"30 33 OFFCURVE",
"93 -10 OFFCURVE",
"162 -10 CURVE SMOOTH"
);
},
{
closed = 1;
nodes = (
"119 18 OFFCURVE",
"90 76 OFFCURVE",
"90 129 CURVE SMOOTH",
"90 177 OFFCURVE",
"116 221 OFFCURVE",
"181 245 CURVE SMOOTH",
"255 272 OFFCURVE",
"311 277 OFFCURVE",
"311 285 CURVE",
"311 171 LINE SMOOTH",
"311 124 OFFCURVE",
"258 18 OFFCURVE",
"185 18 CURVE SMOOTH"
);
},
{
closed = 1;
nodes = (
"378 373 OFFCURVE",
"396 475 OFFCURVE",
"490 475 CURVE SMOOTH",
"585 475 OFFCURVE",
"603 372 OFFCURVE",
"598 277 CURVE SMOOTH",
"597 259 OFFCURVE",
"597 256 OFFCURVE",
"572 256 CURVE SMOOTH",
"377 256 LINE"
);
}
);
width = 705;
}
);
rightMetricsKey = "=e";
unicode = 00E6;
},
{
glyphname = b;
lastChange = "2019-11-03 11:00:33 +0000";
layers = (
{
anchors = (
{
name = bottom;
position = "{277, 0}";
},
{
name = top;
position = "{255, 900}";
}
);
backgroundImage = {
alpha = 10;
crop = "{{0, 0}, {1375, 543}}";
imagePath = "../../../Screen Shot 2019-04-06 at 19.33.46.png";
locked = "1";
transform = "{3.18934, 0, 0, 3.18934, -2386, -692}";
};
guideLines = (
{
position = "{577, 477}";
},
{
position = "{634, 487}";
},
{
angle = 270;
position = "{496, 259}";
},
{
position = "{437, 242}";
},
{
angle = 40.9144;
position = "{283, 497}";
}
);
layerId = "8BDB995E-2F86-4134-8150-9944A684F6E9";
paths = (
{
closed = 1;
nodes = (
"428 -10 OFFCURVE",
"469 120 OFFCURVE",
"469 258 CURVE SMOOTH",
"469 377 OFFCURVE",
"412 487 OFFCURVE",
"293 487 CURVE SMOOTH",
"176 487 OFFCURVE",
"128 352 OFFCURVE",
"128 269 CURVE",
"128 137 OFFCURVE",
"150 -10 OFFCURVE",
"294 -10 CURVE SMOOTH"
);
},
{
closed = 1;
nodes = (
"119 0 LINE",
"142 73 LINE",
"168 73 LINE",
"129 214 LINE",
"156 386 LINE",
"138 386 LINE",
"137 800 LINE",
"119 800 LINE",
"105 780 OFFCURVE",
"86 755 OFFCURVE",
"64 755 CURVE SMOOTH",
"51 755 OFFCURVE",
"39 763 OFFCURVE",
"39 772 CURVE",
"30 772 LINE",
"30 745 LINE",
"50 741 OFFCURVE",
"68 743 OFFCURVE",
"83 748 CURVE",
"83 0 LINE"
);
},
{
closed = 1;
nodes = (
"170 8 OFFCURVE",
"150 129 OFFCURVE",
"150 242 CURVE SMOOTH",
"150 326 OFFCURVE",
"185 475 OFFCURVE",
"278 475 CURVE SMOOTH",
"367 475 OFFCURVE",
"399 359 OFFCURVE",
"399 243 CURVE SMOOTH",
"399 127 OFFCURVE",
"370 8 OFFCURVE",
"276 8 CURVE SMOOTH"
);
}
);
width = 509;
}
);
leftKerningGroup = i;
leftMetricsKey = "=n";
rightMetricsKey = "=o";
unicode = 0062;
},
{
glyphname = c;
lastChange = "2019-11-03 11:00:34 +0000";
layers = (
{
anchors = (
{
name = bottom;
position = "{234, 0}";
},
{
name = top;
position = "{239, 467}";
}
);
backgroundImage = {
alpha = 10;
crop = "{{0, 0}, {408, 394}}";
imagePath = "../../../GY167/Desktop/Screen Shot 2019-04-14 at 22.48.12.png";
locked = "1";
transform = "{3.27832, 0, 0, 3.27832, -70, -302}";
};
guideLines = (
{
position = "{383, 487}";
},
{
position = "{314, -10}";
},
{
position = "{361, 155}";
},
{
angle = 90;
position = "{245, 354}";
},
{
angle = 90;
position = "{40, 252}";
},
{
angle = 90;
position = "{398, 318}";
},
{
angle = 90;
position = "{328, 319}";
}
);
layerId = "8BDB995E-2F86-4134-8150-9944A684F6E9";
paths = (
{
closed = 1;
nodes = (
"329 -10 OFFCURVE",
"387 51 OFFCURVE",
"405 116 CURVE",
"383 116 LINE",
"370 61 OFFCURVE",
"327 9 OFFCURVE",
"255 9 CURVE SMOOTH",
"150 9 OFFCURVE",
"110 112 OFFCURVE",
"110 230 CURVE SMOOTH",
"110 394 OFFCURVE",
"164 475 OFFCURVE",
"245 475 CURVE SMOOTH",
"275 475 OFFCURVE",
"330 454 OFFCURVE",
"334 413 CURVE SMOOTH",
"338 374 OFFCURVE",
"295 327 OFFCURVE",
"358 327 CURVE SMOOTH",
"392 327 OFFCURVE",
"405 357 OFFCURVE",
"398 395 CURVE SMOOTH",
"388 450 OFFCURVE",
"308 487 OFFCURVE",
"235 487 CURVE SMOOTH",
"104 487 OFFCURVE",
"40 361 OFFCURVE",
"40 239 CURVE SMOOTH",
"40 116 OFFCURVE",
"97 -10 OFFCURVE",
"252 -10 CURVE SMOOTH"
);
},
{
closed = 0;
nodes = (
"317 436 LINE"
);
}
);
width = 435;
}
);
leftKerningGroup = o;
leftMetricsKey = "=o";
rightMetricsKey = "=o-10";
unicode = 0063;
},
{
glyphname = d;
lastChange = "2019-11-03 11:00:34 +0000";
layers = (
{
anchors = (
{
name = bottom;
position = "{239, 0}";
},
{
name = center;
position = "{299, 694}";
},
{
name = top;
position = "{207, 467}";
},
{
name = topright;
position = "{485, 467}";
}
);
layerId = "8BDB995E-2F86-4134-8150-9944A684F6E9";
paths = (
{
closed = 1;
nodes = (
"284 -10 OFFCURVE",
"325 24 OFFCURVE",
"349 73 CURVE",
"367 73 LINE",
"390 0 LINE",
"475 0 LINE",
"475 15 LINE",
"436 2 OFFCURVE",
"427 15 OFFCURVE",
"426 39 CURVE",
"426 800 LINE",
"412 800 LINE",
"398 780 OFFCURVE",
"375 755 OFFCURVE",
"353 755 CURVE SMOOTH",
"340 755 OFFCURVE",
"328 763 OFFCURVE",
"328 772 CURVE",
"319 772 LINE",
"319 745 LINE",
"339 741 OFFCURVE",
"357 743 OFFCURVE",
"372 748 CURVE",
"372 647 LINE",
"371 386 LINE",
"355 386 LINE",
"329 441 OFFCURVE",
"284 487 OFFCURVE",
"216 487 CURVE SMOOTH",
"97 487 OFFCURVE",
"40 377 OFFCURVE",
"40 258 CURVE SMOOTH",
"40 120 OFFCURVE",
"81 -10 OFFCURVE",
"215 -10 CURVE SMOOTH"
);
},
{
closed = 1;
nodes = (
"139 8 OFFCURVE",
"110 127 OFFCURVE",
"110 243 CURVE SMOOTH",
"110 359 OFFCURVE",
"142 475 OFFCURVE",
"231 475 CURVE SMOOTH",
"324 475 OFFCURVE",
"359 326 OFFCURVE",
"359 242 CURVE SMOOTH",
"359 129 OFFCURVE",
"339 8 OFFCURVE",
"233 8 CURVE SMOOTH"
);
},
{
closed = 1;
nodes = (
"380 216 LINE",
"380 214 LINE",
"379 212 LINE"
);
}
);
width = 505;
}
);
leftKerningGroup = o;
leftMetricsKey = "=o";
rightMetricsKey = "=|n";
unicode = 0064;
},
{
glyphname = eth;
lastChange = "2019-10-30 23:18:45 +0000";
layers = (
{
layerId = "8BDB995E-2F86-4134-8150-9944A684F6E9";
paths = (
{
closed = 1;
nodes = (
"367 -10 OFFCURVE",
"431 105 OFFCURVE",
"443 233 CURVE SMOOTH",
"451 320 OFFCURVE",
"443 440 OFFCURVE",
"420 517 CURVE SMOOTH",
"376 665 OFFCURVE",
"299 767 OFFCURVE",
"145 800 CURVE",
"140 780 LINE",
"210 761 OFFCURVE",
"347 686 OFFCURVE",
"370 399 CURVE",
"370 391 OFFCURVE",
"367 387 OFFCURVE",
"361 390 CURVE",
"328 430 OFFCURVE",
"300 467 OFFCURVE",
"206 466 CURVE SMOOTH",
"116 465 OFFCURVE",
"35 364 OFFCURVE",
"35 239 CURVE SMOOTH",
"35 125 OFFCURVE",
"73 -10 OFFCURVE",
"230 -10 CURVE SMOOTH"
);
},
{
closed = 1;
nodes = (
"108 8 OFFCURVE",
"104 138 OFFCURVE",
"104 239 CURVE SMOOTH",
"104 347 OFFCURVE",
"140 448 OFFCURVE",
"220 451 CURVE SMOOTH",
"320 455 OFFCURVE",
"364 356 OFFCURVE",
"364 235 CURVE SMOOTH",
"364 125 OFFCURVE",
"332 8 OFFCURVE",
"230 8 CURVE SMOOTH"
);
},
{
closed = 1;
nodes = (
"424 749 LINE",
"406 770 LINE",
"141 569 LINE",
"159 548 LINE"
);
}
);
width = 481;
}
);
unicode = 00F0;
},
{
glyphname = dcaron;
lastChange = "2019-10-30 23:18:45 +0000";
layers = (
{
anchors = (
{
name = _topleft;
position = "{32, 740}";
}
);
layerId = "8BDB995E-2F86-4134-8150-9944A684F6E9";
paths = (
{
closed = 1;
nodes = (
"284 -10 OFFCURVE",
"325 24 OFFCURVE",
"349 73 CURVE",
"367 73 LINE",
"390 0 LINE",
"475 0 LINE",
"475 15 LINE",
"436 2 OFFCURVE",
"427 15 OFFCURVE",
"426 39 CURVE",
"426 800 LINE",
"412 800 LINE",
"398 780 OFFCURVE",
"375 755 OFFCURVE",
"353 755 CURVE SMOOTH",
"340 755 OFFCURVE",
"328 763 OFFCURVE",
"328 772 CURVE",
"319 772 LINE",
"319 745 LINE",
"339 741 OFFCURVE",
"357 743 OFFCURVE",
"372 748 CURVE",
"372 647 LINE",
"371 386 LINE",
"355 386 LINE",
"329 441 OFFCURVE",
"284 487 OFFCURVE",
"216 487 CURVE SMOOTH",
"97 487 OFFCURVE",
"40 377 OFFCURVE",
"40 258 CURVE SMOOTH",
"40 120 OFFCURVE",
"81 -10 OFFCURVE",
"215 -10 CURVE SMOOTH"
);
},
{
closed = 1;
nodes = (
"139 8 OFFCURVE",
"110 127 OFFCURVE",
"110 243 CURVE SMOOTH",
"110 359 OFFCURVE",
"142 475 OFFCURVE",
"231 475 CURVE SMOOTH",
"324 475 OFFCURVE",
"359 326 OFFCURVE",
"359 242 CURVE SMOOTH",
"359 129 OFFCURVE",
"339 8 OFFCURVE",
"233 8 CURVE SMOOTH"
);
},
{
closed = 1;
nodes = (
"380 216 LINE",
"380 214 LINE",
"379 212 LINE"
);
},
{
closed = 1;
nodes = (
"502 590 OFFCURVE",
"522 590 OFFCURVE",
"522 612 CURVE",
"523 660 OFFCURVE",
"542 711 OFFCURVE",
"542 763 CURVE SMOOTH",
"542 789 OFFCURVE",
"528 806 OFFCURVE",
"512 806 CURVE SMOOTH",
"495 806 OFFCURVE",
"482 789 OFFCURVE",
"482 763 CURVE SMOOTH",
"482 711 OFFCURVE",
"502 662 OFFCURVE",
"502 612 CURVE"
);
}
);
width = 505;
}
);
unicode = 010F;
},
{
glyphname = dcroat;
lastChange = "2019-10-30 23:17:49 +0000";
layers = (
{
layerId = "8BDB995E-2F86-4134-8150-9944A684F6E9";
paths = (
{
closed = 1;
nodes = (
"284 -10 OFFCURVE",
"325 24 OFFCURVE",
"349 73 CURVE",
"367 73 LINE",
"390 0 LINE",
"475 0 LINE",
"475 15 LINE",
"436 2 OFFCURVE",
"427 15 OFFCURVE",
"426 39 CURVE",
"426 800 LINE",
"412 800 LINE",
"398 780 OFFCURVE",
"375 755 OFFCURVE",
"353 755 CURVE SMOOTH",
"340 755 OFFCURVE",
"328 763 OFFCURVE",
"328 772 CURVE",
"319 772 LINE",
"319 745 LINE",
"339 741 OFFCURVE",
"357 743 OFFCURVE",
"372 748 CURVE",
"372 647 LINE",
"371 386 LINE",
"355 386 LINE",
"329 441 OFFCURVE",
"284 487 OFFCURVE",
"216 487 CURVE SMOOTH",
"97 487 OFFCURVE",
"40 377 OFFCURVE",
"40 258 CURVE SMOOTH",
"40 120 OFFCURVE",
"81 -10 OFFCURVE",
"215 -10 CURVE SMOOTH"
);
},
{
closed = 1;
nodes = (
"139 8 OFFCURVE",
"110 127 OFFCURVE",
"110 243 CURVE SMOOTH",
"110 359 OFFCURVE",
"142 475 OFFCURVE",
"231 475 CURVE SMOOTH",
"324 475 OFFCURVE",
"359 326 OFFCURVE",
"359 242 CURVE SMOOTH",
"359 129 OFFCURVE",
"339 8 OFFCURVE",
"233 8 CURVE SMOOTH"
);
},
{
closed = 1;
nodes = (
"380 216 LINE",
"380 214 LINE",
"379 212 LINE"
);
},
{
closed = 1;
nodes = (
"506 614 LINE",
"506 638 LINE",
"233 638 LINE",
"233 614 LINE"
);
}
);
width = 506;
}
);
leftMetricsKey = "=o";
unicode = 0111;
},
{
glyphname = e;
lastChange = "2019-10-30 23:19:45 +0000";
layers = (
{
anchors = (
{
name = bottom;
position = "{228, 0}";
},
{
name = ogonek;
position = "{264, 0}";
},
{
name = top;
position = "{232, 467}";
}
);
guideLines = (
{
position = "{498, -10}";
},
{
position = "{384, 487}";
},
{
angle = 90;
position = "{235, 239}";
}
);
layerId = "8BDB995E-2F86-4134-8150-9944A684F6E9";
paths = (
{
closed = 1;
nodes = (
"339 -7 OFFCURVE",
"410 79 OFFCURVE",
"404 155 CURVE",
"277 155 LINE",
"277 128 LINE",
"286 128 LINE",
"286 152 OFFCURVE",
"343 159 OFFCURVE",
"341 112 CURVE SMOOTH",
"339 66 OFFCURVE",
"314 6 OFFCURVE",
"235 6 CURVE SMOOTH",
"142 6 OFFCURVE",
"112 104 OFFCURVE",
"110 230 CURVE",
"411 230 LINE",
"412 239 LINE SMOOTH",
"423 337 OFFCURVE",
"397 487 OFFCURVE",
"227 487 CURVE SMOOTH",
"96 487 OFFCURVE",
"40 361 OFFCURVE",
"40 239 CURVE SMOOTH",
"40 79 OFFCURVE",
"101 -10 OFFCURVE",
"229 -10 CURVE SMOOTH"
);
},
{
closed = 1;
nodes = (
"111 360 OFFCURVE",
"129 475 OFFCURVE",
"223 475 CURVE SMOOTH",
"331 475 OFFCURVE",
"351 361 OFFCURVE",
"344 266 CURVE SMOOTH",
"343 248 OFFCURVE",
"343 245 OFFCURVE",
"318 245 CURVE SMOOTH",
"110 245 LINE"
);
}
);
width = 449;
}
);
leftKerningGroup = o;
leftMetricsKey = "=o";
rightMetricsKey = "=o-5";
unicode = 0065;
},
{
glyphname = f;
lastChange = "2019-11-03 11:00:34 +0000";
layers = (
{
guideLines = (
{
position = "{424, 166}";
},
{
position = "{8, 477}";
},
{
angle = 270;
position = "{-4, 468}";
},
{
angle = 90;
position = "{125, 422}";
},
{
angle = 270;
position = "{206, 468}";
},
{
angle = 180;
position = "{128, 468}";
},
{
position = "{209, 804}";
}
);
layerId = "8BDB995E-2F86-4134-8150-9944A684F6E9";
paths = (
{
closed = 1;
nodes = (
"201 0 LINE",
"201 15 LINE",
"152 -1 OFFCURVE",
"151 24 OFFCURVE",
"151 60 CURVE SMOOTH",
"151 453 LINE",
"230 453 LINE",
"230 468 LINE",
"151 468 LINE",
"151 643 LINE SMOOTH",
"151 770 OFFCURVE",
"171 795 OFFCURVE",
"201 795 CURVE SMOOTH",
"268 795 OFFCURVE",
"239 715 OFFCURVE",
"239 676 CURVE SMOOTH",
"239 619 OFFCURVE",
"273 571 OFFCURVE",
"324 571 CURVE",
"324 581 LINE",
"257 581 OFFCURVE",
"306 672 OFFCURVE",
"306 716 CURVE SMOOTH",
"306 774 OFFCURVE",
"268 804 OFFCURVE",
"208 804 CURVE SMOOTH",
"167 804 OFFCURVE",
"89 770 OFFCURVE",
"89 643 CURVE SMOOTH",
"89 468 LINE",
"20 468 LINE",
"20 453 LINE",
"89 453 LINE",
"89 60 LINE SMOOTH",
"89 24 OFFCURVE",
"85 -1 OFFCURVE",
"36 15 CURVE",
"36 0 LINE"
);
}
);
width = 244;
}
);
leftKerningGroup = i;
leftMetricsKey = "=n-10";
rightMetricsKey = "=n-100";
unicode = 0066;
},
{
glyphname = g;
lastChange = "2019-11-03 11:00:33 +0000";
layers = (
{
anchors = (
{
name = bottom;
position = "{224, -360}";
},
{
name = top;
position = "{224, 467}";
}
);
guideLines = (
{
position = "{255, 154}";
},
{
position = "{209, 166}";
},
{
position = "{46, -264}";
},
{
angle = 270;
position = "{223, 161}";
},
{
angle = 90;
position = "{406, -74}";
},
{
angle = 90;
position = "{438, 309}";
},
{
angle = 90;
position = "{30, -74}";
},
{
angle = 90;
position = "{62, 309}";
}
);
layerId = "8BDB995E-2F86-4134-8150-9944A684F6E9";
paths = (
{
closed = 1;
nodes = (
"354 -264 OFFCURVE",
"438 -170 OFFCURVE",
"438 -74 CURVE SMOOTH",
"438 0 OFFCURVE",
"390 78 OFFCURVE",
"268 80 CURVE SMOOTH",
"160 82 LINE SMOOTH",
"122 82 OFFCURVE",
"75 89 OFFCURVE",
"73 126 CURVE SMOOTH",
"72 147 OFFCURVE",
"81 192 OFFCURVE",
"138 192 CURVE",
"136 201 LINE",
"67 201 OFFCURVE",
"43 141 OFFCURVE",
"43 106 CURVE SMOOTH",
"43 71 OFFCURVE",
"65 35 OFFCURVE",
"173 35 CURVE SMOOTH",
"275 35 OFFCURVE",
"373 12 OFFCURVE",
"373 -81 CURVE SMOOTH",
"373 -184 OFFCURVE",
"318 -246 OFFCURVE",
"223 -246 CURVE SMOOTH",
"128 -246 OFFCURVE",
"91 -182 OFFCURVE",
"91 -117 CURVE SMOOTH",
"91 -61 OFFCURVE",
"102 -8 OFFCURVE",
"175 -8 CURVE",
"175 0 LINE",
"68 0 OFFCURVE",
"30 -67 OFFCURVE",
"30 -117 CURVE SMOOTH",
"30 -197 OFFCURVE",
"114 -264 OFFCURVE",
"223 -264 CURVE SMOOTH"
);
},
{
closed = 1;
nodes = (
"342 154 OFFCURVE",
"389 228 OFFCURVE",
"389 320 CURVE SMOOTH",
"389 404 OFFCURVE",
"342 487 OFFCURVE",
"223 487 CURVE SMOOTH",
"107 487 OFFCURVE",
"62 404 OFFCURVE",
"62 320 CURVE SMOOTH",
"62 228 OFFCURVE",
"107 154 OFFCURVE",
"223 154 CURVE SMOOTH"
);
},
{
closed = 1;
nodes = (
"149 166 OFFCURVE",
"130 234 OFFCURVE",
"130 320 CURVE SMOOTH",
"130 399 OFFCURVE",
"149 475 OFFCURVE",
"223 475 CURVE SMOOTH",
"299 475 OFFCURVE",
"319 399 OFFCURVE",
"319 320 CURVE SMOOTH",
"319 234 OFFCURVE",
"299 166 OFFCURVE",
"223 166 CURVE SMOOTH"
);
},
{
closed = 1;
nodes = (
"458 446 OFFCURVE",
"439 474 OFFCURVE",
"411 484 CURVE SMOOTH",
"383 494 OFFCURVE",
"331 473 OFFCURVE",
"317 440 CURVE",
"328 435 LINE",
"332 446 OFFCURVE",
"356 472 OFFCURVE",
"373 468 CURVE SMOOTH",
"399 462 OFFCURVE",
"404 378 OFFCURVE",
"439 422 CURVE SMOOTH"
);
}
);
width = 447;
}
);
leftKerningGroup = o;
leftMetricsKey = "=n";
rightMetricsKey = "=n-20";
unicode = 0067;
},
{
glyphname = h;
lastChange = "2019-11-03 11:00:34 +0000";
layers = (
{
anchors = (
{
name = bottom;
position = "{277, 0}";
},
{
name = center;
position = "{262, 450}";
},
{
name = top;
position = "{262, 900}";
}
);
layerId = "8BDB995E-2F86-4134-8150-9944A684F6E9";
paths = (
{
closed = 1;
nodes = (
"504 0 LINE",
"504 15 LINE",
"455 -1 OFFCURVE",
"451 24 OFFCURVE",
"451 60 CURVE SMOOTH",
"451 328 LINE",
"451 429 OFFCURVE",
"364 488 OFFCURVE",
"290 488 CURVE SMOOTH",
"166 488 OFFCURVE",
"138 324 OFFCURVE",
"138 269 CURVE",
"163 269 LINE",
"163 339 OFFCURVE",
"185 475 OFFCURVE",
"281 475 CURVE SMOOTH",
"340 475 OFFCURVE",
"384 435 OFFCURVE",
"384 340 CURVE SMOOTH",
"384 60 LINE SMOOTH",
"384 24 OFFCURVE",
"383 -1 OFFCURVE",
"334 15 CURVE",
"334 0 LINE"
);
},
{
closed = 1;
nodes = (
"213 0 LINE",
"213 15 LINE",
"164 -1 OFFCURVE",
"163 24 OFFCURVE",
"163 60 CURVE SMOOTH",
"163 386 LINE",
"148 386 LINE",
"147 800 LINE",
"126 800 LINE",
"112 780 OFFCURVE",
"96 755 OFFCURVE",
"74 755 CURVE SMOOTH",
"61 755 OFFCURVE",
"49 763 OFFCURVE",
"49 772 CURVE",
"40 772 LINE",
"40 745 LINE",
"60 741 OFFCURVE",
"78 743 OFFCURVE",
"93 748 CURVE",
"93 60 LINE SMOOTH",
"93 24 OFFCURVE",
"89 -1 OFFCURVE",
"40 15 CURVE",
"40 0 LINE"
);
}
);
width = 524;
}
);
leftKerningGroup = i;
leftMetricsKey = "=n+10";
rightMetricsKey = "=n";
unicode = 0068;
},
{
glyphname = hbar;
lastChange = "2019-10-30 23:18:45 +0000";
layers = (
{
layerId = "8BDB995E-2F86-4134-8150-9944A684F6E9";
paths = (
{
closed = 1;
nodes = (
"499 0 LINE",
"499 15 LINE",
"450 -1 OFFCURVE",
"446 24 OFFCURVE",
"446 60 CURVE SMOOTH",
"446 328 LINE",
"446 429 OFFCURVE",
"359 488 OFFCURVE",
"285 488 CURVE SMOOTH",
"161 488 OFFCURVE",
"133 324 OFFCURVE",
"133 269 CURVE",
"158 269 LINE",
"158 339 OFFCURVE",
"180 475 OFFCURVE",
"276 475 CURVE SMOOTH",
"335 475 OFFCURVE",
"379 435 OFFCURVE",
"379 340 CURVE SMOOTH",
"379 60 LINE SMOOTH",
"379 24 OFFCURVE",
"378 -1 OFFCURVE",
"329 15 CURVE",
"329 0 LINE"
);
},
{
closed = 1;
nodes = (
"208 0 LINE",
"208 15 LINE",
"159 -1 OFFCURVE",
"158 24 OFFCURVE",
"158 60 CURVE SMOOTH",
"158 386 LINE",
"143 386 LINE",
"142 800 LINE",
"121 800 LINE",
"107 780 OFFCURVE",
"91 755 OFFCURVE",
"69 755 CURVE SMOOTH",
"56 755 OFFCURVE",
"44 763 OFFCURVE",
"44 772 CURVE",
"35 772 LINE",
"35 745 LINE",
"55 741 OFFCURVE",
"73 743 OFFCURVE",
"88 748 CURVE",
"88 60 LINE SMOOTH",
"88 24 OFFCURVE",
"84 -1 OFFCURVE",
"35 15 CURVE",
"35 0 LINE"
);
},
{
closed = 1;
nodes = (
"278 599 LINE",
"278 619 LINE",
"37 619 LINE",
"37 599 LINE"
);
}
);
width = 529;
}
);
unicode = 0127;
},
{
glyphname = i;
lastChange = "2019-11-03 11:00:34 +0000";
layers = (
{
anchors = (
{
name = bottom;
position = "{123, 0}";
}
);
guideLines = (
{
angle = 90;
position = "{155, 264}";
},
{
angle = 180;
position = "{141, 468}";
}
);
layerId = "8BDB995E-2F86-4134-8150-9944A684F6E9";
paths = (
{
closed = 1;
nodes = (
"205 0 LINE",
"205 15 LINE",
"156 -1 OFFCURVE",
"155 24 OFFCURVE",
"155 60 CURVE SMOOTH",
"155 468 LINE",
"126 468 LINE",
"112 448 OFFCURVE",
"96 423 OFFCURVE",
"74 423 CURVE SMOOTH",
"61 423 OFFCURVE",
"49 431 OFFCURVE",
"49 440 CURVE",
"40 440 LINE",
"40 413 LINE",
"60 409 OFFCURVE",
"78 411 OFFCURVE",
"93 416 CURVE",
"93 60 LINE SMOOTH",
"93 24 OFFCURVE",
"89 -1 OFFCURVE",
"40 15 CURVE",
"40 0 LINE"
);
},
{
closed = 1;
nodes = (
"154 532 OFFCURVE",
"171 548 OFFCURVE",
"171 571 CURVE SMOOTH",
"171 593 OFFCURVE",
"152 610 OFFCURVE",
"128 610 CURVE SMOOTH",
"104 610 OFFCURVE",
"86 593 OFFCURVE",
"86 571 CURVE SMOOTH",
"86 548 OFFCURVE",
"104 532 OFFCURVE",
"128 532 CURVE SMOOTH"
);
}
);
width = 235;
}
);
leftKerningGroup = i;
leftMetricsKey = "=n+10";
rightMetricsKey = "=|n";
unicode = 0069;
},
{
glyphname = idotless;
lastChange = "2019-10-30 23:18:45 +0000";
layers = (
{
anchors = (
{
name = bottom;
position = "{118, 0}";
},
{
name = ogonek;
position = "{212, 10}";
},
{
name = top;
position = "{113, 467}";
}
);
layerId = "8BDB995E-2F86-4134-8150-9944A684F6E9";
paths = (
{
closed = 1;
nodes = (
"200 0 LINE",
"200 15 LINE",
"151 -1 OFFCURVE",
"150 24 OFFCURVE",
"150 60 CURVE SMOOTH",
"150 468 LINE",
"121 468 LINE",
"107 448 OFFCURVE",
"91 423 OFFCURVE",
"69 423 CURVE SMOOTH",
"56 423 OFFCURVE",
"44 431 OFFCURVE",
"44 440 CURVE",
"35 440 LINE",
"35 413 LINE",
"55 409 OFFCURVE",
"73 411 OFFCURVE",
"88 416 CURVE",
"88 60 LINE SMOOTH",
"88 24 OFFCURVE",
"84 -1 OFFCURVE",
"35 15 CURVE",
"35 0 LINE"
);
}
);
width = 235;
}
);
unicode = 0131;
},
{
glyphname = j;
lastChange = "2019-11-03 11:00:34 +0000";
layers = (
{
layerId = "8BDB995E-2F86-4134-8150-9944A684F6E9";
paths = (
{
closed = 1;
nodes = (
"77 -265 OFFCURVE",
"144 -226 OFFCURVE",
"144 -133 CURVE SMOOTH",
"144 468 LINE",
"115 468 LINE",
"101 448 OFFCURVE",
"85 423 OFFCURVE",
"63 423 CURVE SMOOTH",
"50 423 OFFCURVE",
"38 431 OFFCURVE",
"38 440 CURVE",
"29 440 LINE",
"29 413 LINE",
"49 409 OFFCURVE",
"67 411 OFFCURVE",
"82 416 CURVE",
"82 -133 LINE SMOOTH",
"82 -226 OFFCURVE",
"64 -254 OFFCURVE",
"29 -254 CURVE SMOOTH",
"-25 -254 OFFCURVE",
"18 -182 OFFCURVE",
"18 -138 CURVE SMOOTH",
"18 -88 OFFCURVE",
"-36 -67 OFFCURVE",
"-70 -67 CURVE",
"-70 -79 LINE",
"22 -79 OFFCURVE",
"-57 -142 OFFCURVE",
"-57 -186 CURVE SMOOTH",
"-57 -229 OFFCURVE",
"-26 -265 OFFCURVE",
"18 -265 CURVE SMOOTH"
);
},
{
closed = 1;
nodes = (
"129 533 OFFCURVE",
"145 548 OFFCURVE",
"145 570 CURVE SMOOTH",
"145 591 OFFCURVE",
"128 607 OFFCURVE",
"105 607 CURVE SMOOTH",
"82 607 OFFCURVE",
"65 591 OFFCURVE",
"65 570 CURVE SMOOTH",
"65 548 OFFCURVE",
"82 533 OFFCURVE",
"105 533 CURVE SMOOTH"
);
}
);
width = 210;
}
);
leftKerningGroup = i;
leftMetricsKey = "=n-100";
rightMetricsKey = "=n+45";
unicode = 006A;
},
{
glyphname = k;
lastChange = "2019-11-03 11:00:34 +0000";
layers = (
{
anchors = (
{
name = bottom;
position = "{249, 0}";
},
{
name = top;
position = "{224, 900}";
}
);
guideLines = (
{
position = "{223, 15}";
}
);
layerId = "8BDB995E-2F86-4134-8150-9944A684F6E9";
paths = (
{
closed = 1;
nodes = (
"200 0 LINE",
"200 15 LINE",
"151 -1 OFFCURVE",
"150 24 OFFCURVE",
"150 60 CURVE SMOOTH",
"151 800 LINE",
"135 800 LINE",
"135 772 OFFCURVE",
"109 755 OFFCURVE",
"80 755 CURVE SMOOTH",
"67 755 OFFCURVE",
"49 763 OFFCURVE",
"49 772 CURVE",
"40 772 LINE",
"40 745 LINE",
"60 741 OFFCURVE",
"78 740 OFFCURVE",
"93 745 CURVE",
"93 60 LINE SMOOTH",
"93 24 OFFCURVE",
"89 -1 OFFCURVE",
"40 15 CURVE",
"40 0 LINE"
);
},
{
closed = 1;
nodes = (
"507 0 LINE",
"507 15 LINE",
"460 3 OFFCURVE",
"440 32 OFFCURVE",
"380 121 CURVE",
"233 343 LINE",
"186 297 LINE",
"249 203 OFFCURVE",
"296 138 OFFCURVE",
"357 46 CURVE SMOOTH",
"369 28 OFFCURVE",
"357 3 OFFCURVE",
"308 15 CURVE",
"308 0 LINE"
);
},
{
closed = 1;
nodes = (
"145 250 LINE",
"203 307 OFFCURVE",
"252 346 OFFCURVE",
"314 408 CURVE SMOOTH",
"347 441 OFFCURVE",
"378 468 OFFCURVE",
"427 452 CURVE",
"427 467 LINE",
"257 467 LINE",
"257 452 LINE",
"306 468 OFFCURVE",
"332 443 OFFCURVE",
"299 411 CURVE SMOOTH",
"238 352 OFFCURVE",
"184 307 OFFCURVE",
"126 250 CURVE"
);
}
);
width = 447;
}
);
leftKerningGroup = i;
leftMetricsKey = "=n+10";
rightMetricsKey = "=n-80";
unicode = 006B;
},
{
glyphname = l;
lastChange = "2019-11-03 11:00:34 +0000";
layers = (
{
anchors = (
{
name = bottom;
position = "{123, 0}";
},
{
name = center;
position = "{123, 450}";
},
{
name = top;
position = "{108, 783}";
},
{
name = topright;
position = "{225, 807}";
}
);
layerId = "8BDB995E-2F86-4134-8150-9944A684F6E9";
paths = (
{
closed = 1;
nodes = (
"205 0 LINE",
"205 15 LINE",
"156 -1 OFFCURVE",
"155 24 OFFCURVE",
"155 60 CURVE SMOOTH",
"156 800 LINE",
"137 800 LINE",
"137 772 OFFCURVE",
"109 755 OFFCURVE",
"80 755 CURVE SMOOTH",
"67 755 OFFCURVE",
"49 763 OFFCURVE",
"49 772 CURVE",
"40 772 LINE",
"40 745 LINE",
"60 741 OFFCURVE",
"78 740 OFFCURVE",
"93 745 CURVE",
"93 60 LINE SMOOTH",
"93 24 OFFCURVE",
"89 -1 OFFCURVE",
"40 15 CURVE",
"40 0 LINE"
);
}
);
width = 245;
}
);
leftKerningGroup = i;
leftMetricsKey = "=h";
rightMetricsKey = "=|h";
unicode = 006C;
},
{
glyphname = lslash;
lastChange = "2019-10-30 23:18:46 +0000";
layers = (
{
layerId = "8BDB995E-2F86-4134-8150-9944A684F6E9";
paths = (
{
closed = 1;
nodes = (
"216 0 LINE",
"216 15 LINE",
"167 -1 OFFCURVE",
"166 24 OFFCURVE",
"166 60 CURVE SMOOTH",
"167 800 LINE",
"148 800 LINE",
"148 772 OFFCURVE",
"120 755 OFFCURVE",
"91 755 CURVE SMOOTH",
"78 755 OFFCURVE",
"60 763 OFFCURVE",
"60 772 CURVE",
"51 772 LINE",
"51 745 LINE",
"71 741 OFFCURVE",
"89 740 OFFCURVE",
"104 745 CURVE",
"104 60 LINE SMOOTH",
"104 24 OFFCURVE",
"100 -1 OFFCURVE",
"51 15 CURVE",
"51 0 LINE"
);
},
{
closed = 1;
nodes = (
"266 431 LINE",
"266 470 LINE",
"40 369 LINE",
"40 328 LINE"
);
}
);
width = 306;
}
);
leftMetricsKey = "=h";
rightMetricsKey = "=|h";
unicode = 0142;
},
{
glyphname = m;
lastChange = "2019-11-03 11:00:34 +0000";
layers = (
{
guideLines = (
{
position = "{193, 386}";
},
{
position = "{669, 489}";
}
);
layerId = "8BDB995E-2F86-4134-8150-9944A684F6E9";
paths = (
{
closed = 1;
nodes = (
"485 0 LINE",
"485 15 LINE",
"436 -1 OFFCURVE",
"432 24 OFFCURVE",
"432 60 CURVE SMOOTH",
"432 155 OFFCURVE",
"431 246 OFFCURVE",
"431 341 CURVE SMOOTH",
"431 392 OFFCURVE",
"475 476 OFFCURVE",
"542 476 CURVE SMOOTH",
"601 476 OFFCURVE",
"649 436 OFFCURVE",
"649 341 CURVE SMOOTH",
"649 61 LINE SMOOTH",
"649 25 OFFCURVE",
"648 0 OFFCURVE",
"599 16 CURVE",
"599 1 LINE",
"769 1 LINE",
"769 16 LINE",
"720 0 OFFCURVE",
"716 25 OFFCURVE",
"716 61 CURVE SMOOTH",
"716 329 LINE SMOOTH",
"716 430 OFFCURVE",
"625 489 OFFCURVE",
"551 489 CURVE SMOOTH",
"483 489 OFFCURVE",
"436 423 OFFCURVE",
"425 386 CURVE",
"415 386 LINE",
"415 395 OFFCURVE",
"410 406 OFFCURVE",
"408 410 CURVE SMOOTH",
"382 462 OFFCURVE",
"328 488 OFFCURVE",
"277 488 CURVE SMOOTH",
"153 488 OFFCURVE",
"129 324 OFFCURVE",
"129 269 CURVE",
"150 269 LINE",
"150 347 OFFCURVE",
"172 475 OFFCURVE",
"268 475 CURVE SMOOTH",
"327 475 OFFCURVE",
"371 435 OFFCURVE",
"371 340 CURVE SMOOTH",
"371 60 LINE SMOOTH",
"371 24 OFFCURVE",
"370 -1 OFFCURVE",
"321 15 CURVE",
"321 0 LINE"
);
},
{
closed = 1;
nodes = (
"208 0 LINE",
"208 15 LINE",
"159 -1 OFFCURVE",
"158 24 OFFCURVE",
"158 60 CURVE SMOOTH",
"158 386 LINE",
"134 386 LINE",
"134 468 LINE",
"91 425 LINE",
"91 61 LINE SMOOTH",
"91 25 OFFCURVE",
"87 -1 OFFCURVE",
"38 15 CURVE",
"38 0 LINE"
);
},
{
closed = 1;
nodes = (
"90 402 OFFCURVE",
"134 441 OFFCURVE",
"134 461 CURVE",
"134 468 LINE",
"116 468 LINE",
"102 448 OFFCURVE",
"86 423 OFFCURVE",
"64 423 CURVE SMOOTH",
"51 423 OFFCURVE",
"39 431 OFFCURVE",
"39 440 CURVE",
"30 440 LINE",
"30 413 LINE"
);
}
);
width = 789;
}
);
leftKerningGroup = i;
leftMetricsKey = "=n";
rightMetricsKey = "=n";
unicode = 006D;
},
{
glyphname = n;
lastChange = "2019-10-30 23:19:45 +0000";
layers = (
{
anchors = (
{
name = bottom;
position = "{261, 0}";
},
{
name = top;
position = "{248, 467}";
}
);
backgroundImage = {
alpha = 10;
crop = "{{0, 0}, {1375, 543}}";
imagePath = "../../../Screen Shot 2019-04-06 at 19.33.46.png";
locked = "1";
transform = "{3.062, 0, 0, 3.062, -3501, -645}";
};
guideLines = (
{
position = "{317, 487}";
},
{
angle = 90;
position = "{438, 267}";
},
{
angle = 90;
position = "{30, 411}";
},
{
position = "{269, 15}";
}
);
layerId = "8BDB995E-2F86-4134-8150-9944A684F6E9";
paths = (
{
closed = 1;
nodes = (
"491 0 LINE",
"491 15 LINE",
"442 -1 OFFCURVE",
"438 24 OFFCURVE",
"438 60 CURVE SMOOTH",
"438 328 LINE",
"438 429 OFFCURVE",
"351 488 OFFCURVE",
"277 488 CURVE SMOOTH",
"153 488 OFFCURVE",
"125 324 OFFCURVE",
"125 269 CURVE",
"150 269 LINE",
"150 339 OFFCURVE",
"172 475 OFFCURVE",
"268 475 CURVE SMOOTH",
"327 475 OFFCURVE",
"371 423 OFFCURVE",
"371 328 CURVE SMOOTH",
"371 60 LINE SMOOTH",
"371 24 OFFCURVE",
"370 -1 OFFCURVE",
"321 15 CURVE",
"321 0 LINE"
);
},
{
closed = 1;
nodes = (
"200 0 LINE",
"200 15 LINE",
"151 -1 OFFCURVE",
"150 24 OFFCURVE",
"150 60 CURVE SMOOTH",
"150 386 LINE",
"135 386 LINE",
"134 468 LINE",
"116 468 LINE",
"102 448 OFFCURVE",
"86 423 OFFCURVE",
"64 423 CURVE SMOOTH",
"51 423 OFFCURVE",
"39 431 OFFCURVE",
"39 440 CURVE",
"30 440 LINE",
"30 413 LINE",
"50 409 OFFCURVE",
"68 411 OFFCURVE",
"83 416 CURVE",
"83 60 LINE SMOOTH",
"83 24 OFFCURVE",
"79 -1 OFFCURVE",
"30 15 CURVE",
"30 0 LINE"
);
}
);
width = 511;
}
);
leftKerningGroup = i;
unicode = 006E;
},
{
glyphname = eng;
lastChange = "2019-10-30 23:18:46 +0000";
layers = (
{
layerId = "8BDB995E-2F86-4134-8150-9944A684F6E9";
paths = (
{
closed = 1;
nodes = (
"371 -265 OFFCURVE",
"438 -226 OFFCURVE",
"438 -133 CURVE SMOOTH",
"438 328 LINE SMOOTH",
"438 429 OFFCURVE",
"351 488 OFFCURVE",
"277 488 CURVE SMOOTH",
"153 488 OFFCURVE",
"125 324 OFFCURVE",
"125 269 CURVE",
"150 269 LINE",
"150 339 OFFCURVE",
"172 475 OFFCURVE",
"268 475 CURVE SMOOTH",
"327 475 OFFCURVE",
"371 423 OFFCURVE",
"371 328 CURVE SMOOTH",
"371 -133 LINE SMOOTH",
"371 -226 OFFCURVE",
"358 -254 OFFCURVE",
"323 -254 CURVE SMOOTH",
"269 -254 OFFCURVE",
"312 -182 OFFCURVE",
"312 -138 CURVE SMOOTH",
"312 -88 OFFCURVE",
"258 -67 OFFCURVE",
"224 -67 CURVE",
"224 -79 LINE",
"316 -79 OFFCURVE",
"237 -142 OFFCURVE",
"237 -186 CURVE SMOOTH",
"237 -229 OFFCURVE",
"268 -265 OFFCURVE",
"312 -265 CURVE SMOOTH"
);
},
{
closed = 1;
nodes = (
"200 0 LINE",
"200 15 LINE",
"151 -1 OFFCURVE",
"150 24 OFFCURVE",
"150 60 CURVE SMOOTH",
"150 386 LINE",
"135 386 LINE",
"134 468 LINE",
"116 468 LINE",
"102 448 OFFCURVE",
"86 423 OFFCURVE",
"64 423 CURVE SMOOTH",
"51 423 OFFCURVE",
"39 431 OFFCURVE",
"39 440 CURVE",
"30 440 LINE",
"30 413 LINE",
"50 409 OFFCURVE",
"68 411 OFFCURVE",
"83 416 CURVE",
"83 60 LINE SMOOTH",
"83 24 OFFCURVE",
"79 -1 OFFCURVE",
"30 15 CURVE",
"30 0 LINE"
);
}
);
width = 508;
}
);
leftMetricsKey = "=n";
rightMetricsKey = "=n+50";
unicode = 014B;
},
{
glyphname = o;
lastChange = "2019-10-30 23:19:45 +0000";
layers = (
{
anchors = (
{
name = bottom;
position = "{239, 0}";
},
{
name = center;
position = "{240, 239}";
},
{
name = ogonek;
position = "{267, 2}";
},
{
name = top;
position = "{239, 467}";
},
{
name = topright;
position = "{354, 431}";
}
);
guideLines = (
{
position = "{447, 475}";
},
{
position = "{378, 487}";
},
{
position = "{309, -10}";
},
{
angle = 90;
position = "{390, 365}";
},
{
position = "{239, 2}";
},
{
position = "{-83, 151}";
},
{
angle = 90;
position = "{40, 376}";
}
);
layerId = "8BDB995E-2F86-4134-8150-9944A684F6E9";
paths = (
{
closed = 1;
nodes = (
"390 -10 OFFCURVE",
"439 101 OFFCURVE",
"439 239 CURVE SMOOTH",
"439 362 OFFCURVE",
"390 487 OFFCURVE",
"239 487 CURVE SMOOTH",
"88 487 OFFCURVE",
"40 362 OFFCURVE",
"40 239 CURVE SMOOTH",
"40 101 OFFCURVE",
"88 -10 OFFCURVE",
"239 -10 CURVE SMOOTH"
);
},
{
closed = 1;
nodes = (
"144 2 OFFCURVE",
"110 109 OFFCURVE",
"110 239 CURVE SMOOTH",
"110 356 OFFCURVE",
"144 475 OFFCURVE",
"239 475 CURVE SMOOTH",
"334 475 OFFCURVE",
"369 356 OFFCURVE",
"369 239 CURVE SMOOTH",
"369 109 OFFCURVE",
"335 2 OFFCURVE",
"239 2 CURVE SMOOTH"
);
}
);
width = 479;
}
);
leftKerningGroup = o;
unicode = 006F;
},
{
glyphname = oslash;
lastChange = "2019-10-30 23:18:46 +0000";
layers = (
{
layerId = "8BDB995E-2F86-4134-8150-9944A684F6E9";
paths = (
{
closed = 1;
nodes = (
"385 -10 OFFCURVE",
"434 101 OFFCURVE",
"434 239 CURVE SMOOTH",
"434 362 OFFCURVE",
"385 487 OFFCURVE",
"234 487 CURVE SMOOTH",
"83 487 OFFCURVE",
"35 362 OFFCURVE",
"35 239 CURVE SMOOTH",
"35 101 OFFCURVE",
"83 -10 OFFCURVE",
"234 -10 CURVE SMOOTH"
);
},
{
closed = 1;
nodes = (
"396 486 LINE",
"374 498 LINE",
"55 0 LINE",
"77 -12 LINE"
);
},
{
closed = 1;
nodes = (
"139 2 OFFCURVE",
"105 109 OFFCURVE",
"105 239 CURVE SMOOTH",
"105 356 OFFCURVE",
"139 475 OFFCURVE",
"234 475 CURVE SMOOTH",
"329 475 OFFCURVE",
"364 356 OFFCURVE",
"364 239 CURVE SMOOTH",
"364 109 OFFCURVE",
"330 2 OFFCURVE",
"234 2 CURVE SMOOTH"
);
}
);
width = 469;
}
);
unicode = 00F8;
},
{
glyphname = oe;
lastChange = "2019-10-30 23:19:44 +0000";
layers = (
{
anchors = (
{
name = bottom;
position = "{690, 0}";
},
{
name = center;
position = "{223, 239}";
},
{
name = ogonek;
position = "{689, -1}";
},
{
name = top;
position = "{694, 467}";
},
{
name = topright;
position = "{388, 467}";
}
);
guideLines = (
{
position = "{30, 149}";
}
);
layerId = "8BDB995E-2F86-4134-8150-9944A684F6E9";
paths = (
{
closed = 1;
nodes = (
"317 -10 OFFCURVE",
"364 28 OFFCURVE",
"393 87 CURVE",
"419 24 OFFCURVE",
"467 -10 OFFCURVE",
"545 -10 CURVE SMOOTH",
"644 -10 OFFCURVE",
"715 79 OFFCURVE",
"709 155 CURVE",
"582 155 LINE",
"582 128 LINE",
"591 128 LINE",
"591 152 OFFCURVE",
"648 159 OFFCURVE",
"646 112 CURVE SMOOTH",
"644 66 OFFCURVE",
"619 6 OFFCURVE",
"551 6 CURVE SMOOTH",
"458 6 OFFCURVE",
"428 115 OFFCURVE",
"426 241 CURVE",
"716 241 LINE",
"717 250 LINE SMOOTH",
"728 348 OFFCURVE",
"700 487 OFFCURVE",
"543 487 CURVE SMOOTH",
"470 487 OFFCURVE",
"420 448 OFFCURVE",
"392 386 CURVE",
"362 445 OFFCURVE",
"316 487 OFFCURVE",
"229 487 CURVE SMOOTH",
"95 487 OFFCURVE",
"40 362 OFFCURVE",
"40 239 CURVE SMOOTH",
"40 101 OFFCURVE",
"95 -10 OFFCURVE",
"229 -10 CURVE SMOOTH"
);
},
{
closed = 1;
nodes = (
"151 2 OFFCURVE",
"110 109 OFFCURVE",
"110 239 CURVE SMOOTH",
"110 356 OFFCURVE",
"151 475 OFFCURVE",
"229 475 CURVE SMOOTH",
"324 475 OFFCURVE",
"352 356 OFFCURVE",
"352 239 CURVE SMOOTH",
"352 109 OFFCURVE",
"325 2 OFFCURVE",
"229 2 CURVE SMOOTH"
);
},
{
closed = 1;
nodes = (
"427 373 OFFCURVE",
"445 475 OFFCURVE",
"539 475 CURVE SMOOTH",
"634 475 OFFCURVE",
"652 373 OFFCURVE",
"647 277 CURVE SMOOTH",
"646 259 OFFCURVE",
"646 256 OFFCURVE",
"621 256 CURVE SMOOTH",
"426 256 LINE"
);
}
);
width = 754;
}
);
leftMetricsKey = "=o";
rightMetricsKey = "=e";
unicode = 0153;
},
{
glyphname = p;
lastChange = "2019-11-03 11:00:34 +0000";
layers = (
{
guideLines = (
{
position = "{716, -10}";
}
);
layerId = "8BDB995E-2F86-4134-8150-9944A684F6E9";
paths = (
{
closed = 1;
nodes = (
"416 -10 OFFCURVE",
"473 100 OFFCURVE",
"473 219 CURVE SMOOTH",
"473 357 OFFCURVE",
"432 487 OFFCURVE",
"298 487 CURVE SMOOTH",
"154 487 OFFCURVE",
"132 340 OFFCURVE",
"132 208 CURVE",
"132 125 OFFCURVE",
"180 -10 OFFCURVE",
"297 -10 CURVE SMOOTH"
);
},
{
closed = 1;
nodes = (
"191 -260 LINE",
"191 -245 LINE",
"142 -261 OFFCURVE",
"141 -236 OFFCURVE",
"141 -200 CURVE SMOOTH",
"141 -170 LINE",
"83 -170 LINE",
"83 -200 LINE SMOOTH",
"83 -236 OFFCURVE",
"79 -261 OFFCURVE",
"30 -245 CURVE",
"30 -260 LINE"
);
},
{
closed = 1;
nodes = (
"141 -170 LINE",
"142 91 LINE",
"159 91 LINE",
"133 263 LINE",
"172 404 LINE",
"146 404 LINE",
"116 477 LINE",
"83 411 LINE",
"83 -170 LINE"
);
},
{
closed = 1;
nodes = (
"189 2 OFFCURVE",
"154 151 OFFCURVE",
"154 235 CURVE SMOOTH",
"154 348 OFFCURVE",
"174 469 OFFCURVE",
"280 469 CURVE SMOOTH",
"374 469 OFFCURVE",
"403 350 OFFCURVE",
"403 234 CURVE SMOOTH",
"403 118 OFFCURVE",
"371 2 OFFCURVE",
"282 2 CURVE SMOOTH"
);
},
{
closed = 1;
nodes = (
"146 403 LINE",
"146 477 LINE",
"116 477 LINE",
"102 457 OFFCURVE",
"86 432 OFFCURVE",
"64 432 CURVE SMOOTH",
"51 432 OFFCURVE",
"39 440 OFFCURVE",
"39 449 CURVE",
"30 449 LINE",
"30 422 LINE",
"50 418 OFFCURVE",
"68 420 OFFCURVE",
"83 425 CURVE",
"83 403 LINE"
);
}
);
width = 513;
}
);
leftKerningGroup = i;
leftMetricsKey = "=n";
rightMetricsKey = "=o";
unicode = 0070;
},
{
glyphname = thorn;
lastChange = "2019-10-30 23:18:46 +0000";
layers = (
{
layerId = "8BDB995E-2F86-4134-8150-9944A684F6E9";
paths = (
{
closed = 1;
nodes = (
"265 -260 LINE",
"265 -235 LINE",
"216 -251 OFFCURVE",
"190 -236 OFFCURVE",
"190 -200 CURVE SMOOTH",
"189 457 LINE",
"212 465 OFFCURVE",
"236 464 OFFCURVE",
"256 464 CURVE SMOOTH",
"389 464 OFFCURVE",
"459 337 OFFCURVE",
"459 238 CURVE SMOOTH",
"459 128 OFFCURVE",
"391 51 OFFCURVE",
"295 51 CURVE SMOOTH",
"255 51 LINE",
"255 -69 LINE",
"294 -69 LINE",
"294 -56 LINE",
"267 -54 OFFCURVE",
"270 -17 OFFCURVE",
"270 4 CURVE SMOOTH",
"270 31 OFFCURVE",
"288 34 OFFCURVE",
"295 34 CURVE SMOOTH",
"328 34 LINE SMOOTH",
"391 34 OFFCURVE",
"546 111 OFFCURVE",
"546 244 CURVE SMOOTH",
"546 399 OFFCURVE",
"402 474 OFFCURVE",
"273 474 CURVE SMOOTH",
"189 474 LINE",
"188 800 LINE",
"145 800 LINE",
"131 780 OFFCURVE",
"115 755 OFFCURVE",
"93 755 CURVE SMOOTH",
"80 755 OFFCURVE",
"68 763 OFFCURVE",
"68 772 CURVE",
"59 772 LINE",
"59 745 LINE",
"79 741 OFFCURVE",
"97 743 OFFCURVE",
"112 748 CURVE",
"115 -200 LINE",
"115 -236 OFFCURVE",
"89 -251 OFFCURVE",
"40 -235 CURVE",
"40 -260 LINE"
);
}
);
width = 586;
}
);
leftMetricsKey = "=h";
rightMetricsKey = "=p";
unicode = 00FE;
},
{
glyphname = q;
lastChange = "2019-11-03 11:00:34 +0000";
layers = (
{
layerId = "8BDB995E-2F86-4134-8150-9944A684F6E9";
paths = (
{
closed = 1;
nodes = (
"333 -10 OFFCURVE",
"381 125 OFFCURVE",
"381 208 CURVE",
"381 340 OFFCURVE",
"359 487 OFFCURVE",
"215 487 CURVE SMOOTH",
"81 487 OFFCURVE",
"40 357 OFFCURVE",
"40 219 CURVE SMOOTH",
"40 100 OFFCURVE",
"97 -10 OFFCURVE",
"216 -10 CURVE SMOOTH"
);
},
{
closed = 1;
nodes = (
"483 -260 LINE",
"483 -245 LINE",
"434 -261 OFFCURVE",
"430 -236 OFFCURVE",
"430 -200 CURVE SMOOTH",
"430 -170 LINE",
"372 -170 LINE",
"372 -200 LINE SMOOTH",
"372 -236 OFFCURVE",
"371 -261 OFFCURVE",
"322 -245 CURVE",
"322 -260 LINE"
);
},
{
closed = 1;
nodes = (
"142 2 OFFCURVE",
"110 118 OFFCURVE",
"110 234 CURVE SMOOTH",
"110 350 OFFCURVE",
"139 469 OFFCURVE",
"233 469 CURVE SMOOTH",
"339 469 OFFCURVE",
"359 348 OFFCURVE",
"359 235 CURVE SMOOTH",
"359 151 OFFCURVE",
"324 2 OFFCURVE",
"231 2 CURVE SMOOTH"
);
},
{
closed = 1;
nodes = (
"430 -170 LINE",
"430 411 LINE",
"397 477 LINE",
"367 404 LINE",
"341 404 LINE",
"380 263 LINE",
"354 91 LINE",
"371 91 LINE",
"372 -170 LINE"
);
},
{
closed = 1;
nodes = (
"430 403 LINE",
"430 425 LINE",
"445 420 OFFCURVE",
"463 418 OFFCURVE",
"483 422 CURVE",
"483 449 LINE",
"474 449 LINE",
"474 440 OFFCURVE",
"462 432 OFFCURVE",
"449 432 CURVE SMOOTH",
"427 432 OFFCURVE",
"411 457 OFFCURVE",
"397 477 CURVE",
"367 477 LINE",
"367 403 LINE"
);
}
);
width = 503;
}
);
leftKerningGroup = o;
leftMetricsKey = "=o";
rightMetricsKey = "=n";
unicode = 0071;
},
{
glyphname = r;
lastChange = "2019-11-03 11:00:34 +0000";
layers = (
{
anchors = (
{
name = bottom;
position = "{150, 0}";
},
{
name = top;
position = "{175, 467}";
}
);
guideLines = (
{
position = "{601, 487}";
}
);
layerId = "8BDB995E-2F86-4134-8150-9944A684F6E9";
paths = (
{
closed = 1;
nodes = (
"195 0 LINE",
"195 15 LINE",
"146 -1 OFFCURVE",
"145 24 OFFCURVE",
"145 60 CURVE SMOOTH",
"145 386 LINE",
"127 386 LINE",
"126 467 LINE",
"116 467 LINE",
"102 447 OFFCURVE",
"86 423 OFFCURVE",
"64 423 CURVE SMOOTH",
"51 423 OFFCURVE",
"39 431 OFFCURVE",
"39 440 CURVE",
"30 440 LINE",
"30 413 LINE",
"50 409 OFFCURVE",
"68 411 OFFCURVE",
"83 416 CURVE",
"83 60 LINE SMOOTH",
"83 24 OFFCURVE",
"79 -1 OFFCURVE",
"30 15 CURVE",
"30 0 LINE"
);
},
{
closed = 1;
nodes = (
"145 269 LINE",
"145 368 OFFCURVE",
"165 474 OFFCURVE",
"206 474 CURVE SMOOTH",
"233 474 OFFCURVE",
"255 459 OFFCURVE",
"243 399 CURVE SMOOTH",
"233 349 OFFCURVE",
"227 293 OFFCURVE",
"300 293 CURVE",
"300 303 LINE",
"245 303 OFFCURVE",
"284 352 OFFCURVE",
"288 394 CURVE SMOOTH",
"292 432 OFFCURVE",
"271 487 OFFCURVE",
"216 487 CURVE SMOOTH",
"175 487 OFFCURVE",
"126 436 OFFCURVE",
"126 269 CURVE"
);
}
);
width = 300;
}
);
leftKerningGroup = i;
leftMetricsKey = "=n";
rightMetricsKey = "=n-20";
unicode = 0072;
},
{
glyphname = s;
lastChange = "2019-10-30 23:19:45 +0000";
layers = (
{
anchors = (
{
name = bottom;
position = "{181, 0}";
},
{
name = top;
position = "{181, 467}";
}
);
guideLines = (
{
position = "{364, 487}";
},
{
position = "{295, -10}";
}
);
layerId = "8BDB995E-2F86-4134-8150-9944A684F6E9";
paths = (
{
closed = 1;
nodes = (
"275 -10 OFFCURVE",
"332 67 OFFCURVE",
"332 133 CURVE SMOOTH",
"332 287 OFFCURVE",
"105 279 OFFCURVE",
"105 381 CURVE SMOOTH",
"105 442 OFFCURVE",
"133 470 OFFCURVE",
"186 470 CURVE SMOOTH",
"248 470 OFFCURVE",
"284 411 OFFCURVE",
"284 356 CURVE",
"299 356 LINE",
"299 487 LINE",
"286 487 LINE",
"279 436 LINE",
"273 460 OFFCURVE",
"223 487 OFFCURVE",
"176 487 CURVE SMOOTH",
"101 487 OFFCURVE",
"40 443 OFFCURVE",
"40 359 CURVE SMOOTH",
"40 232 OFFCURVE",
"265 251 OFFCURVE",
"265 126 CURVE SMOOTH",
"265 64 OFFCURVE",
"239 10 OFFCURVE",
"172 10 CURVE SMOOTH",
"97 10 OFFCURVE",
"59 64 OFFCURVE",
"59 179 CURVE",
"41 179 LINE",
"41 0 LINE",
"54 0 LINE",
"63 54 LINE",
"89 16 OFFCURVE",
"129 -10 OFFCURVE",
"190 -10 CURVE SMOOTH"
);
}
);
width = 362;
}
);
leftKerningGroup = i;
leftMetricsKey = "=n+10";
rightMetricsKey = "=n+10";
unicode = 0073;
},
{
glyphname = germandbls;
lastChange = "2019-10-30 23:18:46 +0000";
layers = (
{
guideLines = (
{
position = "{212, 804}";
}
);
layerId = "8BDB995E-2F86-4134-8150-9944A684F6E9";
paths = (
{
closed = 1;
nodes = (
"425 -10 OFFCURVE",
"474 101 OFFCURVE",
"474 239 CURVE SMOOTH",
"474 349 OFFCURVE",
"435 460 OFFCURVE",
"320 483 CURVE",
"377 503 OFFCURVE",
"403 561 OFFCURVE",
"403 626 CURVE SMOOTH",
"403 698 OFFCURVE",
"362 804 OFFCURVE",
"242 804 CURVE",
"162 804 OFFCURVE",
"93 770 OFFCURVE",
"93 643 CURVE SMOOTH",
"93 60 LINE SMOOTH",
"93 24 OFFCURVE",
"89 -1 OFFCURVE",
"40 15 CURVE",
"40 0 LINE",
"205 0 LINE",
"205 15 LINE",
"156 -1 OFFCURVE",
"155 24 OFFCURVE",
"155 60 CURVE SMOOTH",
"155 643 LINE SMOOTH",
"155 770 OFFCURVE",
"163 798 OFFCURVE",
"242 798 CURVE SMOOTH",
"337 798 OFFCURVE",
"338 694 OFFCURVE",
"338 626 CURVE SMOOTH",
"338 550 OFFCURVE",
"330 487 OFFCURVE",
"273 487 CURVE SMOOTH",
"261 487 OFFCURVE",
"251 487 OFFCURVE",
"242 490 CURVE",
"242 471 LINE",
"252 474 OFFCURVE",
"263 475 OFFCURVE",
"274 475 CURVE SMOOTH",
"369 475 OFFCURVE",
"404 356 OFFCURVE",
"404 239 CURVE SMOOTH",
"404 109 OFFCURVE",
"370 2 OFFCURVE",
"274 2 CURVE SMOOTH",
"263 2 OFFCURVE",
"252 4 OFFCURVE",
"242 7 CURVE",
"242 -8 LINE",
"252 -9 OFFCURVE",
"263 -10 OFFCURVE",
"274 -10 CURVE SMOOTH"
);
}
);
width = 514;
}
);
unicode = 00DF;
},
{
glyphname = t;
lastChange = "2019-11-03 11:00:34 +0000";
layers = (
{
anchors = (
{
name = bottom;
position = "{118, 0}";
},
{
name = center;
position = "{119, 234}";
},
{
name = top;
position = "{105, 588}";
},
{
name = topright;
position = "{218, 467}";
}
);
backgroundImage = {
alpha = 10;
crop = "{{0, 0}, {1399, 450}}";
imagePath = "../../1_Sketch/Screen Shot 2019-04-07 at 20.57.06.png";
locked = "1";
transform = "{3.11, 0, 0, 3.11, -406, -425}";
};
guideLines = (
{
position = "{504, -10}";
},
{
angle = 270;
position = "{10, 450}";
},
{
angle = 90;
position = "{139, 404}";
},
{
angle = 270;
position = "{220, 450}";
},
{
angle = 180;
position = "{116, 468}";
}
);
layerId = "8BDB995E-2F86-4134-8150-9944A684F6E9";
paths = (
{
closed = 1;
nodes = (
"199 -10 OFFCURVE",
"238 67 OFFCURVE",
"238 120 CURVE",
"228 120 LINE",
"228 101 OFFCURVE",
"213 26 OFFCURVE",
"169 26 CURVE SMOOTH",
"146 26 OFFCURVE",
"137 48 OFFCURVE",
"137 101 CURVE SMOOTH",
"138 453 LINE",
"220 453 LINE",
"220 468 LINE",
"138 468 LINE",
"139 618 LINE",
"118 618 LINE",
"118 603 OFFCURVE",
"108 575 OFFCURVE",
"76 575 CURVE",
"76 468 LINE",
"10 468 LINE",
"10 453 LINE",
"76 453 LINE",
"76 150 LINE",
"77 76 OFFCURVE",
"66 -10 OFFCURVE",
"134 -10 CURVE SMOOTH"
);
}
);
width = 238;
}
);
leftKerningGroup = i;
leftMetricsKey = "=n-20";
rightMetricsKey = "=n-20";
unicode = 0074;
},
{
glyphname = tbar;
lastChange = "2019-10-30 23:18:46 +0000";
layers = (
{
components = (
{
alignment = -1;
name = t;
}
);
guideLines = (
{
angle = 90;
position = "{225, 417}";
}
);
layerId = "8BDB995E-2F86-4134-8150-9944A684F6E9";
paths = (
{
closed = 1;
nodes = (
"225 286 LINE",
"225 300 LINE",
"15 300 LINE",
"15 286 LINE"
);
}
);
width = 238;
}
);
rightMetricsKey = "=t";
unicode = 0167;
},
{
glyphname = u;
lastChange = "2019-11-03 11:00:34 +0000";
layers = (
{
anchors = (
{
name = bottom;
position = "{239, 0}";
},
{
name = ogonek;
position = "{384, 10}";
},
{
name = top;
position = "{255, 467}";
},
{
name = topright;
position = "{448, 477}";
}
);
guideLines = (
{
position = "{420, -10}";
},
{
angle = 90;
position = "{432, 543}";
},
{
angle = 90;
position = "{365, 554}";
}
);
layerId = "8BDB995E-2F86-4134-8150-9944A684F6E9";
paths = (
{
closed = 1;
nodes = (
"289 -10 OFFCURVE",
"336 44 OFFCURVE",
"363 99 CURVE",
"373 99 LINE",
"373 0 LINE",
"482 0 LINE",
"482 15 LINE",
"433 -1 OFFCURVE",
"432 24 OFFCURVE",
"432 60 CURVE SMOOTH",
"432 477 LINE",
"414 477 LINE",
"400 457 OFFCURVE",
"384 432 OFFCURVE",
"362 432 CURVE SMOOTH",
"349 432 OFFCURVE",
"337 440 OFFCURVE",
"337 449 CURVE",
"328 449 LINE",
"328 422 LINE",
"341 420 OFFCURVE",
"354 420 OFFCURVE",
"365 421 CURVE",
"365 199 LINE SMOOTH",
"365 111 OFFCURVE",
"321 3 OFFCURVE",
"225 3 CURVE SMOOTH",
"166 3 OFFCURVE",
"143 43 OFFCURVE",
"143 138 CURVE SMOOTH",
"144 469 LINE",
"144 477 LINE",
"126 477 LINE",
"112 457 OFFCURVE",
"96 432 OFFCURVE",
"74 432 CURVE SMOOTH",
"61 432 OFFCURVE",
"49 440 OFFCURVE",
"49 449 CURVE",
"40 449 LINE",
"40 422 LINE",
"53 420 OFFCURVE",
"66 420 OFFCURVE",
"77 421 CURVE",
"78 150 LINE SMOOTH",
"78 49 OFFCURVE",
"142 -10 OFFCURVE",
"216 -10 CURVE SMOOTH"
);
}
);
width = 502;
}
);
leftKerningGroup = i;
leftMetricsKey = "=h";
rightMetricsKey = "=h";
unicode = 0075;
},
{
glyphname = uhorn_vietnam;
lastChange = "2019-10-30 23:18:46 +0000";
layers = (
{
anchors = (
{
name = bottom;
position = "{250, 0}";
},
{
name = ogonek;
position = "{384, 10}";
},
{
name = top;
position = "{276, 467}";
},
{
name = topright;
position = "{446, 432}";
}
);
layerId = "8BDB995E-2F86-4134-8150-9944A684F6E9";
paths = (
{
closed = 1;
nodes = (
"289 -10 OFFCURVE",
"336 44 OFFCURVE",
"363 99 CURVE",
"373 99 LINE",
"373 0 LINE",
"482 0 LINE",
"482 15 LINE",
"433 -1 OFFCURVE",
"432 24 OFFCURVE",
"432 60 CURVE SMOOTH",
"432 438 LINE",
"366 427 LINE",
"365 199 LINE SMOOTH",
"365 111 OFFCURVE",
"321 3 OFFCURVE",
"225 3 CURVE SMOOTH",
"166 3 OFFCURVE",
"143 43 OFFCURVE",
"143 138 CURVE SMOOTH",
"144 469 LINE",
"144 477 LINE",
"126 477 LINE",
"112 457 OFFCURVE",
"96 432 OFFCURVE",
"74 432 CURVE SMOOTH",
"61 432 OFFCURVE",
"49 440 OFFCURVE",
"49 449 CURVE",
"40 449 LINE",
"40 422 LINE",
"53 420 OFFCURVE",
"66 420 OFFCURVE",
"77 421 CURVE",
"78 150 LINE SMOOTH",
"78 49 OFFCURVE",
"142 -10 OFFCURVE",
"216 -10 CURVE SMOOTH"
);
},
{
closed = 1;
nodes = (
"463 416 OFFCURVE",
"509 445 OFFCURVE",
"505 483 CURVE SMOOTH",
"500 535 OFFCURVE",
"433 554 OFFCURVE",
"402 498 CURVE",
"412 495 LINE",
"456 554 OFFCURVE",
"501 446 OFFCURVE",
"408 434 CURVE",
"409 421 LINE"
);
}
);
width = 515;
}
);
leftMetricsKey = "=u";
rightMetricsKey = "=u-10";
},
{
glyphname = v;
lastChange = "2019-11-03 11:00:33 +0000";
layers = (
{
guideLines = (
{
angle = 73.7775;
position = "{280, 205}";
}
);
layerId = "8BDB995E-2F86-4134-8150-9944A684F6E9";
paths = (
{
closed = 1;
nodes = (
"220 0 LINE",
"96 428 LINE",
"89 445 OFFCURVE",
"99 463 OFFCURVE",
"145 452 CURVE",
"145 467 LINE",
"-30 467 LINE",
"-30 452 LINE",
"-4 459 OFFCURVE",
"28 461 OFFCURVE",
"42 401 CURVE",
"164 0 LINE"
);
},
{
closed = 1;
nodes = (
"220 0 LINE",
"349 409 LINE SMOOTH",
"355 428 OFFCURVE",
"384 468 OFFCURVE",
"433 452 CURVE",
"433 467 LINE",
"280 467 LINE",
"280 452 LINE",
"329 468 OFFCURVE",
"344 444 OFFCURVE",
"333 409 CURVE SMOOTH",
"203 0 LINE"
);
}
);
width = 383;
}
);
leftKerningGroup = v;
leftMetricsKey = "=n-60";
rightMetricsKey = "=n-70";
unicode = 0076;
},
{
glyphname = w;
lastChange = "2019-11-03 11:00:34 +0000";
layers = (
{
anchors = (
{
name = bottom;
position = "{320, 0}";
},
{
name = top;
position = "{320, 467}";
}
);
guideLines = (
{
angle = 90;
position = "{410, 460}";
},
{
angle = 270;
position = "{494, 460}";
}
);
layerId = "8BDB995E-2F86-4134-8150-9944A684F6E9";
paths = (
{
closed = 1;
nodes = (
"220 0 LINE",
"96 428 LINE",
"89 445 OFFCURVE",
"99 463 OFFCURVE",
"145 452 CURVE",
"145 467 LINE",
"-30 467 LINE",
"-30 452 LINE",
"-4 459 OFFCURVE",
"28 461 OFFCURVE",
"42 401 CURVE",
"164 0 LINE"
);
},
{
closed = 1;
nodes = (
"220 0 LINE",
"332 382 LINE",
"315 382 LINE",
"203 0 LINE"
);
},
{
closed = 1;
nodes = (
"457 0 LINE",
"333 428 LINE",
"326 445 OFFCURVE",
"364 463 OFFCURVE",
"410 452 CURVE",
"410 467 LINE",
"229 467 LINE",
"229 452 LINE",
"255 459 OFFCURVE",
"265 461 OFFCURVE",
"279 401 CURVE",
"401 0 LINE"
);
},
{
closed = 1;
nodes = (
"457 0 LINE",
"576 409 LINE SMOOTH",
"582 428 OFFCURVE",
"611 468 OFFCURVE",
"660 452 CURVE",
"660 467 LINE",
"494 467 LINE",
"494 452 LINE",
"543 468 OFFCURVE",
"570 444 OFFCURVE",
"560 409 CURVE SMOOTH",
"440 0 LINE"
);
}
);
width = 610;
}
);
leftKerningGroup = v;
leftMetricsKey = "=v";
rightMetricsKey = "=v";
unicode = 0077;
},
{
glyphname = x;
lastChange = "2019-11-03 11:00:34 +0000";
layers = (
{
guideLines = (
{
angle = 180;
position = "{63, 467}";
}
);
layerId = "8BDB995E-2F86-4134-8150-9944A684F6E9";
paths = (
{
closed = 1;
nodes = (
"414 0 LINE",
"414 15 LINE",
"367 3 OFFCURVE",
"349 38 OFFCURVE",
"297 123 CURVE SMOOTH",
"237 221 OFFCURVE",
"162 333 OFFCURVE",
"107 428 CURVE",
"100 445 OFFCURVE",
"110 463 OFFCURVE",
"156 452 CURVE",
"156 467 LINE",
"-30 467 LINE",
"-30 452 LINE",
"-4 459 OFFCURVE",
"18 451 OFFCURVE",
"53 401 CURVE",
"276 42 LINE",
"288 24 OFFCURVE",
"264 3 OFFCURVE",
"215 15 CURVE",
"215 0 LINE"
);
},
{
closed = 1;
nodes = (
"125 0 LINE",
"125 15 LINE",
"76 -1 OFFCURVE",
"55 26 OFFCURVE",
"77 58 CURVE SMOOTH",
"202 244 LINE",
"184 244 LINE",
"56 58 LINE SMOOTH",
"43 39 OFFCURVE",
"21 -1 OFFCURVE",
"-28 15 CURVE",
"-28 0 LINE"
);
},
{
closed = 1;
nodes = (
"210 251 LINE",
"319 409 LINE SMOOTH",
"332 428 OFFCURVE",
"349 468 OFFCURVE",
"398 452 CURVE",
"398 467 LINE",
"245 467 LINE",
"245 452 LINE",
"294 468 OFFCURVE",
"320 441 OFFCURVE",
"298 409 CURVE SMOOTH",
"192 251 LINE"
);
}
);
width = 374;
}
);
leftKerningGroup = v;
leftMetricsKey = "=v";
rightMetricsKey = "=v+10";
unicode = 0078;
},
{
glyphname = y;
lastChange = "2019-11-03 11:00:34 +0000";
layers = (
{
anchors = (
{
name = bottom;
position = "{271, 0}";
},
{
name = top;
position = "{190, 467}";
}
);
guideLines = (
{
position = "{7, -264}";
},
{
angle = 73.7775;
position = "{280, 205}";
},
{
angle = 270;
position = "{-30, 460}";
}
);
layerId = "8BDB995E-2F86-4134-8150-9944A684F6E9";
paths = (
{
closed = 1;
nodes = (
"115 -254 OFFCURVE",
"138 -196 OFFCURVE",
"158 -135 CURVE SMOOTH",
"340 409 LINE SMOOTH",
"347 430 OFFCURVE",
"375 468 OFFCURVE",
"424 452 CURVE",
"424 467 LINE",
"271 467 LINE",
"271 452 LINE",
"320 468 OFFCURVE",
"335 444 OFFCURVE",
"324 409 CURVE SMOOTH",
"217 85 LINE",
"175 197 OFFCURVE",
"112 384 OFFCURVE",
"95 428 CURVE SMOOTH",
"88 445 OFFCURVE",
"110 463 OFFCURVE",
"156 452 CURVE",
"156 467 LINE",
"-30 467 LINE",
"-30 452 LINE",
"-4 459 OFFCURVE",
"23 447 OFFCURVE",
"40 401 CURVE SMOOTH",
"86 275 OFFCURVE",
"177 51 OFFCURVE",
"190 1 CURVE",
"145 -134 LINE SMOOTH",
"136 -162 OFFCURVE",
"117 -195 OFFCURVE",
"87 -198 CURVE SMOOTH",
"48 -202 OFFCURVE",
"1 -159 OFFCURVE",
"1 -222 CURVE SMOOTH",
"1 -256 OFFCURVE",
"31 -269 OFFCURVE",
"69 -262 CURVE SMOOTH"
);
}
);
width = 374;
}
);
leftKerningGroup = v;
leftMetricsKey = "=v";
rightMetricsKey = "=v";
unicode = 0079;
},
{
glyphname = z;
lastChange = "2019-11-03 11:00:34 +0000";
layers = (
{
anchors = (
{
name = bottom;
position = "{177, 0}";
},
{
name = center;
position = "{177, 234}";
},
{
name = top;
position = "{156, 467}";
}
);
guideLines = (
{
angle = 180;
position = "{6, 467}";
},
{
angle = 90;
position = "{364, 460}";
}
);
layerId = "8BDB995E-2F86-4134-8150-9944A684F6E9";
paths = (
{
closed = 1;
nodes = (
"364 0 LINE",
"364 64 LINE",
"364 93 LINE",
"351 93 LINE",
"351 30 OFFCURVE",
"322 8 OFFCURVE",
"262 8 CURVE SMOOTH",
"84 8 OFFCURVE",
"78 0 OFFCURVE",
"121 86 CURVE SMOOTH",
"178 200 OFFCURVE",
"238 310 OFFCURVE",
"296 422 CURVE",
"308 448 OFFCURVE",
"328 459 OFFCURVE",
"354 452 CURVE",
"354 467 LINE",
"7 467 LINE",
"8 385 LINE",
"20 385 LINE",
"20 404 OFFCURVE",
"14 460 OFFCURVE",
"115 460 CURVE SMOOTH",
"254 460 OFFCURVE",
"247 448 OFFCURVE",
"208 376 CURVE SMOOTH",
"155 278 OFFCURVE",
"123 210 OFFCURVE",
"71 110 CURVE SMOOTH",
"55 79 OFFCURVE",
"31 6 OFFCURVE",
"-5 15 CURVE",
"-5 0 LINE"
);
}
);
width = 354;
}
);
leftKerningGroup = v;
leftMetricsKey = "=n-35";
rightMetricsKey = "=n-30";
unicode = 007A;
},
{
glyphname = T_h;
lastChange = "2019-10-13 00:25:46 +0000";
layers = (
{
guideLines = (
{
angle = 270;
position = "{515, 218}";
}
);
layerId = "8BDB995E-2F86-4134-8150-9944A684F6E9";
paths = (
{
closed = 1;
nodes = (
"597 0 LINE",
"597 15 LINE",
"548 -1 OFFCURVE",
"547 24 OFFCURVE",
"547 60 CURVE SMOOTH",
"547 386 LINE",
"532 386 LINE",
"531 800 LINE",
"510 800 LINE",
"507 760 OFFCURVE",
"473 740 OFFCURVE",
"425 740 CURVE SMOOTH",
"277 740 LINE",
"277 727 LINE",
"287 729 OFFCURVE",
"299 730 OFFCURVE",
"313 730 CURVE",
"468 730 LINE",
"475 730 OFFCURVE",
"477 727 OFFCURVE",
"477 722 CURVE",
"477 60 LINE SMOOTH",
"477 24 OFFCURVE",
"473 -1 OFFCURVE",
"424 15 CURVE",
"424 0 LINE"
);
},
{
closed = 1;
nodes = (
"359 0 LINE",
"359 25 LINE",
"310 9 OFFCURVE",
"284 24 OFFCURVE",
"284 60 CURVE",
"247 50 LINE",
"209 60 LINE",
"209 24 OFFCURVE",
"183 9 OFFCURVE",
"134 25 CURVE",
"134 0 LINE"
);
},
{
closed = 1;
nodes = (
"284 0 LINE",
"284 740 LINE",
"209 740 LINE",
"209 0 LINE"
);
},
{
closed = 1;
nodes = (
"-14 570 LINE",
"23 640 OFFCURVE",
"-30 730 OFFCURVE",
"181 730 CURVE SMOOTH",
"195 730 OFFCURVE",
"207 729 OFFCURVE",
"217 727 CURVE",
"217 740 LINE",
"-24 740 LINE",
"-22 740 LINE",
"-19 711 LINE SMOOTH",
"-15 677 OFFCURVE",
"-13 612 OFFCURVE",
"-30 570 CURVE"
);
},
{
closed = 1;
nodes = (
"888 0 LINE",
"888 15 LINE",
"839 -1 OFFCURVE",
"835 24 OFFCURVE",
"835 60 CURVE SMOOTH",
"835 328 LINE",
"835 429 OFFCURVE",
"748 488 OFFCURVE",
"674 488 CURVE SMOOTH",
"550 488 OFFCURVE",
"522 324 OFFCURVE",
"522 269 CURVE",
"547 269 LINE",
"547 339 OFFCURVE",
"569 475 OFFCURVE",
"665 475 CURVE SMOOTH",
"724 475 OFFCURVE",
"768 435 OFFCURVE",
"768 340 CURVE SMOOTH",
"768 60 LINE SMOOTH",
"768 24 OFFCURVE",
"767 -1 OFFCURVE",
"718 15 CURVE",
"718 0 LINE"
);
}
);
width = 908;
}
);
leftMetricsKey = T;
rightMetricsKey = h;
},
{
glyphname = c_t;
lastChange = "2019-10-12 21:55:21 +0000";
layers = (
{
layerId = "8BDB995E-2F86-4134-8150-9944A684F6E9";
paths = (
{
closed = 1;
nodes = (
"628 -10 OFFCURVE",
"667 67 OFFCURVE",
"667 120 CURVE",
"657 120 LINE",
"657 101 OFFCURVE",
"642 26 OFFCURVE",
"598 26 CURVE SMOOTH",
"575 26 OFFCURVE",
"566 48 OFFCURVE",
"566 101 CURVE SMOOTH",
"567 453 LINE",
"649 453 LINE",
"649 468 LINE",
"567 468 LINE",
"568 614 LINE SMOOTH",
"569 710 OFFCURVE",
"486 757 OFFCURVE",
"402 760 CURVE SMOOTH",
"300 764 OFFCURVE",
"220 721 OFFCURVE",
"194 652 CURVE SMOOTH",
"168 584 OFFCURVE",
"198 490 OFFCURVE",
"256 475 CURVE",
"256 485 LINE",
"209 507 OFFCURVE",
"225 616 OFFCURVE",
"237 644 CURVE SMOOTH",
"258 694 OFFCURVE",
"301 749 OFFCURVE",
"403 745 CURVE SMOOTH",
"483 742 OFFCURVE",
"547 701 OFFCURVE",
"547 614 CURVE SMOOTH",
"547 599 OFFCURVE",
"537 571 OFFCURVE",
"505 571 CURVE",
"505 468 LINE",
"439 468 LINE",
"439 453 LINE",
"505 453 LINE",
"505 150 LINE SMOOTH",
"505 76 OFFCURVE",
"495 -10 OFFCURVE",
"563 -10 CURVE SMOOTH"
);
},
{
closed = 1;
nodes = (
"324 -10 OFFCURVE",
"382 51 OFFCURVE",
"400 116 CURVE",
"378 116 LINE",
"365 61 OFFCURVE",
"322 9 OFFCURVE",
"250 9 CURVE SMOOTH",
"145 9 OFFCURVE",
"105 112 OFFCURVE",
"105 230 CURVE SMOOTH",
"105 394 OFFCURVE",
"159 475 OFFCURVE",
"240 475 CURVE SMOOTH",
"270 475 OFFCURVE",
"325 454 OFFCURVE",
"329 413 CURVE SMOOTH",
"333 374 OFFCURVE",
"290 327 OFFCURVE",
"353 327 CURVE SMOOTH",
"387 327 OFFCURVE",
"400 357 OFFCURVE",
"393 395 CURVE SMOOTH",
"383 450 OFFCURVE",
"303 487 OFFCURVE",
"230 487 CURVE SMOOTH",
"99 487 OFFCURVE",
"35 361 OFFCURVE",
"35 239 CURVE SMOOTH",
"35 116 OFFCURVE",
"92 -10 OFFCURVE",
"247 -10 CURVE SMOOTH"
);
}
);
width = 667;
}
);
rightMetricsKey = "=t";
},
{
glyphname = f_b;
lastChange = "2019-10-12 21:55:21 +0000";
layers = (
{
guideLines = (
{
angle = 270;
position = "{151, 305}";
},
{
angle = 270;
position = "{317, 305}";
}
);
layerId = "8BDB995E-2F86-4134-8150-9944A684F6E9";
paths = (
{
closed = 1;
nodes = (
"662 -10 OFFCURVE",
"703 120 OFFCURVE",
"703 258 CURVE SMOOTH",
"703 377 OFFCURVE",
"646 487 OFFCURVE",
"527 487 CURVE SMOOTH",
"459 487 OFFCURVE",
"414 441 OFFCURVE",
"388 386 CURVE",
"372 386 LINE",
"371 800 LINE",
"353 800 LINE",
"347 791 OFFCURVE",
"339 781 OFFCURVE",
"331 773 CURVE",
"303 792 OFFCURVE",
"267 804 OFFCURVE",
"247 804 CURVE SMOOTH",
"183 804 OFFCURVE",
"89 753 OFFCURVE",
"89 626 CURVE SMOOTH",
"89 468 LINE",
"20 468 LINE",
"20 453 LINE",
"89 453 LINE",
"89 60 LINE SMOOTH",
"89 24 OFFCURVE",
"85 -1 OFFCURVE",
"36 15 CURVE",
"36 0 LINE",
"201 0 LINE",
"201 15 LINE",
"152 -1 OFFCURVE",
"151 24 OFFCURVE",
"151 60 CURVE SMOOTH",
"151 626 LINE SMOOTH",
"151 753 OFFCURVE",
"187 795 OFFCURVE",
"240 795 CURVE SMOOTH",
"297 795 OFFCURVE",
"317 715 OFFCURVE",
"317 676 CURVE SMOOTH",
"317 0 LINE",
"353 0 LINE",
"376 73 LINE",
"394 73 LINE",
"418 24 OFFCURVE",
"459 -10 OFFCURVE",
"528 -10 CURVE SMOOTH"
);
},
{
closed = 1;
nodes = (
"404 8 OFFCURVE",
"384 129 OFFCURVE",
"384 242 CURVE SMOOTH",
"384 326 OFFCURVE",
"419 475 OFFCURVE",
"512 475 CURVE SMOOTH",
"601 475 OFFCURVE",
"633 359 OFFCURVE",
"633 243 CURVE SMOOTH",
"633 127 OFFCURVE",
"604 8 OFFCURVE",
"510 8 CURVE SMOOTH"
);
}
);
width = 743;
}
);
leftMetricsKey = f;
rightMetricsKey = b;
},
{
glyphname = f_f_b;
lastChange = "2019-10-12 21:55:21 +0000";
layers = (
{
layerId = "8BDB995E-2F86-4134-8150-9944A684F6E9";
paths = (
{
closed = 1;
nodes = (
"890 -10 OFFCURVE",
"931 120 OFFCURVE",
"931 258 CURVE SMOOTH",
"931 377 OFFCURVE",
"874 487 OFFCURVE",
"755 487 CURVE SMOOTH",
"687 487 OFFCURVE",
"642 441 OFFCURVE",
"616 386 CURVE",
"603 386 LINE",
"602 689 LINE",
"602 800 LINE",
"585 800 LINE",
"579 788 OFFCURVE",
"571 779 OFFCURVE",
"559 773 CURVE",
"531 792 OFFCURVE",
"495 804 OFFCURVE",
"475 804 CURVE SMOOTH",
"437 804 OFFCURVE",
"389 786 OFFCURVE",
"356 745 CURVE",
"351 753 LINE SMOOTH",
"333 782 OFFCURVE",
"291 804 OFFCURVE",
"247 804 CURVE SMOOTH",
"183 804 OFFCURVE",
"89 753 OFFCURVE",
"89 626 CURVE SMOOTH",
"89 468 LINE",
"20 468 LINE",
"20 453 LINE",
"89 453 LINE",
"89 60 LINE SMOOTH",
"89 24 OFFCURVE",
"85 -1 OFFCURVE",
"36 15 CURVE",
"36 0 LINE",
"201 0 LINE",
"201 15 LINE",
"152 -1 OFFCURVE",
"151 24 OFFCURVE",
"151 60 CURVE SMOOTH",
"151 453 LINE",
"317 453 LINE",
"317 60 LINE SMOOTH",
"317 24 OFFCURVE",
"313 -1 OFFCURVE",
"264 15 CURVE",
"264 0 LINE",
"429 0 LINE",
"429 15 LINE",
"380 -1 OFFCURVE",
"379 24 OFFCURVE",
"379 60 CURVE SMOOTH",
"379 453 LINE",
"458 453 LINE",
"458 468 LINE",
"379 468 LINE",
"379 626 LINE SMOOTH",
"379 753 OFFCURVE",
"415 795 OFFCURVE",
"468 795 CURVE SMOOTH",
"525 795 OFFCURVE",
"545 715 OFFCURVE",
"545 676 CURVE SMOOTH",
"545 0 LINE",
"581 0 LINE",
"604 73 LINE",
"622 73 LINE",
"646 24 OFFCURVE",
"687 -10 OFFCURVE",
"756 -10 CURVE SMOOTH"
);
},
{
closed = 1;
nodes = (
"151 626 LINE SMOOTH",
"151 753 OFFCURVE",
"187 795 OFFCURVE",
"240 795 CURVE SMOOTH",
"306 795 OFFCURVE",
"317 718 OFFCURVE",
"317 626 CURVE SMOOTH",
"317 468 LINE",
"151 468 LINE"
);
},
{
closed = 1;
nodes = (
"632 8 OFFCURVE",
"612 129 OFFCURVE",
"612 242 CURVE SMOOTH",
"612 326 OFFCURVE",
"647 475 OFFCURVE",
"740 475 CURVE SMOOTH",
"829 475 OFFCURVE",
"861 359 OFFCURVE",
"861 243 CURVE SMOOTH",
"861 127 OFFCURVE",
"832 8 OFFCURVE",
"738 8 CURVE SMOOTH"
);
}
);
width = 971;
}
);
leftMetricsKey = f;
rightMetricsKey = b;
},
{
glyphname = f_f_h;
lastChange = "2019-10-12 21:55:21 +0000";
layers = (
{
layerId = "8BDB995E-2F86-4134-8150-9944A684F6E9";
paths = (
{
closed = 1;
nodes = (
"201 0 LINE",
"201 15 LINE",
"152 -1 OFFCURVE",
"151 24 OFFCURVE",
"151 60 CURVE SMOOTH",
"151 453 LINE",
"317 453 LINE",
"317 60 LINE SMOOTH",
"317 24 OFFCURVE",
"313 -1 OFFCURVE",
"264 15 CURVE",
"264 0 LINE",
"429 0 LINE",
"429 15 LINE",
"380 -1 OFFCURVE",
"379 24 OFFCURVE",
"379 60 CURVE SMOOTH",
"379 453 LINE",
"458 453 LINE",
"458 468 LINE",
"379 468 LINE",
"379 626 LINE SMOOTH",
"379 753 OFFCURVE",
"415 795 OFFCURVE",
"468 795 CURVE SMOOTH",
"525 795 OFFCURVE",
"545 715 OFFCURVE",
"545 676 CURVE SMOOTH",
"545 60 LINE SMOOTH",
"545 24 OFFCURVE",
"541 -1 OFFCURVE",
"492 15 CURVE",
"492 0 LINE",
"665 0 LINE",
"665 15 LINE",
"616 -1 OFFCURVE",
"615 24 OFFCURVE",
"615 60 CURVE SMOOTH",
"615 269 LINE SMOOTH",
"615 339 OFFCURVE",
"637 475 OFFCURVE",
"733 475 CURVE SMOOTH",
"792 475 OFFCURVE",
"836 435 OFFCURVE",
"836 340 CURVE SMOOTH",
"836 60 LINE SMOOTH",
"836 24 OFFCURVE",
"835 -1 OFFCURVE",
"786 15 CURVE",
"786 0 LINE",
"956 0 LINE",
"956 15 LINE",
"907 -1 OFFCURVE",
"903 24 OFFCURVE",
"903 60 CURVE SMOOTH",
"903 328 LINE SMOOTH",
"903 429 OFFCURVE",
"816 488 OFFCURVE",
"742 488 CURVE SMOOTH",
"674 488 OFFCURVE",
"635 439 OFFCURVE",
"614 386 CURVE",
"603 386 LINE",
"602 678 LINE",
"602 800 LINE",
"585 800 LINE",
"579 788 OFFCURVE",
"571 779 OFFCURVE",
"559 773 CURVE",
"531 792 OFFCURVE",
"495 804 OFFCURVE",
"475 804 CURVE SMOOTH",
"437 804 OFFCURVE",
"389 786 OFFCURVE",
"356 745 CURVE",
"351 753 LINE SMOOTH",
"333 782 OFFCURVE",
"291 804 OFFCURVE",
"247 804 CURVE SMOOTH",
"183 804 OFFCURVE",
"89 753 OFFCURVE",
"89 626 CURVE SMOOTH",
"89 468 LINE",
"20 468 LINE",
"20 453 LINE",
"89 453 LINE",
"89 60 LINE SMOOTH",
"89 24 OFFCURVE",
"85 -1 OFFCURVE",
"36 15 CURVE",
"36 0 LINE"
);
},
{
closed = 1;
nodes = (
"151 626 LINE SMOOTH",
"151 753 OFFCURVE",
"187 795 OFFCURVE",
"240 795 CURVE SMOOTH",
"306 795 OFFCURVE",
"317 718 OFFCURVE",
"317 626 CURVE SMOOTH",
"317 468 LINE",
"151 468 LINE"
);
}
);
width = 976;
}
);
leftMetricsKey = f;
rightMetricsKey = h;
},
{
glyphname = f_f_i;
lastChange = "2019-10-12 21:55:21 +0000";
layers = (
{
layerId = "8BDB995E-2F86-4134-8150-9944A684F6E9";
paths = (
{
closed = 1;
nodes = (
"201 0 LINE",
"201 15 LINE",
"152 -1 OFFCURVE",
"151 24 OFFCURVE",
"151 60 CURVE SMOOTH",
"151 453 LINE",
"317 453 LINE",
"317 60 LINE SMOOTH",
"317 32 OFFCURVE",
"315 10 OFFCURVE",
"290 10 CURVE SMOOTH",
"283 10 OFFCURVE",
"275 15 OFFCURVE",
"265 15 CURVE SMOOTH",
"264 15 LINE",
"264 0 LINE",
"430 0 LINE",
"430 15 LINE",
"429 15 LINE",
"419 12 OFFCURVE",
"411 10 OFFCURVE",
"404 10 CURVE SMOOTH",
"381 10 OFFCURVE",
"380 32 OFFCURVE",
"380 60 CURVE SMOOTH",
"380 453 LINE",
"545 453 LINE",
"545 60 LINE SMOOTH",
"545 24 OFFCURVE",
"541 -1 OFFCURVE",
"492 15 CURVE",
"492 0 LINE",
"657 0 LINE",
"657 15 LINE",
"608 -1 OFFCURVE",
"607 24 OFFCURVE",
"607 60 CURVE SMOOTH",
"607 468 LINE",
"380 468 LINE",
"380 626 LINE SMOOTH",
"380 753 OFFCURVE",
"416 795 OFFCURVE",
"469 795 CURVE SMOOTH",
"556 795 OFFCURVE",
"554 717 OFFCURVE",
"536 662 CURVE SMOOTH",
"518 608 OFFCURVE",
"541 548 OFFCURVE",
"617 548 CURVE",
"617 558 LINE",
"556 558 OFFCURVE",
"589 635 OFFCURVE",
"599 678 CURVE SMOOTH",
"616 752 OFFCURVE",
"555 809 OFFCURVE",
"476 804 CURVE SMOOTH",
"426 801 OFFCURVE",
"388 784 OFFCURVE",
"356 745 CURVE",
"351 753 LINE SMOOTH",
"333 782 OFFCURVE",
"291 804 OFFCURVE",
"247 804 CURVE SMOOTH",
"183 804 OFFCURVE",
"89 753 OFFCURVE",
"89 626 CURVE SMOOTH",
"89 468 LINE",
"20 468 LINE",
"20 453 LINE",
"89 453 LINE",
"89 60 LINE SMOOTH",
"89 24 OFFCURVE",
"85 -1 OFFCURVE",
"36 15 CURVE",
"36 0 LINE"
);
},
{
closed = 1;
nodes = (
"151 626 LINE SMOOTH",
"151 753 OFFCURVE",
"187 795 OFFCURVE",
"240 795 CURVE SMOOTH",
"306 795 OFFCURVE",
"317 718 OFFCURVE",
"317 626 CURVE SMOOTH",
"317 468 LINE",
"151 468 LINE"
);
}
);
width = 687;
}
);
leftMetricsKey = f;
rightMetricsKey = i;
},
{
glyphname = f_f_j;
lastChange = "2019-10-12 21:55:21 +0000";
layers = (
{
layerId = "8BDB995E-2F86-4134-8150-9944A684F6E9";
paths = (
{
closed = 1;
nodes = (
"541 -265 OFFCURVE",
"608 -226 OFFCURVE",
"608 -133 CURVE SMOOTH",
"608 468 LINE",
"380 468 LINE",
"380 626 LINE SMOOTH",
"380 753 OFFCURVE",
"416 795 OFFCURVE",
"469 795 CURVE SMOOTH",
"556 795 OFFCURVE",
"554 717 OFFCURVE",
"536 662 CURVE SMOOTH",
"518 608 OFFCURVE",
"541 548 OFFCURVE",
"617 548 CURVE",
"617 558 LINE",
"556 558 OFFCURVE",
"589 635 OFFCURVE",
"599 678 CURVE SMOOTH",
"616 752 OFFCURVE",
"555 804 OFFCURVE",
"476 804 CURVE SMOOTH",
"426 801 OFFCURVE",
"388 784 OFFCURVE",
"356 745 CURVE",
"351 753 LINE SMOOTH",
"333 782 OFFCURVE",
"291 804 OFFCURVE",
"247 804 CURVE SMOOTH",
"183 804 OFFCURVE",
"89 753 OFFCURVE",
"89 626 CURVE SMOOTH",
"89 468 LINE",
"20 468 LINE",
"20 453 LINE",
"89 453 LINE",
"89 60 LINE SMOOTH",
"89 24 OFFCURVE",
"85 -1 OFFCURVE",
"36 15 CURVE",
"36 0 LINE",
"201 0 LINE",
"201 15 LINE",
"152 -1 OFFCURVE",
"151 24 OFFCURVE",
"151 60 CURVE SMOOTH",
"151 453 LINE",
"317 453 LINE",
"317 60 LINE SMOOTH",
"317 32 OFFCURVE",
"315 10 OFFCURVE",
"290 10 CURVE SMOOTH",
"283 10 OFFCURVE",
"275 12 OFFCURVE",
"265 15 CURVE SMOOTH",
"264 15 LINE",
"264 0 LINE",
"430 0 LINE",
"430 15 LINE",
"429 15 LINE",
"419 12 OFFCURVE",
"411 10 OFFCURVE",
"404 10 CURVE SMOOTH",
"381 10 OFFCURVE",
"380 32 OFFCURVE",
"380 60 CURVE SMOOTH",
"380 453 LINE",
"546 453 LINE",
"546 -133 LINE SMOOTH",
"546 -226 OFFCURVE",
"528 -254 OFFCURVE",
"493 -254 CURVE SMOOTH",
"439 -254 OFFCURVE",
"482 -182 OFFCURVE",
"482 -138 CURVE SMOOTH",
"482 -88 OFFCURVE",
"428 -67 OFFCURVE",
"394 -67 CURVE",
"394 -79 LINE",
"486 -79 OFFCURVE",
"407 -142 OFFCURVE",
"407 -186 CURVE SMOOTH",
"407 -229 OFFCURVE",
"438 -265 OFFCURVE",
"482 -265 CURVE SMOOTH"
);
},
{
closed = 1;
nodes = (
"151 626 LINE SMOOTH",
"151 753 OFFCURVE",
"187 795 OFFCURVE",
"240 795 CURVE SMOOTH",
"306 795 OFFCURVE",
"317 718 OFFCURVE",
"317 626 CURVE SMOOTH",
"317 468 LINE",
"151 468 LINE"
);
}
);
width = 682;
}
);
leftMetricsKey = f;
rightMetricsKey = j;
},
{
glyphname = f_f_k;
lastChange = "2019-10-12 21:55:21 +0000";
layers = (
{
layerId = "8BDB995E-2F86-4134-8150-9944A684F6E9";
paths = (
{
closed = 1;
nodes = (
"201 0 LINE",
"201 15 LINE",
"152 -1 OFFCURVE",
"151 24 OFFCURVE",
"151 60 CURVE SMOOTH",
"151 453 LINE",
"317 453 LINE",
"317 60 LINE SMOOTH",
"317 24 OFFCURVE",
"313 -1 OFFCURVE",
"264 15 CURVE",
"264 0 LINE",
"429 0 LINE",
"429 15 LINE",
"380 -1 OFFCURVE",
"379 24 OFFCURVE",
"379 60 CURVE SMOOTH",
"379 453 LINE",
"458 453 LINE",
"458 468 LINE",
"379 468 LINE",
"379 626 LINE SMOOTH",
"379 753 OFFCURVE",
"415 795 OFFCURVE",
"468 795 CURVE SMOOTH",
"525 795 OFFCURVE",
"545 715 OFFCURVE",
"545 676 CURVE SMOOTH",
"545 672 LINE",
"602 672 LINE",
"602 800 LINE",
"585 800 LINE",
"579 788 OFFCURVE",
"571 779 OFFCURVE",
"559 773 CURVE",
"531 792 OFFCURVE",
"495 804 OFFCURVE",
"475 804 CURVE SMOOTH",
"437 804 OFFCURVE",
"389 786 OFFCURVE",
"356 745 CURVE",
"351 753 LINE SMOOTH",
"332 782 OFFCURVE",
"291 804 OFFCURVE",
"247 804 CURVE SMOOTH",
"183 804 OFFCURVE",
"89 753 OFFCURVE",
"89 626 CURVE SMOOTH",
"89 468 LINE",
"20 468 LINE",
"20 453 LINE",
"89 453 LINE",
"89 60 LINE SMOOTH",
"89 24 OFFCURVE",
"85 -1 OFFCURVE",
"36 15 CURVE",
"36 0 LINE"
);
},
{
closed = 1;
nodes = (
"151 626 LINE SMOOTH",
"151 753 OFFCURVE",
"187 795 OFFCURVE",
"240 795 CURVE SMOOTH",
"306 795 OFFCURVE",
"317 718 OFFCURVE",
"317 626 CURVE SMOOTH",
"317 468 LINE",
"151 468 LINE"
);
},
{
closed = 1;
nodes = (
"652 0 LINE",
"652 15 LINE",
"603 -1 OFFCURVE",
"602 24 OFFCURVE",
"602 60 CURVE SMOOTH",
"602 255 LINE",
"641 292 LINE",
"703 201 OFFCURVE",
"749 136 OFFCURVE",
"809 46 CURVE SMOOTH",
"821 28 OFFCURVE",
"809 3 OFFCURVE",
"760 15 CURVE",
"760 0 LINE",
"959 0 LINE",
"959 15 LINE",
"912 3 OFFCURVE",
"891 31 OFFCURVE",
"832 121 CURVE SMOOTH",
"690 336 LINE",
"714 358 OFFCURVE",
"739 381 OFFCURVE",
"766 408 CURVE SMOOTH",
"799 441 OFFCURVE",
"830 468 OFFCURVE",
"879 452 CURVE",
"879 467 LINE",
"709 467 LINE",
"709 452 LINE",
"758 468 OFFCURVE",
"784 443 OFFCURVE",
"751 411 CURVE SMOOTH",
"699 360 OFFCURVE",
"651 320 OFFCURVE",
"602 273 CURVE",
"602 770 LINE",
"545 770 LINE",
"545 60 LINE SMOOTH",
"545 24 OFFCURVE",
"541 -1 OFFCURVE",
"492 15 CURVE",
"492 0 LINE"
);
}
);
width = 899;
}
);
leftMetricsKey = f;
rightMetricsKey = k;
},
{
glyphname = f_f_l;
lastChange = "2019-10-12 21:55:21 +0000";
layers = (
{
layerId = "8BDB995E-2F86-4134-8150-9944A684F6E9";
paths = (
{
closed = 1;
nodes = (
"201 0 LINE",
"201 15 LINE",
"152 -1 OFFCURVE",
"151 24 OFFCURVE",
"151 60 CURVE SMOOTH",
"151 453 LINE",
"317 453 LINE",
"317 60 LINE SMOOTH",
"317 24 OFFCURVE",
"313 -1 OFFCURVE",
"264 15 CURVE",
"264 0 LINE",
"429 0 LINE",
"429 15 LINE",
"380 -1 OFFCURVE",
"379 24 OFFCURVE",
"379 60 CURVE SMOOTH",
"379 453 LINE",
"458 453 LINE",
"458 468 LINE",
"379 468 LINE",
"379 626 LINE SMOOTH",
"379 753 OFFCURVE",
"415 795 OFFCURVE",
"468 795 CURVE SMOOTH",
"525 795 OFFCURVE",
"545 715 OFFCURVE",
"545 676 CURVE SMOOTH",
"545 60 LINE SMOOTH",
"545 24 OFFCURVE",
"541 -1 OFFCURVE",
"492 15 CURVE",
"492 0 LINE",
"657 0 LINE",
"657 15 LINE",
"608 -1 OFFCURVE",
"607 24 OFFCURVE",
"607 60 CURVE SMOOTH",
"608 800 LINE",
"585 800 LINE",
"579 788 OFFCURVE",
"571 779 OFFCURVE",
"559 773 CURVE",
"531 792 OFFCURVE",
"495 804 OFFCURVE",
"475 804 CURVE SMOOTH",
"437 804 OFFCURVE",
"389 786 OFFCURVE",
"356 745 CURVE",
"351 753 LINE SMOOTH",
"332 782 OFFCURVE",
"291 804 OFFCURVE",
"247 804 CURVE SMOOTH",
"183 804 OFFCURVE",
"89 753 OFFCURVE",
"89 626 CURVE SMOOTH",
"89 468 LINE",
"20 468 LINE",
"20 453 LINE",
"89 453 LINE",
"89 60 LINE SMOOTH",
"89 24 OFFCURVE",
"85 -1 OFFCURVE",
"36 15 CURVE",
"36 0 LINE"
);
},
{
closed = 1;
nodes = (
"151 626 LINE SMOOTH",
"151 753 OFFCURVE",
"187 795 OFFCURVE",
"240 795 CURVE SMOOTH",
"306 795 OFFCURVE",
"317 718 OFFCURVE",
"317 626 CURVE SMOOTH",
"317 468 LINE",
"151 468 LINE"
);
}
);
width = 697;
}
);
leftMetricsKey = f;
rightMetricsKey = l;
},
{
glyphname = f_h;
lastChange = "2019-10-12 21:55:21 +0000";
layers = (
{
layerId = "8BDB995E-2F86-4134-8150-9944A684F6E9";
paths = (
{
closed = 1;
nodes = (
"201 0 LINE",
"201 15 LINE",
"152 -1 OFFCURVE",
"151 24 OFFCURVE",
"151 60 CURVE SMOOTH",
"151 626 LINE SMOOTH",
"151 753 OFFCURVE",
"187 795 OFFCURVE",
"240 795 CURVE SMOOTH",
"297 795 OFFCURVE",
"317 715 OFFCURVE",
"317 676 CURVE SMOOTH",
"317 60 LINE SMOOTH",
"317 24 OFFCURVE",
"313 -1 OFFCURVE",
"264 15 CURVE",
"264 0 LINE",
"437 0 LINE",
"437 15 LINE",
"388 -1 OFFCURVE",
"387 24 OFFCURVE",
"387 60 CURVE SMOOTH",
"387 269 LINE SMOOTH",
"387 339 OFFCURVE",
"409 475 OFFCURVE",
"505 475 CURVE SMOOTH",
"564 475 OFFCURVE",
"608 435 OFFCURVE",
"608 340 CURVE SMOOTH",
"608 60 LINE SMOOTH",
"608 24 OFFCURVE",
"607 -1 OFFCURVE",
"558 15 CURVE",
"558 0 LINE",
"728 0 LINE",
"728 15 LINE",
"679 -1 OFFCURVE",
"675 24 OFFCURVE",
"675 60 CURVE SMOOTH",
"675 328 LINE SMOOTH",
"675 429 OFFCURVE",
"588 488 OFFCURVE",
"514 488 CURVE SMOOTH",
"446 488 OFFCURVE",
"407 439 OFFCURVE",
"386 386 CURVE",
"372 386 LINE",
"371 800 LINE",
"353 800 LINE",
"347 791 OFFCURVE",
"339 781 OFFCURVE",
"331 773 CURVE",
"303 792 OFFCURVE",
"267 804 OFFCURVE",
"247 804 CURVE SMOOTH",
"183 804 OFFCURVE",
"89 753 OFFCURVE",
"89 626 CURVE SMOOTH",
"89 468 LINE",
"20 468 LINE",
"20 453 LINE",
"89 453 LINE",
"89 60 LINE SMOOTH",
"89 24 OFFCURVE",
"85 -1 OFFCURVE",
"36 15 CURVE",
"36 0 LINE"
);
}
);
width = 748;
}
);
leftMetricsKey = f;
rightMetricsKey = h;
},
{
glyphname = f_i;
lastChange = "2019-10-12 21:55:21 +0000";
layers = (
{
layerId = "8BDB995E-2F86-4134-8150-9944A684F6E9";
paths = (
{
closed = 1;
nodes = (
"201 0 LINE",
"201 15 LINE",
"152 -1 OFFCURVE",
"151 24 OFFCURVE",
"151 60 CURVE SMOOTH",
"151 453 LINE",
"317 453 LINE",
"317 60 LINE SMOOTH",
"317 24 OFFCURVE",
"313 -1 OFFCURVE",
"264 15 CURVE",
"264 0 LINE",
"429 0 LINE",
"429 15 LINE",
"380 -1 OFFCURVE",
"379 24 OFFCURVE",
"379 60 CURVE SMOOTH",
"379 468 LINE",
"151 468 LINE",
"151 626 LINE SMOOTH",
"151 753 OFFCURVE",
"187 795 OFFCURVE",
"240 795 CURVE SMOOTH",
"327 795 OFFCURVE",
"325 717 OFFCURVE",
"307 662 CURVE SMOOTH",
"289 608 OFFCURVE",
"312 548 OFFCURVE",
"388 548 CURVE",
"388 558 LINE",
"327 558 OFFCURVE",
"360 635 OFFCURVE",
"370 678 CURVE SMOOTH",
"387 752 OFFCURVE",
"326 804 OFFCURVE",
"247 804 CURVE SMOOTH",
"183 804 OFFCURVE",
"89 753 OFFCURVE",
"89 626 CURVE SMOOTH",
"89 468 LINE",
"20 468 LINE",
"20 453 LINE",
"89 453 LINE",
"89 60 LINE SMOOTH",
"89 24 OFFCURVE",
"85 -1 OFFCURVE",
"36 15 CURVE",
"36 0 LINE"
);
}
);
width = 459;
}
);
leftMetricsKey = "=f";
rightMetricsKey = "=i";
},
{
glyphname = f_j;
lastChange = "2019-10-12 21:55:21 +0000";
layers = (
{
layerId = "8BDB995E-2F86-4134-8150-9944A684F6E9";
paths = (
{
closed = 1;
nodes = (
"312 -265 OFFCURVE",
"379 -226 OFFCURVE",
"379 -133 CURVE SMOOTH",
"379 468 LINE",
"151 468 LINE",
"151 626 LINE SMOOTH",
"151 753 OFFCURVE",
"187 795 OFFCURVE",
"240 795 CURVE SMOOTH",
"327 795 OFFCURVE",
"325 717 OFFCURVE",
"307 662 CURVE SMOOTH",
"289 608 OFFCURVE",
"312 548 OFFCURVE",
"388 548 CURVE",
"388 558 LINE",
"327 558 OFFCURVE",
"360 635 OFFCURVE",
"370 678 CURVE SMOOTH",
"387 752 OFFCURVE",
"326 804 OFFCURVE",
"247 804 CURVE SMOOTH",
"183 804 OFFCURVE",
"89 753 OFFCURVE",
"89 626 CURVE SMOOTH",
"89 468 LINE",
"20 468 LINE",
"20 453 LINE",
"89 453 LINE",
"89 60 LINE SMOOTH",
"89 24 OFFCURVE",
"85 -1 OFFCURVE",
"36 15 CURVE",
"36 0 LINE",
"201 0 LINE",
"201 15 LINE",
"152 -1 OFFCURVE",
"151 24 OFFCURVE",
"151 60 CURVE SMOOTH",
"151 453 LINE",
"317 453 LINE",
"317 -133 LINE SMOOTH",
"317 -226 OFFCURVE",
"299 -254 OFFCURVE",
"264 -254 CURVE SMOOTH",
"210 -254 OFFCURVE",
"253 -182 OFFCURVE",
"253 -138 CURVE SMOOTH",
"253 -88 OFFCURVE",
"199 -67 OFFCURVE",
"165 -67 CURVE",
"165 -79 LINE",
"257 -79 OFFCURVE",
"178 -142 OFFCURVE",
"178 -186 CURVE SMOOTH",
"178 -229 OFFCURVE",
"209 -265 OFFCURVE",
"253 -265 CURVE SMOOTH"
);
}
);
width = 453;
}
);
leftMetricsKey = "=f";
rightMetricsKey = "=j";
},
{
glyphname = f_k;
lastChange = "2019-10-12 21:55:21 +0000";
layers = (
{
guideLines = (
{
angle = 270;
position = "{151, 305}";
}
);
layerId = "8BDB995E-2F86-4134-8150-9944A684F6E9";
paths = (
{
closed = 1;
nodes = (
"201 0 LINE",
"201 15 LINE",
"152 -1 OFFCURVE",
"151 24 OFFCURVE",
"151 60 CURVE SMOOTH",
"151 626 LINE SMOOTH",
"151 753 OFFCURVE",
"187 795 OFFCURVE",
"240 795 CURVE SMOOTH",
"297 795 OFFCURVE",
"317 715 OFFCURVE",
"317 676 CURVE SMOOTH",
"317 60 LINE SMOOTH",
"317 24 OFFCURVE",
"313 -1 OFFCURVE",
"264 15 CURVE",
"264 0 LINE",
"424 0 LINE",
"424 15 LINE",
"375 -1 OFFCURVE",
"374 24 OFFCURVE",
"374 60 CURVE SMOOTH",
"374 255 LINE",
"413 292 LINE",
"475 201 OFFCURVE",
"521 136 OFFCURVE",
"581 46 CURVE SMOOTH",
"593 28 OFFCURVE",
"581 3 OFFCURVE",
"532 15 CURVE",
"532 0 LINE",
"731 0 LINE",
"731 15 LINE",
"684 3 OFFCURVE",
"663 31 OFFCURVE",
"604 121 CURVE SMOOTH",
"462 336 LINE",
"486 358 OFFCURVE",
"511 381 OFFCURVE",
"538 408 CURVE SMOOTH",
"571 441 OFFCURVE",
"602 468 OFFCURVE",
"651 452 CURVE",
"651 467 LINE",
"481 467 LINE",
"481 452 LINE",
"530 468 OFFCURVE",
"556 443 OFFCURVE",
"523 411 CURVE SMOOTH",
"471 360 OFFCURVE",
"423 320 OFFCURVE",
"374 273 CURVE",
"374 800 LINE",
"353 800 LINE",
"347 791 OFFCURVE",
"339 781 OFFCURVE",
"331 773 CURVE",
"303 792 OFFCURVE",
"267 804 OFFCURVE",
"247 804 CURVE SMOOTH",
"183 804 OFFCURVE",
"89 753 OFFCURVE",
"89 626 CURVE SMOOTH",
"89 468 LINE",
"20 468 LINE",
"20 453 LINE",
"89 453 LINE",
"89 60 LINE SMOOTH",
"89 24 OFFCURVE",
"85 -1 OFFCURVE",
"36 15 CURVE",
"36 0 LINE"
);
}
);
width = 671;
}
);
leftMetricsKey = f;
rightMetricsKey = k;
},
{
glyphname = f_l;
lastChange = "2019-10-12 21:55:21 +0000";
layers = (
{
guideLines = (
{
angle = 270;
position = "{151, 305}";
}
);
layerId = "8BDB995E-2F86-4134-8150-9944A684F6E9";
paths = (
{
closed = 1;
nodes = (
"201 0 LINE",
"201 15 LINE",
"152 -1 OFFCURVE",
"151 24 OFFCURVE",
"151 60 CURVE SMOOTH",
"151 626 LINE SMOOTH",
"151 753 OFFCURVE",
"187 795 OFFCURVE",
"240 795 CURVE SMOOTH",
"297 795 OFFCURVE",
"317 715 OFFCURVE",
"317 676 CURVE SMOOTH",
"317 60 LINE SMOOTH",
"317 24 OFFCURVE",
"313 -1 OFFCURVE",
"264 15 CURVE",
"264 0 LINE",
"429 0 LINE",
"429 15 LINE",
"380 -1 OFFCURVE",
"379 24 OFFCURVE",
"379 60 CURVE SMOOTH",
"380 800 LINE",
"357 800 LINE",
"351 788 OFFCURVE",
"343 779 OFFCURVE",
"331 773 CURVE",
"303 792 OFFCURVE",
"267 804 OFFCURVE",
"247 804 CURVE SMOOTH",
"183 804 OFFCURVE",
"89 753 OFFCURVE",
"89 626 CURVE SMOOTH",
"89 468 LINE",
"20 468 LINE",
"20 453 LINE",
"89 453 LINE",
"89 60 LINE SMOOTH",
"89 24 OFFCURVE",
"85 -1 OFFCURVE",
"36 15 CURVE",
"36 0 LINE"
);
}
);
width = 469;
}
);
leftMetricsKey = f;
rightMetricsKey = l;
},
{
glyphname = f_t;
lastChange = "2019-10-12 21:55:21 +0000";
layers = (
{
guideLines = (
{
angle = 270;
position = "{151, 305}";
},
{
angle = 270;
position = "{336, 305}";
}
);
layerId = "8BDB995E-2F86-4134-8150-9944A684F6E9";
paths = (
{
closed = 1;
nodes = (
"447 -10 OFFCURVE",
"486 67 OFFCURVE",
"486 120 CURVE",
"476 120 LINE",
"476 101 OFFCURVE",
"461 26 OFFCURVE",
"417 26 CURVE SMOOTH",
"394 26 OFFCURVE",
"385 48 OFFCURVE",
"385 101 CURVE SMOOTH",
"386 453 LINE",
"468 453 LINE",
"468 468 LINE",
"386 468 LINE",
"387 618 LINE",
"366 618 LINE",
"366 603 OFFCURVE",
"356 577 OFFCURVE",
"324 577 CURVE SMOOTH",
"257 577 OFFCURVE",
"306 672 OFFCURVE",
"306 716 CURVE SMOOTH",
"306 774 OFFCURVE",
"268 804 OFFCURVE",
"208 804 CURVE SMOOTH",
"167 804 OFFCURVE",
"89 770 OFFCURVE",
"89 643 CURVE SMOOTH",
"89 468 LINE",
"20 468 LINE",
"20 453 LINE",
"89 453 LINE",
"89 60 LINE SMOOTH",
"89 24 OFFCURVE",
"85 -1 OFFCURVE",
"36 15 CURVE",
"36 0 LINE",
"201 0 LINE",
"201 15 LINE",
"152 -1 OFFCURVE",
"151 24 OFFCURVE",
"151 60 CURVE SMOOTH",
"151 453 LINE",
"324 453 LINE",
"324 150 LINE SMOOTH",
"325 76 OFFCURVE",
"314 -10 OFFCURVE",
"382 -10 CURVE SMOOTH"
);
},
{
closed = 1;
nodes = (
"151 643 LINE SMOOTH",
"151 770 OFFCURVE",
"171 795 OFFCURVE",
"201 795 CURVE SMOOTH",
"268 795 OFFCURVE",
"239 715 OFFCURVE",
"239 676 CURVE SMOOTH",
"239 619 OFFCURVE",
"273 567 OFFCURVE",
"324 567 CURVE",
"324 468 LINE",
"151 468 LINE"
);
}
);
width = 486;
}
);
leftMetricsKey = f;
rightMetricsKey = t;
},
{
glyphname = s_t;
lastChange = "2019-10-12 21:55:21 +0000";
layers = (
{
guideLines = (
{
position = "{500, 760}";
}
);
layerId = "8BDB995E-2F86-4134-8150-9944A684F6E9";
paths = (
{
closed = 1;
nodes = (
"561 -10 OFFCURVE",
"600 67 OFFCURVE",
"600 120 CURVE",
"590 120 LINE",
"590 101 OFFCURVE",
"575 26 OFFCURVE",
"531 26 CURVE SMOOTH",
"508 26 OFFCURVE",
"499 48 OFFCURVE",
"499 101 CURVE SMOOTH",
"500 453 LINE",
"582 453 LINE",
"582 468 LINE",
"500 468 LINE",
"501 612 LINE SMOOTH",
"502 706 OFFCURVE",
"419 760 OFFCURVE",
"341 760 CURVE SMOOTH",
"245 760 OFFCURVE",
"173 722 OFFCURVE",
"147 652 CURVE SMOOTH",
"121 584 OFFCURVE",
"151 487 OFFCURVE",
"209 472 CURVE",
"209 482 LINE",
"162 504 OFFCURVE",
"178 616 OFFCURVE",
"190 644 CURVE SMOOTH",
"211 694 OFFCURVE",
"244 745 OFFCURVE",
"341 745 CURVE SMOOTH",
"405 745 OFFCURVE",
"480 712 OFFCURVE",
"480 618 CURVE SMOOTH",
"480 603 OFFCURVE",
"470 575 OFFCURVE",
"438 575 CURVE",
"438 468 LINE",
"372 468 LINE",
"372 453 LINE",
"438 453 LINE",
"438 150 LINE SMOOTH",
"438 76 OFFCURVE",
"428 -10 OFFCURVE",
"496 -10 CURVE SMOOTH"
);
},
{
closed = 1;
nodes = (
"275 -10 OFFCURVE",
"332 67 OFFCURVE",
"332 133 CURVE SMOOTH",
"332 301 OFFCURVE",
"105 270 OFFCURVE",
"105 381 CURVE SMOOTH",
"105 442 OFFCURVE",
"133 475 OFFCURVE",
"186 475 CURVE SMOOTH",
"248 475 OFFCURVE",
"284 411 OFFCURVE",
"284 356 CURVE",
"299 356 LINE",
"299 487 LINE",
"286 487 LINE",
"279 436 LINE",
"273 460 OFFCURVE",
"223 487 OFFCURVE",
"176 487 CURVE SMOOTH",
"101 487 OFFCURVE",
"40 443 OFFCURVE",
"40 359 CURVE SMOOTH",
"40 232 OFFCURVE",
"265 251 OFFCURVE",
"265 126 CURVE SMOOTH",
"265 64 OFFCURVE",
"239 5 OFFCURVE",
"172 5 CURVE SMOOTH",
"97 5 OFFCURVE",
"59 64 OFFCURVE",
"59 179 CURVE",
"41 179 LINE",
"41 0 LINE",
"54 0 LINE",
"63 54 LINE",
"89 16 OFFCURVE",
"129 -10 OFFCURVE",
"190 -10 CURVE SMOOTH"
);
}
);
width = 600;
}
);
leftMetricsKey = "=s";
rightMetricsKey = "=t";
},
{
glyphname = t_t;
lastChange = "2019-10-12 21:55:21 +0000";
layers = (
{
layerId = "8BDB995E-2F86-4134-8150-9944A684F6E9";
paths = (
{
closed = 1;
nodes = (
"199 -10 OFFCURVE",
"238 67 OFFCURVE",
"238 120 CURVE",
"228 120 LINE",
"228 101 OFFCURVE",
"213 26 OFFCURVE",
"169 26 CURVE SMOOTH",
"146 26 OFFCURVE",
"137 48 OFFCURVE",
"137 101 CURVE SMOOTH",
"138 453 LINE",
"314 453 LINE",
"314 150 LINE SMOOTH",
"315 76 OFFCURVE",
"304 -10 OFFCURVE",
"372 -10 CURVE SMOOTH",
"437 -10 OFFCURVE",
"476 67 OFFCURVE",
"476 120 CURVE",
"466 120 LINE",
"466 101 OFFCURVE",
"451 26 OFFCURVE",
"407 26 CURVE SMOOTH",
"384 26 OFFCURVE",
"375 48 OFFCURVE",
"375 101 CURVE SMOOTH",
"376 453 LINE",
"458 453 LINE",
"458 468 LINE",
"376 468 LINE",
"377 618 LINE",
"356 618 LINE",
"356 603 OFFCURVE",
"346 575 OFFCURVE",
"314 575 CURVE",
"314 468 LINE",
"138 468 LINE",
"139 618 LINE",
"118 618 LINE",
"118 603 OFFCURVE",
"108 575 OFFCURVE",
"76 575 CURVE",
"76 468 LINE",
"10 468 LINE",
"10 453 LINE",
"76 453 LINE",
"76 150 LINE SMOOTH",
"77 76 OFFCURVE",
"66 -10 OFFCURVE",
"134 -10 CURVE SMOOTH"
);
}
);
width = 476;
}
);
leftMetricsKey = t;
rightMetricsKey = t;
},
{
glyphname = ordfeminine;
lastChange = "2019-10-12 21:55:21 +0000";
layers = (
{
anchors = (
{
name = bottom;
position = "{146, 0}";
},
{
name = ogonek;
position = "{372, -34}";
},
{
name = top;
position = "{220, 467}";
}
);
layerId = "8BDB995E-2F86-4134-8150-9944A684F6E9";
paths = (
{
closed = 1;
nodes = (
"239 428 OFFCURVE",
"242 523 OFFCURVE",
"242 529 CURVE",
"242 482 OFFCURVE",
"242 428 OFFCURVE",
"290 428 CURVE SMOOTH",
"317 428 OFFCURVE",
"347 443 OFFCURVE",
"347 476 CURVE",
"340 476 LINE",
"340 464 OFFCURVE",
"329 451 OFFCURVE",
"319 451 CURVE SMOOTH",
"295 451 OFFCURVE",
"295 485 OFFCURVE",
"295 498 CURVE SMOOTH",
"295 634 LINE SMOOTH",
"295 674 OFFCURVE",
"278 741 OFFCURVE",
"178 741 CURVE SMOOTH",
"114 741 OFFCURVE",
"61 690 OFFCURVE",
"61 645 CURVE",
"155 645 LINE",
"155 662 LINE",
"148 662 LINE",
"148 657 OFFCURVE",
"146 652 OFFCURVE",
"135 652 CURVE SMOOTH",
"115 652 OFFCURVE",
"119 657 OFFCURVE",
"119 667 CURVE SMOOTH",
"119 705 OFFCURVE",
"131 733 OFFCURVE",
"166 733 CURVE SMOOTH",
"239 733 OFFCURVE",
"242 679 OFFCURVE",
"242 627 CURVE",
"235 606 OFFCURVE",
"182 603 OFFCURVE",
"124 589 CURVE SMOOTH",
"92 581 OFFCURVE",
"48 554 OFFCURVE",
"48 512 CURVE SMOOTH",
"48 455 OFFCURVE",
"97 428 OFFCURVE",
"142 428 CURVE SMOOTH"
);
},
{
closed = 1;
nodes = (
"117 446 OFFCURVE",
"103 482 OFFCURVE",
"103 515 CURVE SMOOTH",
"103 546 OFFCURVE",
"114 567 OFFCURVE",
"156 582 CURVE SMOOTH",
"212 602 OFFCURVE",
"241 602 OFFCURVE",
"241 607 CURVE",
"241 559 LINE SMOOTH",
"241 529 OFFCURVE",
"216 446 OFFCURVE",
"159 446 CURVE SMOOTH"
);
}
);
width = 377;
}
);
unicode = 00AA;
},
{
glyphname = ordmasculine;
lastChange = "2019-10-12 21:46:29 +0000";
layers = (
{
anchors = (
{
name = bottom;
position = "{235, 0}";
},
{
name = center;
position = "{236, 239}";
},
{
name = ogonek;
position = "{263, 2}";
},
{
name = top;
position = "{235, 467}";
},
{
name = topright;
position = "{396, 431}";
}
);
guideLines = (
{
position = "{-101, 428}";
}
);
layerId = "8BDB995E-2F86-4134-8150-9944A684F6E9";
paths = (
{
closed = 1;
nodes = (
"257 428 OFFCURVE",
"289 498 OFFCURVE",
"289 585 CURVE SMOOTH",
"289 661 OFFCURVE",
"257 740 OFFCURVE",
"159 740 CURVE SMOOTH",
"61 740 OFFCURVE",
"30 661 OFFCURVE",
"30 585 CURVE SMOOTH",
"30 498 OFFCURVE",
"61 428 OFFCURVE",
"159 428 CURVE SMOOTH"
);
},
{
closed = 1;
nodes = (
"104 435 OFFCURVE",
"86 503 OFFCURVE",
"86 585 CURVE SMOOTH",
"86 658 OFFCURVE",
"104 733 OFFCURVE",
"159 733 CURVE SMOOTH",
"215 733 OFFCURVE",
"233 658 OFFCURVE",
"233 585 CURVE SMOOTH",
"233 503 OFFCURVE",
"215 435 OFFCURVE",
"159 435 CURVE SMOOTH"
);
}
);
width = 319;
}
);
unicode = 00BA;
},
{
glyphname = "Be-cy";
lastChange = "2019-10-12 22:29:09 +0000";
layers = (
{
layerId = "8BDB995E-2F86-4134-8150-9944A684F6E9";
paths = (
{
closed = 1;
nodes = (
"279 0 LINE SMOOTH",
"408 0 OFFCURVE",
"552 72 OFFCURVE",
"552 242 CURVE SMOOTH",
"552 355 OFFCURVE",
"445 442 OFFCURVE",
"289 442 CURVE SMOOTH",
"242 442 OFFCURVE",
"206 442 OFFCURVE",
"169 446 CURVE",
"169 538 OFFCURVE",
"169 638 OFFCURVE",
"170 730 CURVE",
"305 730 LINE SMOOTH",
"306 730 OFFCURVE",
"307 730 OFFCURVE",
"308 730 CURVE",
"308 740 LINE",
"20 740 LINE",
"20 715 LINE",
"69 731 OFFCURVE",
"94 716 OFFCURVE",
"95 680 CURVE SMOOTH",
"98 582 OFFCURVE",
"100 483 OFFCURVE",
"100 385 CURVE SMOOTH",
"100 277 OFFCURVE",
"98 168 OFFCURVE",
"95 60 CURVE SMOOTH",
"94 24 OFFCURVE",
"69 9 OFFCURVE",
"20 25 CURVE",
"20 0 LINE"
);
},
{
closed = 1;
nodes = (
"213 10 OFFCURVE",
"170 17 OFFCURVE",
"170 114 CURVE SMOOTH",
"170 215 OFFCURVE",
"169 316 OFFCURVE",
"169 417 CURVE",
"206 422 OFFCURVE",
"242 422 OFFCURVE",
"288 421 CURVE SMOOTH",
"397 418 OFFCURVE",
"471 372 OFFCURVE",
"471 228 CURVE SMOOTH",
"471 110 OFFCURVE",
"401 10 OFFCURVE",
"253 10 CURVE SMOOTH"
);
},
{
closed = 1;
nodes = (
"493 570 LINE",
"476 612 OFFCURVE",
"478 677 OFFCURVE",
"482 711 CURVE SMOOTH",
"485 740 LINE",
"272 740 LINE",
"272 730 LINE",
"275 730 OFFCURVE",
"279 730 OFFCURVE",
"282 730 CURVE SMOOTH",
"494 730 OFFCURVE",
"442 642 OFFCURVE",
"477 570 CURVE"
);
}
);
width = 562;
}
);
leftMetricsKey = "=B";
rightMetricsKey = "=B";
unicode = 0411;
},
{
glyphname = "Ge-cy";
lastChange = "2019-10-12 22:29:09 +0000";
layers = (
{
layerId = "8BDB995E-2F86-4134-8150-9944A684F6E9";
paths = (
{
closed = 1;
nodes = (
"170 24 LINE",
"170 615 LINE",
"172 659 OFFCURVE",
"172 730 OFFCURVE",
"288 730 CURVE SMOOTH",
"506 730 OFFCURVE",
"445 606 OFFCURVE",
"501 514 CURVE",
"515 514 LINE",
"495 532 OFFCURVE",
"492 571 OFFCURVE",
"492 638 CURVE SMOOTH",
"492 740 LINE",
"20 740 LINE",
"20 715 LINE",
"69 731 OFFCURVE",
"95 716 OFFCURVE",
"95 680 CURVE SMOOTH",
"95 24 LINE"
);
},
{
closed = 1;
nodes = (
"245 0 LINE",
"245 25 LINE",
"196 9 OFFCURVE",
"170 24 OFFCURVE",
"170 60 CURVE",
"133 50 LINE",
"95 60 LINE",
"95 24 OFFCURVE",
"69 9 OFFCURVE",
"20 25 CURVE",
"20 0 LINE"
);
}
);
width = 385;
}
);
leftMetricsKey = "=H";
rightMetricsKey = "=H-150";
unicode = 0413;
},
{
glyphname = "Gheupturn-cy";
lastChange = "2019-10-12 22:29:09 +0000";
layers = (
{
layerId = "8BDB995E-2F86-4134-8150-9944A684F6E9";
paths = (
{
closed = 1;
nodes = (
"170 24 LINE",
"170 615 LINE",
"172 656 OFFCURVE",
"171 728 OFFCURVE",
"264 728 CURVE SMOOTH",
"270 728 OFFCURVE",
"285 728 OFFCURVE",
"311 728 CURVE SMOOTH",
"348 728 OFFCURVE",
"406 729 OFFCURVE",
"492 728 CURVE",
"492 805 LINE SMOOTH",
"492 872 OFFCURVE",
"495 911 OFFCURVE",
"515 929 CURVE",
"497 929 LINE",
"443 840 OFFCURVE",
"503 740 OFFCURVE",
"311 740 CURVE SMOOTH",
"20 740 LINE",
"20 715 LINE",
"69 731 OFFCURVE",
"95 716 OFFCURVE",
"95 680 CURVE SMOOTH",
"95 24 LINE"
);
},
{
closed = 1;
nodes = (
"245 0 LINE",
"245 25 LINE",
"196 9 OFFCURVE",
"170 24 OFFCURVE",
"170 60 CURVE",
"133 50 LINE",
"95 60 LINE",
"95 24 OFFCURVE",
"69 9 OFFCURVE",
"20 25 CURVE",
"20 0 LINE"
);
}
);
width = 385;
}
);
leftMetricsKey = "=H";
rightMetricsKey = "=H-150";
unicode = 0490;
},
{
glyphname = "De-cy";
lastChange = "2019-10-12 22:29:09 +0000";
layers = (
{
layerId = "8BDB995E-2F86-4134-8150-9944A684F6E9";
paths = (
{
closed = 1;
nodes = (
"-46 -202 LINE",
"1 -131 OFFCURVE",
"-27 -51 OFFCURVE",
"68 -9 CURVE",
"80 -3 OFFCURVE",
"275 -1 OFFCURVE",
"394 0 CURVE SMOOTH",
"499 -1 OFFCURVE",
"518 -3 OFFCURVE",
"530 -9 CURVE",
"622 -51 OFFCURVE",
"594 -131 OFFCURVE",
"641 -202 CURVE",
"655 -202 LINE",
"635 -184 OFFCURVE",
"632 -145 OFFCURVE",
"632 -78 CURVE SMOOTH",
"632 24 LINE",
"583 8 OFFCURVE",
"557 23 OFFCURVE",
"557 59 CURVE SMOOTH",
"557 679 LINE SMOOTH",
"557 715 OFFCURVE",
"583 730 OFFCURVE",
"632 714 CURVE",
"632 740 LINE",
"95 740 LINE",
"95 715 LINE",
"131 727 OFFCURVE",
"167 722 OFFCURVE",
"184 705 CURVE",
"181 559 OFFCURVE",
"123 160 OFFCURVE",
"48 48 CURVE",
"29 24 OFFCURVE",
"3 11 OFFCURVE",
"-37 24 CURVE",
"-37 -78 LINE SMOOTH",
"-37 -145 OFFCURVE",
"-40 -184 OFFCURVE",
"-60 -202 CURVE"
);
},
{
closed = 1;
nodes = (
"90 25 OFFCURVE",
"85 33 OFFCURVE",
"102 74 CURVE SMOOTH",
"107 87 LINE SMOOTH",
"166 217 OFFCURVE",
"219 567 OFFCURVE",
"222 708 CURVE",
"263 714 OFFCURVE",
"377 715 OFFCURVE",
"407 715 CURVE SMOOTH",
"458 715 OFFCURVE",
"482 715 OFFCURVE",
"482 679 CURVE SMOOTH",
"482 146 LINE SMOOTH",
"482 84 OFFCURVE",
"487 25 OFFCURVE",
"394 25 CURVE SMOOTH",
"204 25 LINE SMOOTH"
);
}
);
width = 675;
}
);
leftMetricsKey = "=H-80";
rightMetricsKey = "=H";
unicode = 0414;
},
{
glyphname = "Zhe-cy";
lastChange = "2019-10-12 21:55:21 +0000";
layers = (
{
anchors = (
{
name = bottomright;
position = "{1040, 0}";
},
{
name = top;
position = "{530, 740}";
}
);
layerId = "8BDB995E-2F86-4134-8150-9944A684F6E9";
paths = (
{
closed = 1;
nodes = (
"977 -6 OFFCURVE",
"1031 -6 OFFCURVE",
"1060 6 CURVE",
"1060 25 LINE",
"1022 15 OFFCURVE",
"980 10 OFFCURVE",
"955 33 CURVE SMOOTH",
"919 67 OFFCURVE",
"885 131 OFFCURVE",
"853 261 CURVE SMOOTH",
"829 360 OFFCURVE",
"747 425 OFFCURVE",
"672 425 CURVE",
"895 684 LINE",
"925 714 OFFCURVE",
"966 728 OFFCURVE",
"1005 715 CURVE",
"1005 740 LINE",
"804 740 LINE",
"804 715 LINE",
"854 733 OFFCURVE",
"876 706 OFFCURVE",
"854 680 CURVE SMOOTH",
"643 429 LINE",
"560 429 LINE",
"560 407 LINE",
"639 407 LINE SMOOTH",
"689 407 OFFCURVE",
"744 323 OFFCURVE",
"764 242 CURVE SMOOTH",
"799 100 OFFCURVE",
"839 24 OFFCURVE",
"949 0 CURVE SMOOTH"
);
},
{
closed = 1;
nodes = (
"221 24 OFFCURVE",
"261 100 OFFCURVE",
"296 242 CURVE SMOOTH",
"316 323 OFFCURVE",
"371 407 OFFCURVE",
"421 407 CURVE SMOOTH",
"500 407 LINE",
"500 429 LINE",
"417 429 LINE",
"206 680 LINE SMOOTH",
"184 706 OFFCURVE",
"206 733 OFFCURVE",
"256 715 CURVE",
"256 740 LINE",
"55 740 LINE",
"55 715 LINE",
"94 728 OFFCURVE",
"135 714 OFFCURVE",
"165 684 CURVE",
"388 425 LINE",
"313 425 OFFCURVE",
"231 360 OFFCURVE",
"207 261 CURVE SMOOTH",
"175 131 OFFCURVE",
"141 67 OFFCURVE",
"105 33 CURVE SMOOTH",
"80 10 OFFCURVE",
"38 15 OFFCURVE",
"0 25 CURVE",
"0 6 LINE",
"29 -6 OFFCURVE",
"83 -6 OFFCURVE",
"111 0 CURVE SMOOTH"
);
},
{
closed = 1;
nodes = (
"643 0 LINE",
"643 25 LINE",
"594 9 OFFCURVE",
"568 24 OFFCURVE",
"568 60 CURVE",
"568 680 LINE",
"568 716 OFFCURVE",
"594 731 OFFCURVE",
"643 715 CURVE",
"643 740 LINE",
"418 740 LINE",
"418 715 LINE",
"467 731 OFFCURVE",
"493 716 OFFCURVE",
"493 680 CURVE SMOOTH",
"493 60 LINE SMOOTH",
"493 24 OFFCURVE",
"467 9 OFFCURVE",
"418 25 CURVE",
"418 0 LINE"
);
}
);
width = 1060;
}
);
unicode = 0416;
},
{
glyphname = "Ze-cy";
lastChange = "2019-10-12 22:29:09 +0000";
layers = (
{
anchors = (
{
name = bottom;
position = "{232, 0}";
},
{
name = top;
position = "{232, 740}";
}
);
layerId = "8BDB995E-2F86-4134-8150-9944A684F6E9";
paths = (
{
closed = 1;
nodes = (
"360 -10 OFFCURVE",
"454 105 OFFCURVE",
"454 213 CURVE SMOOTH",
"454 323 OFFCURVE",
"362 396 OFFCURVE",
"281 398 CURVE",
"276 398 OFFCURVE",
"276 403 OFFCURVE",
"281 404 CURVE",
"362 415 OFFCURVE",
"418 495 OFFCURVE",
"418 572 CURVE SMOOTH",
"418 674 OFFCURVE",
"324 737 OFFCURVE",
"220 737 CURVE SMOOTH",
"95 737 OFFCURVE",
"16 674 OFFCURVE",
"16 612 CURVE SMOOTH",
"16 567 OFFCURVE",
"39 534 OFFCURVE",
"71 534 CURVE SMOOTH",
"101 534 OFFCURVE",
"124 557 OFFCURVE",
"123 579 CURVE SMOOTH",
"121 620 OFFCURVE",
"71 593 OFFCURVE",
"71 640 CURVE SMOOTH",
"71 682 OFFCURVE",
"107 719 OFFCURVE",
"210 719 CURVE SMOOTH",
"291 719 OFFCURVE",
"337 635 OFFCURVE",
"337 572 CURVE SMOOTH",
"337 479 OFFCURVE",
"330 406 OFFCURVE",
"151 404 CURVE",
"151 382 LINE",
"327 374 OFFCURVE",
"373 340 OFFCURVE",
"373 208 CURVE SMOOTH",
"373 96 OFFCURVE",
"314 8 OFFCURVE",
"193 8 CURVE SMOOTH",
"112 8 OFFCURVE",
"45 78 OFFCURVE",
"45 120 CURVE SMOOTH",
"45 167 OFFCURVE",
"95 140 OFFCURVE",
"97 181 CURVE SMOOTH",
"98 203 OFFCURVE",
"75 226 OFFCURVE",
"45 226 CURVE SMOOTH",
"13 226 OFFCURVE",
"-10 193 OFFCURVE",
"-10 148 CURVE SMOOTH",
"-10 51 OFFCURVE",
"93 -10 OFFCURVE",
"193 -10 CURVE SMOOTH"
);
}
);
width = 464;
}
);
leftMetricsKey = "=H-30";
rightMetricsKey = "=B";
unicode = 0417;
},
{
glyphname = "Ii-cy";
lastChange = "2019-10-12 22:29:09 +0000";
layers = (
{
anchors = (
{
name = bottomright;
position = "{706, 0}";
},
{
name = top;
position = "{356, 740}";
}
);
layerId = "8BDB995E-2F86-4134-8150-9944A684F6E9";
paths = (
{
closed = 1;
nodes = (
"147 50 LINE",
"595 690 LINE",
"567 690 LINE",
"119 50 LINE"
);
},
{
closed = 1;
nodes = (
"245 0 LINE",
"245 25 LINE",
"196 9 OFFCURVE",
"170 24 OFFCURVE",
"170 60 CURVE",
"133 50 LINE",
"95 60 LINE",
"95 24 OFFCURVE",
"69 9 OFFCURVE",
"20 25 CURVE",
"20 0 LINE"
);
},
{
closed = 1;
nodes = (
"170 0 LINE",
"170 736 LINE",
"95 736 LINE",
"95 0 LINE"
);
},
{
closed = 1;
nodes = (
"691 0 LINE",
"691 25 LINE",
"642 9 OFFCURVE",
"616 24 OFFCURVE",
"616 60 CURVE",
"579 50 LINE",
"541 60 LINE",
"541 24 OFFCURVE",
"515 9 OFFCURVE",
"466 25 CURVE",
"466 0 LINE"
);
},
{
closed = 1;
nodes = (
"133 690 LINE",
"170 680 LINE",
"170 716 OFFCURVE",
"196 731 OFFCURVE",
"245 715 CURVE",
"245 740 LINE",
"20 740 LINE",
"20 715 LINE",
"69 731 OFFCURVE",
"95 716 OFFCURVE",
"95 680 CURVE"
);
},
{
closed = 1;
nodes = (
"616 0 LINE",
"616 740 LINE",
"541 740 LINE",
"541 0 LINE"
);
},
{
closed = 1;
nodes = (
"579 690 LINE",
"616 680 LINE",
"616 716 OFFCURVE",
"642 731 OFFCURVE",
"691 715 CURVE",
"691 740 LINE",
"466 740 LINE",
"466 715 LINE",
"515 731 OFFCURVE",
"541 716 OFFCURVE",
"541 680 CURVE"
);
}
);
width = 711;
}
);
leftMetricsKey = "=H";
rightMetricsKey = "=H";
unicode = 0418;
},
{
glyphname = "Iishort-cy";
lastChange = "2019-10-12 22:29:09 +0000";
layers = (
{
layerId = "8BDB995E-2F86-4134-8150-9944A684F6E9";
paths = (
{
closed = 1;
nodes = (
"147 50 LINE",
"595 690 LINE",
"567 690 LINE",
"119 50 LINE"
);
},
{
closed = 1;
nodes = (
"245 0 LINE",
"245 25 LINE",
"196 9 OFFCURVE",
"170 24 OFFCURVE",
"170 60 CURVE",
"133 50 LINE",
"95 60 LINE",
"95 24 OFFCURVE",
"69 9 OFFCURVE",
"20 25 CURVE",
"20 0 LINE"
);
},
{
closed = 1;
nodes = (
"170 0 LINE",
"170 736 LINE",
"95 736 LINE",
"95 0 LINE"
);
},
{
closed = 1;
nodes = (
"691 0 LINE",
"691 25 LINE",
"642 9 OFFCURVE",
"616 24 OFFCURVE",
"616 60 CURVE",
"579 50 LINE",
"541 60 LINE",
"541 24 OFFCURVE",
"515 9 OFFCURVE",
"466 25 CURVE",
"466 0 LINE"
);
},
{
closed = 1;
nodes = (
"133 690 LINE",
"170 680 LINE",
"170 716 OFFCURVE",
"196 731 OFFCURVE",
"245 715 CURVE",
"245 740 LINE",
"20 740 LINE",
"20 715 LINE",
"69 731 OFFCURVE",
"95 716 OFFCURVE",
"95 680 CURVE"
);
},
{
closed = 1;
nodes = (
"616 0 LINE",
"616 740 LINE",
"541 740 LINE",
"541 0 LINE"
);
},
{
closed = 1;
nodes = (
"395 799 OFFCURVE",
"487 813 OFFCURVE",
"487 882 CURVE SMOOTH",
"487 910 OFFCURVE",
"460 923 OFFCURVE",
"441 916 CURVE SMOOTH",
"422 907 OFFCURVE",
"428 887 OFFCURVE",
"428 873 CURVE SMOOTH",
"428 830 OFFCURVE",
"395 810 OFFCURVE",
"355 810 CURVE SMOOTH",
"315 810 OFFCURVE",
"282 830 OFFCURVE",
"282 873 CURVE SMOOTH",
"282 887 OFFCURVE",
"289 907 OFFCURVE",
"269 916 CURVE SMOOTH",
"250 923 OFFCURVE",
"224 910 OFFCURVE",
"224 882 CURVE SMOOTH",
"224 813 OFFCURVE",
"315 799 OFFCURVE",
"355 800 CURVE"
);
},
{
closed = 1;
nodes = (
"579 690 LINE",
"616 680 LINE",
"616 716 OFFCURVE",
"642 731 OFFCURVE",
"691 715 CURVE",
"691 740 LINE",
"466 740 LINE",
"466 715 LINE",
"515 731 OFFCURVE",
"541 716 OFFCURVE",
"541 680 CURVE"
);
}
);
width = 711;
}
);
leftMetricsKey = "=H";
rightMetricsKey = "=H";
unicode = 0419;
},
{
glyphname = "Ka-cy";
lastChange = "2019-10-12 22:29:09 +0000";
layers = (
{
anchors = (
{
name = bottomright;
position = "{597, 0}";
},
{
name = top;
position = "{301, 740}";
}
);
guideLines = (
{
position = "{-291, 409}";
},
{
position = "{52, 25}";
}
);
layerId = "8BDB995E-2F86-4134-8150-9944A684F6E9";
paths = (
{
closed = 1;
nodes = (
"579 -6 OFFCURVE",
"633 -6 OFFCURVE",
"662 6 CURVE",
"662 25 LINE",
"624 15 OFFCURVE",
"582 10 OFFCURVE",
"557 33 CURVE SMOOTH",
"521 67 OFFCURVE",
"487 131 OFFCURVE",
"455 261 CURVE SMOOTH",
"431 360 OFFCURVE",
"349 425 OFFCURVE",
"274 425 CURVE",
"497 684 LINE",
"527 714 OFFCURVE",
"568 728 OFFCURVE",
"607 715 CURVE",
"607 740 LINE",
"406 740 LINE",
"406 715 LINE",
"456 733 OFFCURVE",
"478 706 OFFCURVE",
"456 680 CURVE SMOOTH",
"245 429 LINE",
"162 429 LINE",
"162 407 LINE",
"241 407 LINE SMOOTH",
"291 407 OFFCURVE",
"346 323 OFFCURVE",
"366 242 CURVE SMOOTH",
"400 100 OFFCURVE",
"441 25 OFFCURVE",
"551 0 CURVE SMOOTH"
);
},
{
closed = 1;
nodes = (
"245 0 LINE",
"245 25 LINE",
"196 9 OFFCURVE",
"170 24 OFFCURVE",
"170 60 CURVE",
"170 680 LINE",
"170 716 OFFCURVE",
"196 731 OFFCURVE",
"245 715 CURVE",
"245 740 LINE",
"20 740 LINE",
"20 715 LINE",
"69 731 OFFCURVE",
"95 716 OFFCURVE",
"95 680 CURVE SMOOTH",
"95 60 LINE SMOOTH",
"95 24 OFFCURVE",
"69 9 OFFCURVE",
"20 25 CURVE",
"20 0 LINE"
);
}
);
width = 602;
}
);
leftMetricsKey = "=H";
rightMetricsKey = "=K";
unicode = 041A;
},
{
glyphname = "El-cy";
lastChange = "2019-10-12 22:29:09 +0000";
layers = (
{
guideLines = (
{
position = "{23, -10}";
}
);
layerId = "8BDB995E-2F86-4134-8150-9944A684F6E9";
paths = (
{
closed = 1;
nodes = (
"94 10 OFFCURVE",
"120 49 OFFCURVE",
"148 123 CURVE SMOOTH",
"216 303 OFFCURVE",
"237 613 OFFCURVE",
"239 708 CURVE",
"312 719 OFFCURVE",
"379 714 OFFCURVE",
"404 714 CURVE SMOOTH",
"497 714 OFFCURVE",
"492 655 OFFCURVE",
"492 593 CURVE SMOOTH",
"492 60 LINE SMOOTH",
"492 24 OFFCURVE",
"466 9 OFFCURVE",
"417 25 CURVE",
"417 0 LINE",
"642 0 LINE",
"642 25 LINE",
"593 9 OFFCURVE",
"567 24 OFFCURVE",
"567 60 CURVE SMOOTH",
"567 680 LINE SMOOTH",
"567 716 OFFCURVE",
"593 731 OFFCURVE",
"642 715 CURVE",
"642 740 LINE",
"112 740 LINE",
"112 715 LINE",
"148 727 OFFCURVE",
"184 722 OFFCURVE",
"201 705 CURVE",
"199 598 OFFCURVE",
"195 253 OFFCURVE",
"100 96 CURVE SMOOTH",
"80 63 OFFCURVE",
"58 53 OFFCURVE",
"45 53 CURVE SMOOTH",
"6 53 OFFCURVE",
"12 80 OFFCURVE",
"-28 80 CURVE SMOOTH",
"-49 80 OFFCURVE",
"-65 55 OFFCURVE",
"-58 26 CURVE SMOOTH",
"-50 -5 OFFCURVE",
"-12 -19 OFFCURVE",
"32 -7 CURVE SMOOTH"
);
}
);
width = 662;
}
);
leftMetricsKey = "=H-80";
rightMetricsKey = "=H";
unicode = 041B;
},
{
glyphname = "Pe-cy";
lastChange = "2019-10-12 22:29:09 +0000";
layers = (
{
guideLines = (
{
angle = 90;
position = "{20, -33}";
},
{
angle = 90;
position = "{690, -59}";
}
);
layerId = "8BDB995E-2F86-4134-8150-9944A684F6E9";
paths = (
{
closed = 1;
nodes = (
"245 0 LINE",
"245 25 LINE",
"196 9 OFFCURVE",
"170 24 OFFCURVE",
"170 60 CURVE SMOOTH",
"170 593 LINE SMOOTH",
"170 655 OFFCURVE",
"165 714 OFFCURVE",
"258 714 CURVE",
"434 714 LINE",
"527 714 OFFCURVE",
"522 655 OFFCURVE",
"522 593 CURVE SMOOTH",
"522 60 LINE SMOOTH",
"522 24 OFFCURVE",
"496 9 OFFCURVE",
"447 25 CURVE",
"447 0 LINE",
"672 0 LINE",
"672 25 LINE",
"623 9 OFFCURVE",
"597 24 OFFCURVE",
"597 60 CURVE SMOOTH",
"597 680 LINE SMOOTH",
"597 716 OFFCURVE",
"623 731 OFFCURVE",
"672 715 CURVE",
"672 740 LINE",
"20 740 LINE",
"20 715 LINE",
"69 731 OFFCURVE",
"95 716 OFFCURVE",
"95 680 CURVE SMOOTH",
"95 60 LINE SMOOTH",
"95 24 OFFCURVE",
"69 9 OFFCURVE",
"20 25 CURVE",
"20 0 LINE"
);
}
);
width = 692;
}
);
leftMetricsKey = "=H";
rightMetricsKey = "=H";
unicode = 041F;
},
{
glyphname = "U-cy";
lastChange = "2019-10-12 22:29:09 +0000";
layers = (
{
anchors = (
{
name = top;
position = "{355, 740}";
}
);
guideLines = (
{
position = "{342, -10}";
}
);
layerId = "8BDB995E-2F86-4134-8150-9944A684F6E9";
paths = (
{
closed = 1;
nodes = (
"306 -10 OFFCURVE",
"327 28 OFFCURVE",
"375 153 CURVE SMOOTH",
"577 671 LINE",
"580 680 OFFCURVE",
"584 690 OFFCURVE",
"589 700 CURVE SMOOTH",
"604 730 OFFCURVE",
"639 728 OFFCURVE",
"678 715 CURVE",
"678 740 LINE",
"469 740 LINE",
"469 715 LINE",
"518 732 OFFCURVE",
"562 728 OFFCURVE",
"549 680 CURVE SMOOTH",
"542 655 LINE",
"371 207 LINE",
"174 680 LINE SMOOTH",
"159 716 OFFCURVE",
"192 731 OFFCURVE",
"241 715 CURVE",
"241 740 LINE",
"0 740 LINE",
"0 715 LINE",
"49 731 OFFCURVE",
"76 716 OFFCURVE",
"92 680 CURVE SMOOTH",
"323 151 LINE SMOOTH",
"336 121 OFFCURVE",
"321 89 OFFCURVE",
"314 73 CURVE SMOOTH",
"300 43 OFFCURVE",
"271 20 OFFCURVE",
"244 20 CURVE SMOOTH",
"199 20 OFFCURVE",
"197 83 OFFCURVE",
"158 98 CURVE SMOOTH",
"130 109 OFFCURVE",
"99 89 OFFCURVE",
"99 62 CURVE SMOOTH",
"99 20 OFFCURVE",
"142 -10 OFFCURVE",
"201 -10 CURVE SMOOTH"
);
}
);
width = 548;
}
);
rightMetricsKey = "=H-150";
unicode = 0423;
},
{
glyphname = "Ef-cy";
lastChange = "2019-10-12 21:55:21 +0000";
layers = (
{
guideLines = (
{
position = "{750, 370}";
},
{
angle = 90;
position = "{41, 370}";
},
{
angle = 90;
position = "{795, 370}";
}
);
layerId = "8BDB995E-2F86-4134-8150-9944A684F6E9";
paths = (
{
closed = 1;
nodes = (
"738 114 OFFCURVE",
"795 229 OFFCURVE",
"795 371 CURVE SMOOTH",
"795 498 OFFCURVE",
"738 627 OFFCURVE",
"563 627 CURVE SMOOTH",
"506 627 OFFCURVE",
"461 613 OFFCURVE",
"427 590 CURVE",
"427 563 LINE",
"454 592 OFFCURVE",
"491 610 OFFCURVE",
"541 610 CURVE SMOOTH",
"668 610 OFFCURVE",
"715 490 OFFCURVE",
"715 371 CURVE SMOOTH",
"715 239 OFFCURVE",
"667 131 OFFCURVE",
"541 131 CURVE SMOOTH",
"491 131 OFFCURVE",
"454 147 OFFCURVE",
"427 174 CURVE",
"427 148 LINE",
"461 126 OFFCURVE",
"506 114 OFFCURVE",
"563 114 CURVE SMOOTH"
);
},
{
closed = 1;
nodes = (
"329 114 OFFCURVE",
"374 126 OFFCURVE",
"408 148 CURVE",
"408 174 LINE",
"381 147 OFFCURVE",
"344 131 OFFCURVE",
"294 131 CURVE SMOOTH",
"168 131 OFFCURVE",
"120 239 OFFCURVE",
"120 371 CURVE SMOOTH",
"120 490 OFFCURVE",
"167 610 OFFCURVE",
"294 610 CURVE SMOOTH",
"344 610 OFFCURVE",
"381 592 OFFCURVE",
"408 563 CURVE",
"408 590 LINE",
"374 613 OFFCURVE",
"329 627 OFFCURVE",
"272 627 CURVE SMOOTH",
"97 627 OFFCURVE",
"40 498 OFFCURVE",
"40 371 CURVE SMOOTH",
"40 229 OFFCURVE",
"97 114 OFFCURVE",
"272 114 CURVE SMOOTH"
);
},
{
closed = 1;
nodes = (
"531 -11 LINE",
"531 14 LINE",
"482 -2 OFFCURVE",
"456 13 OFFCURVE",
"456 49 CURVE SMOOTH",
"456 690 LINE SMOOTH",
"456 726 OFFCURVE",
"482 741 OFFCURVE",
"531 725 CURVE",
"531 750 LINE",
"306 750 LINE",
"306 725 LINE",
"355 741 OFFCURVE",
"381 726 OFFCURVE",
"381 690 CURVE SMOOTH",
"381 49 LINE SMOOTH",
"381 13 OFFCURVE",
"355 -2 OFFCURVE",
"306 14 CURVE",
"306 -11 LINE"
);
}
);
width = 835;
}
);
leftMetricsKey = "=o";
rightMetricsKey = "=o";
unicode = 0424;
},
{
glyphname = "Che-cy";
lastChange = "2019-10-12 22:29:09 +0000";
layers = (
{
anchors = (
{
name = bottomright;
position = "{619, 0}";
},
{
name = top;
position = "{270, 740}";
}
);
layerId = "8BDB995E-2F86-4134-8150-9944A684F6E9";
paths = (
{
closed = 1;
nodes = (
"416 277 OFFCURVE",
"459 360 OFFCURVE",
"485 387 CURVE",
"460 387 LINE",
"434 345 OFFCURVE",
"375 302 OFFCURVE",
"251 302 CURVE SMOOTH",
"188 302 OFFCURVE",
"90 346 OFFCURVE",
"90 477 CURVE SMOOTH",
"90 680 LINE SMOOTH",
"90 716 OFFCURVE",
"116 731 OFFCURVE",
"165 715 CURVE",
"165 740 LINE",
"-60 740 LINE",
"-60 715 LINE",
"-11 731 OFFCURVE",
"15 716 OFFCURVE",
"15 680 CURVE SMOOTH",
"15 489 LINE SMOOTH",
"15 341 OFFCURVE",
"117 277 OFFCURVE",
"242 277 CURVE SMOOTH"
);
},
{
closed = 1;
nodes = (
"604 0 LINE",
"604 25 LINE",
"555 9 OFFCURVE",
"529 24 OFFCURVE",
"529 60 CURVE SMOOTH",
"529 680 LINE SMOOTH",
"529 716 OFFCURVE",
"555 731 OFFCURVE",
"604 715 CURVE",
"604 740 LINE",
"379 740 LINE",
"379 715 LINE",
"428 731 OFFCURVE",
"454 716 OFFCURVE",
"454 680 CURVE SMOOTH",
"454 60 LINE SMOOTH",
"454 24 OFFCURVE",
"428 9 OFFCURVE",
"379 25 CURVE",
"379 0 LINE"
);
}
);
width = 624;
}
);
leftMetricsKey = "=H-80";
rightMetricsKey = "=H";
unicode = 0427;
},
{
glyphname = "Tse-cy";
lastChange = "2019-10-12 22:29:09 +0000";
layers = (
{
layerId = "8BDB995E-2F86-4134-8150-9944A684F6E9";
paths = (
{
closed = 1;
nodes = (
"714 -201 LINE",
"694 -183 OFFCURVE",
"691 -144 OFFCURVE",
"691 -77 CURVE SMOOTH",
"691 25 LINE",
"642 9 OFFCURVE",
"616 24 OFFCURVE",
"616 60 CURVE SMOOTH",
"616 680 LINE SMOOTH",
"616 716 OFFCURVE",
"642 731 OFFCURVE",
"691 715 CURVE",
"691 740 LINE",
"466 740 LINE",
"466 715 LINE",
"515 731 OFFCURVE",
"541 716 OFFCURVE",
"541 680 CURVE SMOOTH",
"541 147 LINE SMOOTH",
"541 85 OFFCURVE",
"546 26 OFFCURVE",
"453 26 CURVE SMOOTH",
"258 26 LINE SMOOTH",
"165 26 OFFCURVE",
"170 85 OFFCURVE",
"170 147 CURVE SMOOTH",
"170 680 LINE SMOOTH",
"170 716 OFFCURVE",
"196 731 OFFCURVE",
"245 715 CURVE",
"245 740 LINE",
"20 740 LINE",
"20 715 LINE",
"69 731 OFFCURVE",
"95 716 OFFCURVE",
"95 680 CURVE SMOOTH",
"95 60 LINE SMOOTH",
"95 24 OFFCURVE",
"69 9 OFFCURVE",
"20 25 CURVE",
"20 0 LINE",
"527 0 OFFCURVE",
"558 5 OFFCURVE",
"589 -8 CURVE SMOOTH",
"682 -47 OFFCURVE",
"653 -130 OFFCURVE",
"700 -201 CURVE"
);
}
);
width = 734;
}
);
leftMetricsKey = "=H";
rightMetricsKey = "=H";
unicode = 0426;
},
{
glyphname = "Sha-cy";
lastChange = "2019-10-12 22:29:09 +0000";
layers = (
{
guideLines = (
{
angle = 90;
position = "{497, 288}";
}
);
layerId = "8BDB995E-2F86-4134-8150-9944A684F6E9";
paths = (
{
closed = 1;
nodes = (
"975 0 LINE",
"975 25 LINE",
"926 9 OFFCURVE",
"900 24 OFFCURVE",
"900 60 CURVE SMOOTH",
"900 680 LINE SMOOTH",
"900 716 OFFCURVE",
"926 731 OFFCURVE",
"975 715 CURVE",
"975 740 LINE",
"750 740 LINE",
"750 715 LINE",
"799 731 OFFCURVE",
"825 716 OFFCURVE",
"825 680 CURVE SMOOTH",
"825 147 LINE SMOOTH",
"825 85 OFFCURVE",
"830 26 OFFCURVE",
"737 26 CURVE",
"592 26 LINE",
"592 0 LINE"
);
},
{
closed = 1;
nodes = (
"395 0 LINE",
"395 26 LINE",
"258 26 LINE",
"165 26 OFFCURVE",
"170 85 OFFCURVE",
"170 147 CURVE SMOOTH",
"170 680 LINE SMOOTH",
"170 716 OFFCURVE",
"196 731 OFFCURVE",
"245 715 CURVE",
"245 740 LINE",
"20 740 LINE",
"20 715 LINE",
"69 731 OFFCURVE",
"95 716 OFFCURVE",
"95 680 CURVE SMOOTH",
"95 60 LINE SMOOTH",
"95 24 OFFCURVE",
"69 9 OFFCURVE",
"20 25 CURVE",
"20 0 LINE"
);
},
{
closed = 1;
nodes = (
"611 0 LINE",
"611 26 LINE",
"562 26 OFFCURVE",
"536 24 OFFCURVE",
"536 60 CURVE SMOOTH",
"536 680 LINE SMOOTH",
"536 716 OFFCURVE",
"562 731 OFFCURVE",
"611 715 CURVE",
"611 740 LINE",
"386 740 LINE",
"386 715 LINE",
"435 731 OFFCURVE",
"461 716 OFFCURVE",
"461 680 CURVE SMOOTH",
"461 60 LINE SMOOTH",
"461 24 OFFCURVE",
"435 26 OFFCURVE",
"386 26 CURVE",
"386 0 LINE"
);
}
);
width = 995;
}
);
leftMetricsKey = "=H";
rightMetricsKey = "=H";
unicode = 0428;
},
{
glyphname = "Shcha-cy";
lastChange = "2019-10-12 22:29:09 +0000";
layers = (
{
layerId = "8BDB995E-2F86-4134-8150-9944A684F6E9";
paths = (
{
closed = 1;
nodes = (
"998 -202 LINE",
"978 -184 OFFCURVE",
"975 -145 OFFCURVE",
"975 -78 CURVE SMOOTH",
"975 24 LINE",
"926 8 OFFCURVE",
"900 23 OFFCURVE",
"900 59 CURVE SMOOTH",
"900 679 LINE SMOOTH",
"900 715 OFFCURVE",
"926 730 OFFCURVE",
"975 714 CURVE",
"975 739 LINE",
"750 739 LINE",
"750 714 LINE",
"799 730 OFFCURVE",
"825 715 OFFCURVE",
"825 679 CURVE SMOOTH",
"825 146 LINE SMOOTH",
"825 84 OFFCURVE",
"830 25 OFFCURVE",
"737 25 CURVE SMOOTH",
"600 25 LINE SMOOTH",
"558 25 OFFCURVE",
"536 27 OFFCURVE",
"536 60 CURVE SMOOTH",
"536 680 LINE SMOOTH",
"536 716 OFFCURVE",
"562 731 OFFCURVE",
"611 715 CURVE",
"611 740 LINE",
"386 740 LINE",
"386 715 LINE",
"435 731 OFFCURVE",
"461 716 OFFCURVE",
"461 680 CURVE SMOOTH",
"461 60 LINE SMOOTH",
"461 24 OFFCURVE",
"435 26 OFFCURVE",
"386 26 CURVE",
"386 0 LINE",
"796 0 OFFCURVE",
"852 0 OFFCURVE",
"873 -9 CURVE SMOOTH",
"966 -49 OFFCURVE",
"937 -131 OFFCURVE",
"984 -202 CURVE"
);
},
{
closed = 1;
nodes = (
"395 0 LINE",
"395 26 LINE",
"258 26 LINE",
"165 26 OFFCURVE",
"170 85 OFFCURVE",
"170 147 CURVE SMOOTH",
"170 680 LINE SMOOTH",
"170 716 OFFCURVE",
"196 731 OFFCURVE",
"245 715 CURVE",
"245 740 LINE",
"20 740 LINE",
"20 715 LINE",
"69 731 OFFCURVE",
"95 716 OFFCURVE",
"95 680 CURVE SMOOTH",
"95 60 LINE SMOOTH",
"95 24 OFFCURVE",
"69 9 OFFCURVE",
"20 25 CURVE",
"20 0 LINE"
);
}
);
width = 1018;
}
);
leftMetricsKey = "=H";
rightMetricsKey = "=H";
unicode = 0429;
},
{
glyphname = "Dzhe-cy";
lastChange = "2019-10-12 21:55:21 +0000";
layers = (
{
guideLines = (
{
angle = 90;
position = "{375, 740}";
}
);
layerId = "8BDB995E-2F86-4134-8150-9944A684F6E9";
paths = (
{
closed = 1;
nodes = (
"711 0 LINE",
"711 25 LINE",
"662 9 OFFCURVE",
"636 24 OFFCURVE",
"636 60 CURVE SMOOTH",
"636 680 LINE SMOOTH",
"636 716 OFFCURVE",
"662 731 OFFCURVE",
"711 715 CURVE",
"711 740 LINE",
"486 740 LINE",
"486 715 LINE",
"535 731 OFFCURVE",
"561 716 OFFCURVE",
"561 680 CURVE SMOOTH",
"561 60 LINE SMOOTH",
"561 24 OFFCURVE",
"534 26 OFFCURVE",
"484 25 CURVE",
"265 25 LINE",
"216 26 OFFCURVE",
"190 24 OFFCURVE",
"190 60 CURVE SMOOTH",
"190 680 LINE SMOOTH",
"190 716 OFFCURVE",
"216 731 OFFCURVE",
"265 715 CURVE",
"265 740 LINE",
"40 740 LINE",
"40 715 LINE",
"89 731 OFFCURVE",
"115 716 OFFCURVE",
"115 680 CURVE SMOOTH",
"115 60 LINE SMOOTH",
"115 24 OFFCURVE",
"89 9 OFFCURVE",
"40 25 CURVE",
"40 0 LINE"
);
},
{
closed = 1;
nodes = (
"385 -201 LINE",
"383 -191 OFFCURVE",
"382 -179 OFFCURVE",
"382 -165 CURVE SMOOTH",
"382 46 OFFCURVE",
"473 -11 OFFCURVE",
"542 2 CURVE",
"542 18 LINE",
"500 1 OFFCURVE",
"435 3 OFFCURVE",
"401 7 CURVE SMOOTH",
"377 10 LINE",
"375 10 LINE",
"372 9 LINE",
"348 7 LINE SMOOTH",
"314 4 OFFCURVE",
"249 1 OFFCURVE",
"207 18 CURVE",
"207 2 LINE",
"277 -11 OFFCURVE",
"367 46 OFFCURVE",
"367 -165 CURVE SMOOTH",
"367 -179 OFFCURVE",
"366 -191 OFFCURVE",
"364 -201 CURVE"
);
}
);
width = 751;
}
);
unicode = 040F;
},
{
glyphname = "Softsign-cy";
lastChange = "2019-10-12 22:29:09 +0000";
layers = (
{
guideLines = (
{
angle = 90;
position = "{20, 13}";
}
);
layerId = "8BDB995E-2F86-4134-8150-9944A684F6E9";
paths = (
{
closed = 1;
nodes = (
"279 0 LINE SMOOTH",
"408 0 OFFCURVE",
"552 72 OFFCURVE",
"552 242 CURVE SMOOTH",
"552 355 OFFCURVE",
"471 442 OFFCURVE",
"315 442 CURVE SMOOTH",
"281 442 OFFCURVE",
"259 440 OFFCURVE",
"232 442 CURVE",
"232 418 LINE",
"259 420 OFFCURVE",
"280 422 OFFCURVE",
"314 421 CURVE SMOOTH",
"423 418 OFFCURVE",
"471 372 OFFCURVE",
"471 228 CURVE SMOOTH",
"471 114 OFFCURVE",
"401 10 OFFCURVE",
"253 10 CURVE SMOOTH",
"213 10 OFFCURVE",
"170 17 OFFCURVE",
"170 114 CURVE SMOOTH",
"170 215 OFFCURVE",
"169 636 OFFCURVE",
"170 710 CURVE",
"95 710 LINE",
"95 60 LINE",
"94 24 OFFCURVE",
"69 9 OFFCURVE",
"20 25 CURVE",
"20 0 LINE"
);
},
{
closed = 1;
nodes = (
"271 321 LINE",
"271 334 LINE",
"244 336 OFFCURVE",
"247 373 OFFCURVE",
"247 394 CURVE SMOOTH",
"247 421 OFFCURVE",
"265 424 OFFCURVE",
"272 424 CURVE",
"272 441 LINE",
"276 441 LINE",
"232 441 LINE",
"232 418 LINE SMOOTH",
"232 381 OFFCURVE",
"232 372 OFFCURVE",
"232 321 CURVE"
);
},
{
closed = 1;
nodes = (
"133 690 LINE",
"170 680 LINE",
"170 716 OFFCURVE",
"196 731 OFFCURVE",
"245 715 CURVE",
"245 740 LINE",
"20 740 LINE",
"20 715 LINE",
"69 731 OFFCURVE",
"95 716 OFFCURVE",
"95 680 CURVE"
);
}
);
width = 562;
}
);
leftMetricsKey = "=H";
rightMetricsKey = "=B";
unicode = 042C;
},
{
glyphname = "Hardsign-cy";
lastChange = "2019-10-12 22:29:09 +0000";
layers = (
{
layerId = "8BDB995E-2F86-4134-8150-9944A684F6E9";
paths = (
{
closed = 1;
nodes = (
"325 0 LINE SMOOTH",
"454 0 OFFCURVE",
"598 72 OFFCURVE",
"598 242 CURVE SMOOTH",
"598 355 OFFCURVE",
"517 442 OFFCURVE",
"361 442 CURVE SMOOTH",
"327 442 OFFCURVE",
"305 440 OFFCURVE",
"278 442 CURVE",
"278 418 LINE",
"305 420 OFFCURVE",
"326 422 OFFCURVE",
"360 421 CURVE SMOOTH",
"469 418 OFFCURVE",
"517 372 OFFCURVE",
"517 228 CURVE SMOOTH",
"517 114 OFFCURVE",
"447 10 OFFCURVE",
"299 10 CURVE SMOOTH",
"259 10 OFFCURVE",
"216 17 OFFCURVE",
"216 114 CURVE SMOOTH",
"216 215 OFFCURVE",
"215 636 OFFCURVE",
"216 710 CURVE",
"141 710 LINE",
"141 60 LINE",
"140 24 OFFCURVE",
"115 9 OFFCURVE",
"66 25 CURVE",
"66 0 LINE"
);
},
{
closed = 1;
nodes = (
"317 321 LINE",
"317 334 LINE",
"290 336 OFFCURVE",
"293 373 OFFCURVE",
"293 394 CURVE SMOOTH",
"293 421 OFFCURVE",
"311 424 OFFCURVE",
"318 424 CURVE",
"318 441 LINE",
"322 441 LINE",
"278 441 LINE",
"278 418 LINE SMOOTH",
"278 381 OFFCURVE",
"278 372 OFFCURVE",
"278 321 CURVE"
);
},
{
closed = 1;
nodes = (
"-65 570 LINE",
"-19 639 OFFCURVE",
"-45 721 OFFCURVE",
"41 721 CURVE SMOOTH",
"66 721 OFFCURVE",
"83 721 OFFCURVE",
"97 718 CURVE",
"107 717 OFFCURVE",
"115 714 OFFCURVE",
"124 709 CURVE SMOOTH",
"135 703 OFFCURVE",
"141 689 OFFCURVE",
"141 680 CURVE",
"179 690 LINE",
"216 680 LINE",
"216 716 OFFCURVE",
"242 731 OFFCURVE",
"291 715 CURVE",
"291 740 LINE",
"-53 740 LINE",
"-53 673 LINE SMOOTH",
"-53 633 OFFCURVE",
"-56 598 OFFCURVE",
"-80 570 CURVE"
);
}
);
width = 628;
}
);
leftMetricsKey = "=H-100";
unicode = 042A;
},
{
glyphname = "Yeru-cy";
lastChange = "2019-10-12 22:29:09 +0000";
layers = (
{
anchors = (
{
name = top;
position = "{392, 740}";
}
);
layerId = "8BDB995E-2F86-4134-8150-9944A684F6E9";
paths = (
{
closed = 1;
nodes = (
"279 0 LINE SMOOTH",
"408 0 OFFCURVE",
"552 72 OFFCURVE",
"552 242 CURVE SMOOTH",
"552 355 OFFCURVE",
"471 442 OFFCURVE",
"315 442 CURVE SMOOTH",
"281 442 OFFCURVE",
"259 440 OFFCURVE",
"232 442 CURVE",
"232 418 LINE",
"259 420 OFFCURVE",
"280 422 OFFCURVE",
"314 421 CURVE SMOOTH",
"423 418 OFFCURVE",
"471 372 OFFCURVE",
"471 228 CURVE SMOOTH",
"471 114 OFFCURVE",
"401 10 OFFCURVE",
"253 10 CURVE SMOOTH",
"213 10 OFFCURVE",
"170 17 OFFCURVE",
"170 114 CURVE SMOOTH",
"170 215 OFFCURVE",
"169 636 OFFCURVE",
"170 710 CURVE",
"95 710 LINE",
"95 60 LINE",
"94 24 OFFCURVE",
"69 9 OFFCURVE",
"20 25 CURVE",
"20 0 LINE"
);
},
{
closed = 1;
nodes = (
"271 321 LINE",
"271 334 LINE",
"244 336 OFFCURVE",
"247 373 OFFCURVE",
"247 394 CURVE SMOOTH",
"247 421 OFFCURVE",
"265 424 OFFCURVE",
"272 424 CURVE",
"272 441 LINE",
"276 441 LINE",
"232 441 LINE",
"232 418 LINE SMOOTH",
"232 381 OFFCURVE",
"232 372 OFFCURVE",
"232 321 CURVE"
);
},
{
closed = 1;
nodes = (
"133 690 LINE",
"170 680 LINE",
"170 716 OFFCURVE",
"196 731 OFFCURVE",
"245 715 CURVE",
"245 740 LINE",
"20 740 LINE",
"20 715 LINE",
"69 731 OFFCURVE",
"95 716 OFFCURVE",
"95 680 CURVE"
);
},
{
closed = 1;
nodes = (
"763 0 LINE",
"763 25 LINE",
"714 9 OFFCURVE",
"688 24 OFFCURVE",
"688 60 CURVE SMOOTH",
"688 680 LINE SMOOTH",
"688 716 OFFCURVE",
"714 731 OFFCURVE",
"763 715 CURVE",
"763 740 LINE",
"538 740 LINE",
"538 715 LINE",
"587 731 OFFCURVE",
"613 716 OFFCURVE",
"613 680 CURVE SMOOTH",
"613 60 LINE SMOOTH",
"613 24 OFFCURVE",
"587 9 OFFCURVE",
"538 25 CURVE",
"538 0 LINE"
);
}
);
width = 783;
}
);
leftMetricsKey = "=H";
rightMetricsKey = "=H";
unicode = 042B;
},
{
glyphname = "Lje-cy";
lastChange = "2019-10-12 22:29:09 +0000";
layers = (
{
layerId = "8BDB995E-2F86-4134-8150-9944A684F6E9";
paths = (
{
closed = 1;
nodes = (
"94 10 OFFCURVE",
"120 49 OFFCURVE",
"148 123 CURVE SMOOTH",
"216 303 OFFCURVE",
"237 613 OFFCURVE",
"239 708 CURVE",
"312 719 OFFCURVE",
"379 714 OFFCURVE",
"404 714 CURVE SMOOTH",
"483 714 OFFCURVE",
"491 671 OFFCURVE",
"492 620 CURVE SMOOTH",
"492 60 LINE SMOOTH",
"491 24 OFFCURVE",
"466 9 OFFCURVE",
"417 25 CURVE",
"417 0 LINE",
"676 0 LINE SMOOTH",
"805 0 OFFCURVE",
"949 72 OFFCURVE",
"949 242 CURVE SMOOTH",
"949 355 OFFCURVE",
"868 442 OFFCURVE",
"712 442 CURVE SMOOTH",
"678 442 OFFCURVE",
"656 440 OFFCURVE",
"629 442 CURVE",
"629 418 LINE",
"656 420 OFFCURVE",
"677 422 OFFCURVE",
"711 421 CURVE SMOOTH",
"820 418 OFFCURVE",
"868 372 OFFCURVE",
"868 228 CURVE SMOOTH",
"868 114 OFFCURVE",
"798 10 OFFCURVE",
"650 10 CURVE SMOOTH",
"610 10 OFFCURVE",
"567 17 OFFCURVE",
"567 114 CURVE SMOOTH",
"567 680 LINE SMOOTH",
"567 716 OFFCURVE",
"593 731 OFFCURVE",
"642 715 CURVE",
"642 740 LINE",
"112 740 LINE",
"112 715 LINE",
"148 727 OFFCURVE",
"184 722 OFFCURVE",
"201 705 CURVE",
"199 598 OFFCURVE",
"195 253 OFFCURVE",
"100 96 CURVE SMOOTH",
"80 63 OFFCURVE",
"58 53 OFFCURVE",
"45 53 CURVE SMOOTH",
"6 53 OFFCURVE",
"12 80 OFFCURVE",
"-28 80 CURVE SMOOTH",
"-49 80 OFFCURVE",
"-65 55 OFFCURVE",
"-58 26 CURVE SMOOTH",
"-50 -5 OFFCURVE",
"-12 -19 OFFCURVE",
"32 -7 CURVE SMOOTH"
);
},
{
closed = 1;
nodes = (
"668 321 LINE",
"668 334 LINE",
"641 336 OFFCURVE",
"644 373 OFFCURVE",
"644 394 CURVE SMOOTH",
"644 421 OFFCURVE",
"662 424 OFFCURVE",
"669 424 CURVE",
"669 441 LINE",
"673 441 LINE",
"629 441 LINE",
"629 418 LINE SMOOTH",
"629 381 OFFCURVE",
"629 372 OFFCURVE",
"629 321 CURVE"
);
}
);
width = 979;
}
);
leftMetricsKey = "=H-80";
unicode = 0409;
},
{
glyphname = "Nje-cy";
lastChange = "2019-10-12 21:55:21 +0000";
layers = (
{
layerId = "8BDB995E-2F86-4134-8150-9944A684F6E9";
paths = (
{
closed = 1;
nodes = (
"745 0 LINE SMOOTH",
"874 0 OFFCURVE",
"1018 72 OFFCURVE",
"1018 242 CURVE SMOOTH",
"1018 355 OFFCURVE",
"937 442 OFFCURVE",
"781 442 CURVE SMOOTH",
"747 442 OFFCURVE",
"725 440 OFFCURVE",
"698 442 CURVE",
"698 418 LINE",
"725 420 OFFCURVE",
"746 422 OFFCURVE",
"780 421 CURVE SMOOTH",
"889 418 OFFCURVE",
"937 372 OFFCURVE",
"937 228 CURVE SMOOTH",
"937 114 OFFCURVE",
"867 10 OFFCURVE",
"719 10 CURVE SMOOTH",
"679 10 OFFCURVE",
"636 17 OFFCURVE",
"636 114 CURVE SMOOTH",
"636 196 OFFCURVE",
"635 519 OFFCURVE",
"636 680 CURVE SMOOTH",
"636 716 OFFCURVE",
"662 731 OFFCURVE",
"711 715 CURVE",
"711 740 LINE",
"486 740 LINE",
"486 715 LINE",
"535 731 OFFCURVE",
"561 716 OFFCURVE",
"561 680 CURVE SMOOTH",
"561 60 LINE SMOOTH",
"560 24 OFFCURVE",
"535 9 OFFCURVE",
"486 25 CURVE",
"486 0 LINE"
);
},
{
closed = 1;
nodes = (
"265 0 LINE",
"265 25 LINE",
"216 10 OFFCURVE",
"190 24 OFFCURVE",
"190 60 CURVE SMOOTH",
"190 680 LINE SMOOTH",
"190 716 OFFCURVE",
"216 731 OFFCURVE",
"265 715 CURVE",
"265 740 LINE",
"40 740 LINE",
"40 715 LINE",
"89 731 OFFCURVE",
"115 716 OFFCURVE",
"115 680 CURVE SMOOTH",
"115 60 LINE SMOOTH",
"115 24 OFFCURVE",
"89 9 OFFCURVE",
"40 25 CURVE",
"40 0 LINE"
);
},
{
closed = 1;
nodes = (
"190 403 OFFCURVE",
"274 427 OFFCURVE",
"308 427 CURVE",
"354 427 LINE",
"366 427 OFFCURVE",
"369 431 OFFCURVE",
"369 449 CURVE SMOOTH",
"369 500 OFFCURVE",
"369 528 OFFCURVE",
"369 579 CURVE",
"324 579 LINE",
"324 566 LINE",
"351 566 OFFCURVE",
"357 515 OFFCURVE",
"357 493 CURVE SMOOTH",
"357 451 OFFCURVE",
"338 440 OFFCURVE",
"320 440 CURVE SMOOTH",
"262 440 OFFCURVE",
"190 414 OFFCURVE",
"190 389 CURVE",
"190 285 LINE"
);
},
{
closed = 1;
nodes = (
"427 288 LINE",
"427 301 LINE",
"400 301 OFFCURVE",
"394 352 OFFCURVE",
"394 374 CURVE SMOOTH",
"394 416 OFFCURVE",
"413 427 OFFCURVE",
"431 427 CURVE SMOOTH",
"489 427 OFFCURVE",
"561 453 OFFCURVE",
"561 478 CURVE",
"561 582 LINE",
"561 464 OFFCURVE",
"477 440 OFFCURVE",
"443 440 CURVE",
"397 440 LINE",
"385 440 OFFCURVE",
"382 436 OFFCURVE",
"382 418 CURVE SMOOTH",
"382 367 OFFCURVE",
"382 339 OFFCURVE",
"382 288 CURVE"
);
},
{
closed = 1;
nodes = (
"737 321 LINE",
"737 334 LINE",
"710 336 OFFCURVE",
"713 373 OFFCURVE",
"713 394 CURVE SMOOTH",
"713 421 OFFCURVE",
"731 424 OFFCURVE",
"738 424 CURVE",
"738 441 LINE",
"742 441 LINE",
"698 441 LINE",
"698 418 LINE SMOOTH",
"698 381 OFFCURVE",
"698 372 OFFCURVE",
"698 321 CURVE"
);
}
);
width = 1048;
}
);
unicode = 040A;
},
{
glyphname = "E-cy";
lastChange = "2019-10-12 22:29:09 +0000";
layers = (
{
layerId = "8BDB995E-2F86-4134-8150-9944A684F6E9";
paths = (
{
closed = 1;
nodes = (
"497 -20 OFFCURVE",
"630 56 OFFCURVE",
"630 104 CURVE",
"630 189 OFFCURVE",
"637 241 OFFCURVE",
"659 261 CURVE",
"645 261 LINE",
"615 225 OFFCURVE",
"612 170 OFFCURVE",
"598 133 CURVE",
"564 56 OFFCURVE",
"490 0 OFFCURVE",
"402 0 CURVE SMOOTH",
"219 0 OFFCURVE",
"135 184 OFFCURVE",
"135 374 CURVE SMOOTH",
"135 564 OFFCURVE",
"231 740 OFFCURVE",
"369 740 CURVE SMOOTH",
"506 740 OFFCURVE",
"608 623 OFFCURVE",
"608 520 CURVE",
"629 520 LINE",
"629 743 LINE",
"612 743 LINE",
"597 668 LINE",
"560 718 OFFCURVE",
"449 760 OFFCURVE",
"383 760 CURVE SMOOTH",
"196 760 OFFCURVE",
"50 581 OFFCURVE",
"50 370 CURVE SMOOTH",
"50 160 OFFCURVE",
"207 -20 OFFCURVE",
"380 -20 CURVE SMOOTH"
);
},
{
closed = 1;
nodes = (
"376 307 LINE",
"376 358 OFFCURVE",
"376 367 OFFCURVE",
"376 404 CURVE SMOOTH",
"376 534 LINE",
"337 534 LINE",
"337 521 LINE",
"364 521 OFFCURVE",
"361 483 OFFCURVE",
"361 461 CURVE SMOOTH",
"361 426 OFFCURVE",
"317 427 OFFCURVE",
"297 427 CURVE",
"109 427 LINE",
"109 407 LINE",
"170 407 OFFCURVE",
"266 409 OFFCURVE",
"297 408 CURVE",
"345 408 OFFCURVE",
"361 402 OFFCURVE",
"361 380 CURVE SMOOTH",
"361 358 OFFCURVE",
"364 320 OFFCURVE",
"337 320 CURVE",
"337 307 LINE"
);
}
);
width = 659;
}
);
leftMetricsKey = "=C";
rightMetricsKey = "=C";
unicode = 0404;
},
{
glyphname = "Ereversed-cy";
lastChange = "2019-10-12 22:29:09 +0000";
layers = (
{
anchors = (
{
name = top;
position = "{310, 740}";
}
);
layerId = "8BDB995E-2F86-4134-8150-9944A684F6E9";
paths = (
{
closed = 1;
nodes = (
"472 -20 OFFCURVE",
"629 160 OFFCURVE",
"629 370 CURVE SMOOTH",
"629 581 OFFCURVE",
"483 760 OFFCURVE",
"296 760 CURVE SMOOTH",
"230 760 OFFCURVE",
"119 718 OFFCURVE",
"82 668 CURVE",
"67 743 LINE",
"50 743 LINE",
"50 520 LINE",
"71 520 LINE",
"71 623 OFFCURVE",
"173 740 OFFCURVE",
"310 740 CURVE SMOOTH",
"448 740 OFFCURVE",
"544 564 OFFCURVE",
"544 374 CURVE SMOOTH",
"544 184 OFFCURVE",
"460 0 OFFCURVE",
"277 0 CURVE SMOOTH",
"189 0 OFFCURVE",
"115 56 OFFCURVE",
"81 133 CURVE",
"67 170 OFFCURVE",
"64 225 OFFCURVE",
"34 261 CURVE",
"20 261 LINE",
"42 241 OFFCURVE",
"49 189 OFFCURVE",
"49 104 CURVE",
"49 56 OFFCURVE",
"182 -20 OFFCURVE",
"299 -20 CURVE SMOOTH"
);
},
{
closed = 1;
nodes = (
"342 307 LINE",
"342 320 LINE",
"315 320 OFFCURVE",
"318 358 OFFCURVE",
"318 380 CURVE SMOOTH",
"318 402 OFFCURVE",
"334 408 OFFCURVE",
"382 408 CURVE",
"413 409 OFFCURVE",
"509 407 OFFCURVE",
"570 407 CURVE",
"570 427 LINE",
"382 427 LINE",
"362 427 OFFCURVE",
"318 426 OFFCURVE",
"318 461 CURVE SMOOTH",
"318 483 OFFCURVE",
"315 521 OFFCURVE",
"342 521 CURVE",
"342 534 LINE",
"303 534 LINE",
"303 404 LINE SMOOTH",
"303 367 OFFCURVE",
"303 358 OFFCURVE",
"303 307 CURVE"
);
}
);
width = 679;
}
);
leftMetricsKey = "=H";
rightMetricsKey = "=|C";
unicode = 042D;
},
{
glyphname = "Tshe-cy";
lastChange = "2019-10-12 22:29:09 +0000";
layers = (
{
layerId = "8BDB995E-2F86-4134-8150-9944A684F6E9";
paths = (
{
closed = 1;
nodes = (
"774 0 LINE",
"774 25 LINE",
"725 9 OFFCURVE",
"699 24 OFFCURVE",
"699 60 CURVE SMOOTH",
"699 225 LINE SMOOTH",
"699 373 OFFCURVE",
"597 437 OFFCURVE",
"472 437 CURVE SMOOTH",
"298 437 OFFCURVE",
"269 330 OFFCURVE",
"250 303 CURVE",
"275 303 LINE",
"294 345 OFFCURVE",
"339 412 OFFCURVE",
"463 412 CURVE SMOOTH",
"526 412 OFFCURVE",
"624 367 OFFCURVE",
"624 237 CURVE SMOOTH",
"624 60 LINE SMOOTH",
"624 24 OFFCURVE",
"598 9 OFFCURVE",
"549 25 CURVE",
"549 0 LINE"
);
},
{
closed = 1;
nodes = (
"359 0 LINE",
"359 25 LINE",
"310 9 OFFCURVE",
"284 24 OFFCURVE",
"284 60 CURVE",
"247 50 LINE",
"209 60 LINE",
"209 24 OFFCURVE",
"183 9 OFFCURVE",
"134 25 CURVE",
"134 0 LINE"
);
},
{
closed = 1;
nodes = (
"284 0 LINE",
"284 740 LINE",
"209 740 LINE",
"209 0 LINE"
);
},
{
closed = 1;
nodes = (
"-14 570 LINE",
"23 640 OFFCURVE",
"-30 730 OFFCURVE",
"181 730 CURVE SMOOTH",
"195 730 OFFCURVE",
"207 729 OFFCURVE",
"217 727 CURVE",
"217 740 LINE",
"-24 740 LINE",
"-22 740 LINE",
"-19 711 LINE SMOOTH",
"-15 677 OFFCURVE",
"-13 612 OFFCURVE",
"-30 570 CURVE"
);
},
{
closed = 1;
nodes = (
"524 570 LINE",
"507 612 OFFCURVE",
"509 677 OFFCURVE",
"513 711 CURVE SMOOTH",
"516 740 LINE",
"518 740 LINE",
"277 740 LINE",
"277 727 LINE",
"287 729 OFFCURVE",
"299 730 OFFCURVE",
"313 730 CURVE SMOOTH",
"524 730 OFFCURVE",
"471 640 OFFCURVE",
"508 570 CURVE"
);
}
);
width = 754;
}
);
leftMetricsKey = "=T";
rightMetricsKey = "=H-40";
unicode = 040B;
},
{
glyphname = "Iu-cy";
lastChange = "2019-10-12 22:29:09 +0000";
layers = (
{
components = (
{
name = O;
transform = "{1, 0, 0, 1, 246, 0}";
}
);
layerId = "8BDB995E-2F86-4134-8150-9944A684F6E9";
paths = (
{
closed = 1;
nodes = (
"245 0 LINE",
"245 25 LINE",
"196 9 OFFCURVE",
"170 24 OFFCURVE",
"170 60 CURVE SMOOTH",
"170 680 LINE SMOOTH",
"170 716 OFFCURVE",
"196 731 OFFCURVE",
"245 715 CURVE",
"245 740 LINE",
"20 740 LINE",
"20 715 LINE",
"69 731 OFFCURVE",
"95 716 OFFCURVE",
"95 680 CURVE SMOOTH",
"95 60 LINE SMOOTH",
"95 24 OFFCURVE",
"69 9 OFFCURVE",
"20 25 CURVE",
"20 0 LINE"
);
},
{
closed = 1;
nodes = (
"347 425 LINE",
"347 443 LINE",
"115 443 LINE",
"115 425 LINE"
);
}
);
width = 986;
}
);
leftMetricsKey = "=H";
rightMetricsKey = "=O";
unicode = 042E;
},
{
glyphname = "Ia-cy";
lastChange = "2019-10-12 22:29:09 +0000";
layers = (
{
layerId = "8BDB995E-2F86-4134-8150-9944A684F6E9";
paths = (
{
closed = 1;
nodes = (
"259 -20 OFFCURVE",
"128 335 OFFCURVE",
"418 335 CURVE",
"418 344 LINE",
"241 344 OFFCURVE",
"178 411 OFFCURVE",
"178 521 CURVE SMOOTH",
"178 620 OFFCURVE",
"227 730 OFFCURVE",
"387 730 CURVE SMOOTH",
"408 730 OFFCURVE",
"425 728 OFFCURVE",
"449 722 CURVE",
"450 60 LINE SMOOTH",
"450 24 OFFCURVE",
"397 9 OFFCURVE",
"348 25 CURVE",
"348 0 LINE",
"600 0 LINE",
"600 25 LINE",
"551 9 OFFCURVE",
"525 24 OFFCURVE",
"525 60 CURVE SMOOTH",
"525 680 LINE SMOOTH",
"525 716 OFFCURVE",
"551 731 OFFCURVE",
"600 715 CURVE",
"600 740 LINE",
"343 740 LINE SMOOTH",
"214 740 OFFCURVE",
"94 682 OFFCURVE",
"94 527 CURVE SMOOTH",
"94 429 OFFCURVE",
"177 368 OFFCURVE",
"277 345 CURVE",
"121 340 OFFCURVE",
"152 6 OFFCURVE",
"12 6 CURVE SMOOTH",
"-8 6 OFFCURVE",
"-38 19 OFFCURVE",
"-52 44 CURVE",
"-60 31 LINE",
"-41 9 OFFCURVE",
"11 -20 OFFCURVE",
"68 -20 CURVE SMOOTH"
);
}
);
width = 620;
}
);
leftMetricsKey = "=H-80";
rightMetricsKey = "=H";
unicode = 042F;
},
{
glyphname = "Dje-cy";
lastChange = "2019-10-12 21:55:21 +0000";
layers = (
{
layerId = "8BDB995E-2F86-4134-8150-9944A684F6E9";
paths = (
{
closed = 1;
nodes = (
"578 -10 OFFCURVE",
"645 101 OFFCURVE",
"645 239 CURVE SMOOTH",
"645 363 OFFCURVE",
"572 487 OFFCURVE",
"421 487 CURVE SMOOTH",
"331 487 OFFCURVE",
"292 440 OFFCURVE",
"271 401 CURVE",
"271 372 LINE",
"291 413 OFFCURVE",
"331 471 OFFCURVE",
"421 471 CURVE SMOOTH",
"516 471 OFFCURVE",
"565 356 OFFCURVE",
"565 239 CURVE SMOOTH",
"565 109 OFFCURVE",
"522 6 OFFCURVE",
"427 6 CURVE SMOOTH",
"367 6 OFFCURVE",
"348 18 OFFCURVE",
"332 32 CURVE",
"332 13 LINE",
"349 2 OFFCURVE",
"367 -10 OFFCURVE",
"427 -10 CURVE SMOOTH"
);
},
{
closed = 1;
nodes = (
"274 0 LINE",
"274 740 LINE",
"199 740 LINE",
"199 0 LINE"
);
},
{
closed = 1;
nodes = (
"-24 570 LINE",
"13 640 OFFCURVE",
"-40 730 OFFCURVE",
"171 730 CURVE SMOOTH",
"185 730 OFFCURVE",
"197 729 OFFCURVE",
"207 727 CURVE",
"207 740 LINE",
"-34 740 LINE",
"-32 740 LINE",
"-29 711 LINE SMOOTH",
"-25 677 OFFCURVE",
"-23 612 OFFCURVE",
"-40 570 CURVE"
);
},
{
closed = 1;
nodes = (
"514 570 LINE",
"497 612 OFFCURVE",
"499 677 OFFCURVE",
"503 711 CURVE SMOOTH",
"506 740 LINE",
"508 740 LINE",
"267 740 LINE",
"267 727 LINE",
"277 729 OFFCURVE",
"289 730 OFFCURVE",
"303 730 CURVE SMOOTH",
"514 730 OFFCURVE",
"461 640 OFFCURVE",
"498 570 CURVE"
);
}
);
width = 675;
}
);
unicode = 0402;
},
{
glyphname = "Yat-cy";
lastChange = "2019-10-20 17:43:02 +0000";
layers = (
{
layerId = "8BDB995E-2F86-4134-8150-9944A684F6E9";
paths = (
{
closed = 1;
nodes = (
"279 0 LINE SMOOTH",
"408 0 OFFCURVE",
"552 72 OFFCURVE",
"552 242 CURVE SMOOTH",
"552 355 OFFCURVE",
"471 442 OFFCURVE",
"315 442 CURVE SMOOTH",
"281 442 OFFCURVE",
"259 440 OFFCURVE",
"232 442 CURVE",
"232 418 LINE",
"259 420 OFFCURVE",
"280 422 OFFCURVE",
"314 421 CURVE SMOOTH",
"423 418 OFFCURVE",
"471 372 OFFCURVE",
"471 228 CURVE SMOOTH",
"471 114 OFFCURVE",
"401 10 OFFCURVE",
"253 10 CURVE SMOOTH",
"213 10 OFFCURVE",
"170 17 OFFCURVE",
"170 114 CURVE SMOOTH",
"170 215 OFFCURVE",
"169 636 OFFCURVE",
"170 710 CURVE",
"95 710 LINE",
"95 60 LINE",
"94 24 OFFCURVE",
"69 9 OFFCURVE",
"20 25 CURVE",
"20 0 LINE"
);
},
{
closed = 1;
nodes = (
"271 321 LINE",
"271 334 LINE",
"244 336 OFFCURVE",
"247 373 OFFCURVE",
"247 394 CURVE SMOOTH",
"247 421 OFFCURVE",
"265 424 OFFCURVE",
"272 424 CURVE",
"272 441 LINE",
"276 441 LINE",
"232 441 LINE",
"232 418 LINE SMOOTH",
"232 381 OFFCURVE",
"232 372 OFFCURVE",
"232 321 CURVE"
);
},
{
closed = 1;
nodes = (
"-10 590 LINE",
"-10 607 OFFCURVE",
"3 612 OFFCURVE",
"29 614 CURVE",
"237 614 LINE",
"257 613 OFFCURVE",
"277 610 OFFCURVE",
"277 590 CURVE",
"290 590 LINE",
"290 653 LINE",
"277 653 LINE",
"277 633 OFFCURVE",
"257 629 OFFCURVE",
"237 629 CURVE SMOOTH",
"131 629 LINE SMOOTH",
"109 629 OFFCURVE",
"79 629 OFFCURVE",
"33 629 CURVE",
"3 630 OFFCURVE",
"-10 636 OFFCURVE",
"-10 653 CURVE",
"-23 653 LINE",
"-23 590 LINE"
);
},
{
closed = 1;
nodes = (
"133 690 LINE",
"170 680 LINE",
"170 716 OFFCURVE",
"196 731 OFFCURVE",
"245 715 CURVE",
"245 740 LINE",
"20 740 LINE",
"20 715 LINE",
"69 731 OFFCURVE",
"95 716 OFFCURVE",
"95 680 CURVE"
);
}
);
width = 600;
}
);
unicode = 0462;
},
{
glyphname = "Yusbig-cy";
lastChange = "2019-10-23 17:45:33 +0000";
layers = (
{
layerId = "8BDB995E-2F86-4134-8150-9944A684F6E9";
paths = (
{
closed = 1;
nodes = (
"829 360 OFFCURVE",
"756 425 OFFCURVE",
"643 429 CURVE",
"560 429 LINE",
"560 407 LINE",
"639 407 LINE SMOOTH",
"689 407 OFFCURVE",
"744 323 OFFCURVE",
"764 242 CURVE SMOOTH",
"799 100 OFFCURVE",
"839 24 OFFCURVE",
"949 0 CURVE SMOOTH",
"977 -6 OFFCURVE",
"1031 -6 OFFCURVE",
"1060 6 CURVE",
"1060 25 LINE",
"1022 15 OFFCURVE",
"980 10 OFFCURVE",
"955 33 CURVE SMOOTH",
"919 67 OFFCURVE",
"885 131 OFFCURVE",
"853 261 CURVE SMOOTH"
);
},
{
closed = 1;
nodes = (
"306 425 OFFCURVE",
"232 362 OFFCURVE",
"207 261 CURVE SMOOTH",
"175 131 OFFCURVE",
"141 67 OFFCURVE",
"105 33 CURVE SMOOTH",
"80 10 OFFCURVE",
"38 15 OFFCURVE",
"0 25 CURVE",
"0 6 LINE",
"29 -6 OFFCURVE",
"83 -6 OFFCURVE",
"111 0 CURVE SMOOTH",
"221 24 OFFCURVE",
"261 100 OFFCURVE",
"296 242 CURVE SMOOTH",
"316 323 OFFCURVE",
"371 407 OFFCURVE",
"421 407 CURVE SMOOTH",
"500 407 LINE",
"500 429 LINE",
"417 429 LINE"
);
},
{
closed = 1;
nodes = (
"493 429 LINE",
"493 60 LINE SMOOTH",
"493 24 OFFCURVE",
"467 9 OFFCURVE",
"418 25 CURVE",
"418 0 LINE",
"643 0 LINE",
"643 25 LINE",
"594 9 OFFCURVE",
"568 24 OFFCURVE",
"568 60 CURVE",
"568 429 LINE"
);
},
{
closed = 1;
nodes = (
"508 421 LINE",
"243 680 LINE",
"129 680 LINE",
"401 421 LINE"
);
},
{
closed = 1;
nodes = (
"916 680 LINE",
"877 680 LINE",
"603 421 LINE",
"643 420 LINE"
);
},
{
closed = 1;
nodes = (
"129 680 LINE",
"916 680 LINE",
"916 740 LINE",
"129 740 LINE"
);
}
);
width = 1060;
}
);
unicode = 046A;
},
{
glyphname = "Fita-cy";
lastChange = "2019-10-23 16:34:20 +0000";
layers = (
{
anchors = (
{
name = bottom;
position = "{370, 0}";
},
{
name = center;
position = "{370, 370}";
},
{
name = ogonek;
position = "{666, 10}";
},
{
name = top;
position = "{367, 740}";
},
{
name = topleft;
position = "{20, 740}";
},
{
name = topright;
position = "{557, 740}";
}
);
layerId = "8BDB995E-2F86-4134-8150-9944A684F6E9";
paths = (
{
closed = 1;
nodes = (
"567 266 OFFCURVE",
"615 348 OFFCURVE",
"616 395 CURVE",
"609 399 LINE",
"606 359 OFFCURVE",
"542 312 OFFCURVE",
"501 311 CURVE SMOOTH",
"402 309 OFFCURVE",
"384 451 OFFCURVE",
"266 451 CURVE SMOOTH",
"160 451 OFFCURVE",
"118 384 OFFCURVE",
"116 341 CURVE",
"124 339 LINE",
"127 381 OFFCURVE",
"172 413 OFFCURVE",
"229 413 CURVE",
"299 415 OFFCURVE",
"343 266 OFFCURVE",
"466 266 CURVE SMOOTH"
);
},
{
closed = 1;
nodes = (
"589 -20 OFFCURVE",
"690 164 OFFCURVE",
"690 375 CURVE SMOOTH",
"690 542 OFFCURVE",
"608 760 OFFCURVE",
"367 760 CURVE SMOOTH",
"127 760 OFFCURVE",
"49 524 OFFCURVE",
"50 375 CURVE SMOOTH",
"51 164 OFFCURVE",
"167 -20 OFFCURVE",
"377 -20 CURVE SMOOTH"
);
},
{
closed = 1;
nodes = (
"207 0 OFFCURVE",
"132 175 OFFCURVE",
"135 375 CURVE SMOOTH",
"137 518 OFFCURVE",
"197 740 OFFCURVE",
"367 740 CURVE SMOOTH",
"537 740 OFFCURVE",
"605 534 OFFCURVE",
"606 375 CURVE SMOOTH",
"607 175 OFFCURVE",
"550 0 OFFCURVE",
"377 0 CURVE SMOOTH"
);
}
);
width = 740;
}
);
leftMetricsKey = "=O";
rightMetricsKey = "=O";
unicode = 0472;
},
{
glyphname = "Izhitsa-cy";
lastChange = "2019-10-12 22:29:09 +0000";
layers = (
{
layerId = "8BDB995E-2F86-4134-8150-9944A684F6E9";
paths = (
{
closed = 1;
nodes = (
"299 0 LINE",
"319 47 LINE",
"134 680 LINE SMOOTH",
"123 716 OFFCURVE",
"152 731 OFFCURVE",
"201 715 CURVE",
"201 740 LINE",
"-40 740 LINE",
"-40 715 LINE",
"9 731 OFFCURVE",
"42 716 OFFCURVE",
"52 680 CURVE SMOOTH",
"248 0 LINE"
);
},
{
closed = 1;
nodes = (
"307 0 LINE",
"468 652 LINE SMOOTH",
"483 711 OFFCURVE",
"525 709 OFFCURVE",
"577 709 CURVE",
"577 755 LINE",
"478 760 OFFCURVE",
"462 754 OFFCURVE",
"438 649 CURVE SMOOTH",
"287 0 LINE"
);
}
);
width = 537;
}
);
rightMetricsKey = "=V";
unicode = 0474;
},
{
glyphname = "Ghestroke-cy";
lastChange = "2019-10-12 22:29:09 +0000";
layers = (
{
guideLines = (
{
angle = 90;
position = "{20, 728}";
}
);
layerId = "8BDB995E-2F86-4134-8150-9944A684F6E9";
paths = (
{
closed = 1;
nodes = (
"245 0 LINE",
"245 25 LINE",
"196 9 OFFCURVE",
"170 24 OFFCURVE",
"170 60 CURVE",
"170 680 LINE",
"170 685 OFFCURVE",
"171 689 OFFCURVE",
"173 694 CURVE",
"187 715 OFFCURVE",
"215 730 OFFCURVE",
"269 730 CURVE SMOOTH",
"480 730 OFFCURVE",
"427 640 OFFCURVE",
"464 570 CURVE",
"480 570 LINE",
"463 612 OFFCURVE",
"465 677 OFFCURVE",
"469 711 CURVE SMOOTH",
"472 740 LINE",
"20 740 LINE",
"20 715 LINE",
"69 731 OFFCURVE",
"95 716 OFFCURVE",
"95 680 CURVE SMOOTH",
"95 60 LINE SMOOTH",
"95 24 OFFCURVE",
"69 9 OFFCURVE",
"20 25 CURVE",
"20 0 LINE"
);
},
{
closed = 1;
nodes = (
"349 402 LINE",
"349 428 LINE",
"20 428 LINE",
"20 402 LINE"
);
}
);
width = 480;
}
);
leftMetricsKey = "=F";
rightMetricsKey = "=F";
unicode = 0492;
},
{
glyphname = "Zhedescender-cy";
lastChange = "2019-10-12 21:55:21 +0000";
layers = (
{
layerId = "8BDB995E-2F86-4134-8150-9944A684F6E9";
paths = (
{
closed = 1;
nodes = (
"977 -6 OFFCURVE",
"1031 -6 OFFCURVE",
"1060 6 CURVE",
"1060 25 LINE",
"1022 15 OFFCURVE",
"980 10 OFFCURVE",
"955 33 CURVE SMOOTH",
"919 67 OFFCURVE",
"885 131 OFFCURVE",
"853 261 CURVE SMOOTH",
"829 360 OFFCURVE",
"747 425 OFFCURVE",
"672 425 CURVE",
"895 684 LINE",
"925 714 OFFCURVE",
"966 728 OFFCURVE",
"1005 715 CURVE",
"1005 740 LINE",
"804 740 LINE",
"804 715 LINE",
"854 733 OFFCURVE",
"876 706 OFFCURVE",
"854 680 CURVE SMOOTH",
"643 429 LINE",
"560 429 LINE",
"560 407 LINE",
"639 407 LINE SMOOTH",
"689 407 OFFCURVE",
"744 323 OFFCURVE",
"764 242 CURVE SMOOTH",
"799 100 OFFCURVE",
"839 24 OFFCURVE",
"949 0 CURVE SMOOTH"
);
},
{
closed = 1;
nodes = (
"221 24 OFFCURVE",
"261 100 OFFCURVE",
"296 242 CURVE SMOOTH",
"316 323 OFFCURVE",
"371 407 OFFCURVE",
"421 407 CURVE SMOOTH",
"500 407 LINE",
"500 429 LINE",
"417 429 LINE",
"206 680 LINE SMOOTH",
"184 706 OFFCURVE",
"206 733 OFFCURVE",
"256 715 CURVE",
"256 740 LINE",
"55 740 LINE",
"55 715 LINE",
"94 728 OFFCURVE",
"135 714 OFFCURVE",
"165 684 CURVE",
"388 425 LINE",
"313 425 OFFCURVE",
"231 360 OFFCURVE",
"207 261 CURVE SMOOTH",
"175 131 OFFCURVE",
"141 67 OFFCURVE",
"105 33 CURVE SMOOTH",
"80 10 OFFCURVE",
"38 15 OFFCURVE",
"0 25 CURVE",
"0 6 LINE",
"29 -6 OFFCURVE",
"83 -6 OFFCURVE",
"111 0 CURVE SMOOTH"
);
},
{
closed = 1;
nodes = (
"643 0 LINE",
"643 25 LINE",
"594 9 OFFCURVE",
"568 24 OFFCURVE",
"568 60 CURVE",
"568 680 LINE",
"568 716 OFFCURVE",
"594 731 OFFCURVE",
"643 715 CURVE",
"643 740 LINE",
"418 740 LINE",
"418 715 LINE",
"467 731 OFFCURVE",
"493 716 OFFCURVE",
"493 680 CURVE SMOOTH",
"493 60 LINE SMOOTH",
"493 24 OFFCURVE",
"467 9 OFFCURVE",
"418 25 CURVE",
"418 0 LINE"
);
},
{
closed = 1;
nodes = (
"1083 -202 LINE",
"1063 -184 OFFCURVE",
"1060 -145 OFFCURVE",
"1060 -78 CURVE SMOOTH",
"1060 13 LINE",
"1016 12 OFFCURVE",
"979 13 OFFCURVE",
"949 13 CURVE",
"949 0 LINE",
"1056 -23 OFFCURVE",
"1019 -126 OFFCURVE",
"1065 -202 CURVE"
);
}
);
width = 1060;
}
);
unicode = 0496;
},
{
glyphname = "Kadescender-cy";
lastChange = "2019-10-12 21:55:21 +0000";
layers = (
{
layerId = "8BDB995E-2F86-4134-8150-9944A684F6E9";
paths = (
{
closed = 1;
nodes = (
"599 -6 OFFCURVE",
"653 -6 OFFCURVE",
"682 6 CURVE",
"682 25 LINE",
"644 15 OFFCURVE",
"602 10 OFFCURVE",
"577 33 CURVE SMOOTH",
"541 67 OFFCURVE",
"507 131 OFFCURVE",
"475 261 CURVE SMOOTH",
"451 360 OFFCURVE",
"369 425 OFFCURVE",
"294 425 CURVE",
"517 684 LINE",
"547 714 OFFCURVE",
"588 728 OFFCURVE",
"627 715 CURVE",
"627 740 LINE",
"426 740 LINE",
"426 715 LINE",
"476 733 OFFCURVE",
"498 706 OFFCURVE",
"476 680 CURVE SMOOTH",
"265 429 LINE",
"182 429 LINE",
"182 407 LINE",
"261 407 LINE SMOOTH",
"311 407 OFFCURVE",
"366 323 OFFCURVE",
"386 242 CURVE SMOOTH",
"420 100 OFFCURVE",
"461 25 OFFCURVE",
"571 0 CURVE SMOOTH"
);
},
{
closed = 1;
nodes = (
"265 0 LINE",
"265 25 LINE",
"216 9 OFFCURVE",
"190 24 OFFCURVE",
"190 60 CURVE",
"190 680 LINE",
"190 716 OFFCURVE",
"216 731 OFFCURVE",
"265 715 CURVE",
"265 740 LINE",
"40 740 LINE",
"40 715 LINE",
"89 731 OFFCURVE",
"115 716 OFFCURVE",
"115 680 CURVE SMOOTH",
"115 60 LINE SMOOTH",
"115 24 OFFCURVE",
"89 9 OFFCURVE",
"40 25 CURVE",
"40 0 LINE"
);
},
{
closed = 1;
nodes = (
"705 -202 LINE",
"685 -184 OFFCURVE",
"682 -145 OFFCURVE",
"682 -78 CURVE SMOOTH",
"682 13 LINE",
"638 12 OFFCURVE",
"601 13 OFFCURVE",
"571 13 CURVE",
"571 0 LINE",
"678 -23 OFFCURVE",
"641 -126 OFFCURVE",
"687 -202 CURVE"
);
}
);
width = 682;
}
);
unicode = 049A;
},
{
glyphname = "Endescender-cy";
lastChange = "2019-10-12 21:55:21 +0000";
layers = (
{
layerId = "8BDB995E-2F86-4134-8150-9944A684F6E9";
paths = (
{
closed = 1;
nodes = (
"711 0 LINE",
"711 25 LINE",
"662 9 OFFCURVE",
"636 24 OFFCURVE",
"636 60 CURVE SMOOTH",
"636 680 LINE SMOOTH",
"636 716 OFFCURVE",
"662 731 OFFCURVE",
"711 715 CURVE",
"711 740 LINE",
"486 740 LINE",
"486 715 LINE",
"535 731 OFFCURVE",
"561 716 OFFCURVE",
"561 680 CURVE SMOOTH",
"561 60 LINE SMOOTH",
"561 24 OFFCURVE",
"535 9 OFFCURVE",
"486 25 CURVE",
"486 0 LINE"
);
},
{
closed = 1;
nodes = (
"265 0 LINE",
"265 25 LINE",
"216 10 OFFCURVE",
"190 24 OFFCURVE",
"190 60 CURVE SMOOTH",
"190 680 LINE SMOOTH",
"190 716 OFFCURVE",
"216 731 OFFCURVE",
"265 715 CURVE",
"265 740 LINE",
"40 740 LINE",
"40 715 LINE",
"89 731 OFFCURVE",
"115 716 OFFCURVE",
"115 680 CURVE SMOOTH",
"115 60 LINE SMOOTH",
"115 24 OFFCURVE",
"89 9 OFFCURVE",
"40 25 CURVE",
"40 0 LINE"
);
},
{
closed = 1;
nodes = (
"734 -202 LINE",
"714 -184 OFFCURVE",
"711 -145 OFFCURVE",
"711 -78 CURVE SMOOTH",
"711 13 LINE",
"667 12 OFFCURVE",
"630 13 OFFCURVE",
"600 13 CURVE",
"600 0 LINE",
"694 0 OFFCURVE",
"670 -126 OFFCURVE",
"716 -202 CURVE"
);
},
{
closed = 1;
nodes = (
"190 403 OFFCURVE",
"274 427 OFFCURVE",
"308 427 CURVE",
"354 427 LINE",
"366 427 OFFCURVE",
"369 431 OFFCURVE",
"369 449 CURVE SMOOTH",
"369 500 OFFCURVE",
"369 528 OFFCURVE",
"369 579 CURVE",
"324 579 LINE",
"324 566 LINE",
"351 566 OFFCURVE",
"357 515 OFFCURVE",
"357 493 CURVE SMOOTH",
"357 451 OFFCURVE",
"338 440 OFFCURVE",
"320 440 CURVE SMOOTH",
"262 440 OFFCURVE",
"190 414 OFFCURVE",
"190 389 CURVE",
"190 285 LINE"
);
},
{
closed = 1;
nodes = (
"427 288 LINE",
"427 301 LINE",
"400 301 OFFCURVE",
"394 352 OFFCURVE",
"394 374 CURVE SMOOTH",
"394 416 OFFCURVE",
"413 427 OFFCURVE",
"431 427 CURVE SMOOTH",
"489 427 OFFCURVE",
"561 453 OFFCURVE",
"561 478 CURVE",
"561 582 LINE",
"561 464 OFFCURVE",
"477 440 OFFCURVE",
"443 440 CURVE",
"397 440 LINE",
"385 440 OFFCURVE",
"382 436 OFFCURVE",
"382 418 CURVE SMOOTH",
"382 367 OFFCURVE",
"382 339 OFFCURVE",
"382 288 CURVE"
);
}
);
width = 751;
}
);
unicode = 04A2;
},
{
glyphname = "Ustraight-cy";
lastChange = "2019-10-12 22:29:09 +0000";
layers = (
{
layerId = "8BDB995E-2F86-4134-8150-9944A684F6E9";
paths = (
{
closed = 1;
nodes = (
"390 0 LINE",
"390 25 LINE",
"341 9 OFFCURVE",
"317 24 OFFCURVE",
"317 60 CURVE SMOOTH",
"317 346 LINE",
"389 471 OFFCURVE",
"438 573 OFFCURVE",
"514 700 CURVE SMOOTH",
"532 730 OFFCURVE",
"560 728 OFFCURVE",
"599 715 CURVE",
"599 740 LINE",
"390 740 LINE",
"390 715 LINE",
"439 732 OFFCURVE",
"498 722 OFFCURVE",
"475 678 CURVE SMOOTH",
"463 655 LINE",
"304 370 LINE",
"144 680 LINE SMOOTH",
"125 717 OFFCURVE",
"162 731 OFFCURVE",
"211 715 CURVE",
"211 740 LINE",
"-30 740 LINE",
"-30 715 LINE",
"19 731 OFFCURVE",
"42 717 OFFCURVE",
"62 680 CURVE SMOOTH",
"238 346 LINE",
"238 60 LINE SMOOTH",
"238 24 OFFCURVE",
"214 9 OFFCURVE",
"165 25 CURVE",
"165 0 LINE"
);
}
);
width = 559;
}
);
leftMetricsKey = "=Y";
rightMetricsKey = "=Y";
unicode = 04AE;
},
{
glyphname = "Ustraightstroke-cy";
lastChange = "2019-10-12 22:29:09 +0000";
layers = (
{
layerId = "8BDB995E-2F86-4134-8150-9944A684F6E9";
paths = (
{
closed = 1;
nodes = (
"390 0 LINE",
"390 25 LINE",
"341 9 OFFCURVE",
"317 24 OFFCURVE",
"317 60 CURVE SMOOTH",
"317 346 LINE",
"389 471 OFFCURVE",
"438 573 OFFCURVE",
"514 700 CURVE SMOOTH",
"532 730 OFFCURVE",
"560 728 OFFCURVE",
"599 715 CURVE",
"599 740 LINE",
"390 740 LINE",
"390 715 LINE",
"439 732 OFFCURVE",
"498 722 OFFCURVE",
"475 678 CURVE SMOOTH",
"463 655 LINE",
"304 370 LINE",
"144 680 LINE SMOOTH",
"125 717 OFFCURVE",
"162 731 OFFCURVE",
"211 715 CURVE",
"211 740 LINE",
"-30 740 LINE",
"-30 715 LINE",
"19 731 OFFCURVE",
"42 717 OFFCURVE",
"62 680 CURVE SMOOTH",
"238 346 LINE",
"238 60 LINE SMOOTH",
"238 24 OFFCURVE",
"214 9 OFFCURVE",
"165 25 CURVE",
"165 0 LINE"
);
},
{
closed = 1;
nodes = (
"462 307 LINE",
"462 333 LINE",
"95 333 LINE",
"95 307 LINE"
);
}
);
width = 559;
}
);
leftMetricsKey = "=Y";
rightMetricsKey = "=Y";
unicode = 04B0;
},
{
glyphname = "Hadescender-cy";
lastChange = "2019-10-12 22:11:16 +0000";
layers = (
{
components = (
{
name = X;
}
);
layerId = "8BDB995E-2F86-4134-8150-9944A684F6E9";
paths = (
{
closed = 1;
nodes = (
"595 -202 LINE",
"575 -184 OFFCURVE",
"572 -145 OFFCURVE",
"572 -78 CURVE SMOOTH",
"572 13 LINE",
"528 12 OFFCURVE",
"491 13 OFFCURVE",
"461 13 CURVE",
"461 0 LINE",
"561 0 OFFCURVE",
"531 -126 OFFCURVE",
"577 -202 CURVE"
);
}
);
width = 535;
}
);
leftKerningGroup = W;
leftMetricsKey = "=X";
unicode = 04B2;
},
{
glyphname = "Chedescender-cy";
lastChange = "2019-10-12 21:55:21 +0000";
layers = (
{
layerId = "8BDB995E-2F86-4134-8150-9944A684F6E9";
paths = (
{
closed = 1;
nodes = (
"436 277 OFFCURVE",
"479 360 OFFCURVE",
"505 387 CURVE",
"480 387 LINE",
"454 345 OFFCURVE",
"395 302 OFFCURVE",
"271 302 CURVE SMOOTH",
"208 302 OFFCURVE",
"110 346 OFFCURVE",
"110 477 CURVE SMOOTH",
"110 680 LINE SMOOTH",
"110 716 OFFCURVE",
"136 731 OFFCURVE",
"185 715 CURVE",
"185 740 LINE",
"-40 740 LINE",
"-40 715 LINE",
"9 731 OFFCURVE",
"35 716 OFFCURVE",
"35 680 CURVE SMOOTH",
"35 489 LINE SMOOTH",
"35 341 OFFCURVE",
"137 277 OFFCURVE",
"262 277 CURVE SMOOTH"
);
},
{
closed = 1;
nodes = (
"647 -202 LINE",
"627 -184 OFFCURVE",
"624 -145 OFFCURVE",
"624 -78 CURVE SMOOTH",
"624 13 LINE",
"580 12 OFFCURVE",
"543 13 OFFCURVE",
"513 13 CURVE",
"513 0 LINE",
"607 0 OFFCURVE",
"583 -126 OFFCURVE",
"629 -202 CURVE"
);
},
{
closed = 1;
nodes = (
"624 0 LINE",
"624 25 LINE",
"575 9 OFFCURVE",
"549 24 OFFCURVE",
"549 60 CURVE SMOOTH",
"549 680 LINE SMOOTH",
"549 716 OFFCURVE",
"575 731 OFFCURVE",
"624 715 CURVE",
"624 740 LINE",
"399 740 LINE",
"399 715 LINE",
"448 731 OFFCURVE",
"474 716 OFFCURVE",
"474 680 CURVE SMOOTH",
"474 60 LINE SMOOTH",
"474 24 OFFCURVE",
"448 9 OFFCURVE",
"399 25 CURVE",
"399 0 LINE"
);
}
);
width = 664;
}
);
unicode = 04B6;
},
{
glyphname = "Shha-cy";
lastChange = "2019-10-12 21:55:21 +0000";
layers = (
{
layerId = "8BDB995E-2F86-4134-8150-9944A684F6E9";
paths = (
{
closed = 1;
nodes = (
"704 0 LINE",
"704 25 LINE",
"655 9 OFFCURVE",
"629 24 OFFCURVE",
"629 60 CURVE SMOOTH",
"629 251 LINE SMOOTH",
"629 399 OFFCURVE",
"527 463 OFFCURVE",
"402 463 CURVE SMOOTH",
"228 463 OFFCURVE",
"185 380 OFFCURVE",
"159 353 CURVE",
"184 353 LINE",
"210 395 OFFCURVE",
"269 438 OFFCURVE",
"393 438 CURVE SMOOTH",
"456 438 OFFCURVE",
"554 394 OFFCURVE",
"554 263 CURVE SMOOTH",
"554 60 LINE SMOOTH",
"554 24 OFFCURVE",
"528 9 OFFCURVE",
"479 25 CURVE",
"479 0 LINE"
);
},
{
closed = 1;
nodes = (
"265 0 LINE",
"265 25 LINE",
"216 9 OFFCURVE",
"190 24 OFFCURVE",
"190 60 CURVE SMOOTH",
"190 680 LINE SMOOTH",
"190 716 OFFCURVE",
"216 731 OFFCURVE",
"265 715 CURVE",
"265 740 LINE",
"40 740 LINE",
"40 715 LINE",
"89 731 OFFCURVE",
"115 716 OFFCURVE",
"115 680 CURVE SMOOTH",
"115 60 LINE SMOOTH",
"115 24 OFFCURVE",
"89 9 OFFCURVE",
"40 25 CURVE",
"40 0 LINE"
);
}
);
width = 680;
}
);
leftMetricsKey = "=h";
unicode = 04BA;
},
{
glyphname = "Schwa-cy";
lastChange = "2019-10-12 21:55:21 +0000";
layers = (
{
anchors = (
{
name = top;
position = "{360, 740}";
}
);
guideLines = (
{
position = "{421, -20}";
}
);
layerId = "8BDB995E-2F86-4134-8150-9944A684F6E9";
paths = (
{
closed = 1;
nodes = (
"543 -20 OFFCURVE",
"670 181 OFFCURVE",
"670 370 CURVE SMOOTH",
"670 581 OFFCURVE",
"524 760 OFFCURVE",
"337 760 CURVE SMOOTH",
"271 760 OFFCURVE",
"160 718 OFFCURVE",
"123 668 CURVE",
"108 743 LINE",
"91 743 LINE",
"91 520 LINE",
"112 520 LINE",
"112 623 OFFCURVE",
"214 740 OFFCURVE",
"351 740 CURVE SMOOTH",
"489 740 OFFCURVE",
"585 564 OFFCURVE",
"585 374 CURVE SMOOTH",
"585 136 OFFCURVE",
"491 1 OFFCURVE",
"358 1 CURVE SMOOTH",
"211 1 OFFCURVE",
"132 136 OFFCURVE",
"132 325 CURVE SMOOTH",
"132 337 OFFCURVE",
"136 349 OFFCURVE",
"146 362 CURVE",
"58 362 LINE",
"52 350 OFFCURVE",
"50 323 OFFCURVE",
"50 317 CURVE SMOOTH",
"50 181 OFFCURVE",
"133 -20 OFFCURVE",
"359 -20 CURVE SMOOTH"
);
},
{
closed = 1;
nodes = (
"608 336 LINE",
"608 362 LINE",
"75 362 LINE",
"75 336 LINE"
);
}
);
width = 720;
}
);
leftMetricsKey = "=O";
rightMetricsKey = "=O";
unicode = 04D8;
},
